<svg xmlns="http://www.w3.org/2000/svg" width="152.517" height="50.437" viewBox="0 0 152.517 50.437"><path d="M4.159,1.386A17.774,17.774,0,0,0-.552,7.8,31.766,31.766,0,0,0-2.91,16.047a55.373,55.373,0,0,0-.654,8.07,50.314,50.314,0,0,0,.7,7.94,30.8,30.8,0,0,0,2.486,8.2,18.676,18.676,0,0,0,4.8,6.415,11.342,11.342,0,0,0,7.635,2.574,11.178,11.178,0,0,0,7.678-2.618,18.37,18.37,0,0,0,4.67-6.5A31.344,31.344,0,0,0,26.717,31.8a59.907,59.907,0,0,0,.609-8.029,50.157,50.157,0,0,0-.7-7.853,30.294,30.294,0,0,0-2.486-8.159,19.1,19.1,0,0,0-4.757-6.369,11.05,11.05,0,0,0-7.5-2.574A11.474,11.474,0,0,0,4.159,1.386m.741,21.6V19.057q0-2.269.176-4.757a45.783,45.783,0,0,1,.611-4.93,21.612,21.612,0,0,1,1.22-4.362A9.1,9.1,0,0,1,8.96,1.865a4.289,4.289,0,0,1,3.1-1.22q1.658,0,2.88,2.05A20.993,20.993,0,0,1,17.03,8.15a52.8,52.8,0,0,1,1.309,7.721,87.375,87.375,0,0,1,.436,8.77,79.245,79.245,0,0,1-.436,8.376A50.373,50.373,0,0,1,17.073,40.3a17.048,17.048,0,0,1-2.137,5.149,3.7,3.7,0,0,1-3.056,1.963,4.079,4.079,0,0,1-3.1-1.352,9.634,9.634,0,0,1-2.007-3.535,27.374,27.374,0,0,1-1.133-4.843q-.393-2.659-.568-5.233t-.176-4.8V22.984ZM54.663,46.368a5.643,5.643,0,0,1-3.229-.7q-.959-.7-.96-3.06V-.664h-7.5a28.51,28.51,0,0,1-1.92,10.077,35.722,35.722,0,0,1-4.973,9.119l1.744,1.484q1.482-2.181,2.88-4.713a32.358,32.358,0,0,0,2.269-5.06V42q0,2.974-1.179,3.673a7.3,7.3,0,0,1-3.621.7v2.007h15.88l.611-.087Zm8.766-5.89a4.447,4.447,0,0,0-1.253,3.272,4.6,4.6,0,0,0,1.253,3.316,4.281,4.281,0,0,0,3.24,1.309,4.113,4.113,0,0,0,3.24-1.309,4.8,4.8,0,0,0,1.168-3.316,4.638,4.638,0,0,0-1.168-3.272,4.189,4.189,0,0,0-3.24-1.266,4.362,4.362,0,0,0-3.24,1.266M86.712,1.386A17.8,17.8,0,0,0,82,7.8a31.849,31.849,0,0,0-2.356,8.246,55.372,55.372,0,0,0-.654,8.07,50.553,50.553,0,0,0,.7,7.94,30.887,30.887,0,0,0,2.488,8.2,18.676,18.676,0,0,0,4.8,6.415,11.342,11.342,0,0,0,7.635,2.574,11.182,11.182,0,0,0,7.678-2.618,18.364,18.364,0,0,0,4.668-6.5,31.182,31.182,0,0,0,2.312-8.332,59.577,59.577,0,0,0,.611-8.029,50.158,50.158,0,0,0-.7-7.853,30.293,30.293,0,0,0-2.486-8.159,19.127,19.127,0,0,0-4.757-6.369,11.05,11.05,0,0,0-7.5-2.574,11.474,11.474,0,0,0-7.721,2.574m.741,21.6V19.057q0-2.269.176-4.757a46.333,46.333,0,0,1,.609-4.93A21.609,21.609,0,0,1,89.46,5.008a9.122,9.122,0,0,1,2.05-3.142,4.3,4.3,0,0,1,3.1-1.22q1.655,0,2.88,2.05A21.071,21.071,0,0,1,99.582,8.15a52.794,52.794,0,0,1,1.309,7.721,87.376,87.376,0,0,1,.436,8.77,79.246,79.246,0,0,1-.436,8.376A50.375,50.375,0,0,1,99.626,40.3a17.048,17.048,0,0,1-2.137,5.149,3.7,3.7,0,0,1-3.056,1.963,4.079,4.079,0,0,1-3.1-1.352,9.6,9.6,0,0,1-2.007-3.535,27.37,27.37,0,0,1-1.136-4.843q-.39-2.659-.566-5.233t-.176-4.8V22.984ZM128.14.387a14.365,14.365,0,0,0-4.887,3.194,15.071,15.071,0,0,0-3.227,4.856,15.623,15.623,0,0,0-1.179,6.126,17.406,17.406,0,0,0,.96,5.862,13.634,13.634,0,0,0,2.748,4.683,12.3,12.3,0,0,0,4.364,3.062,14.673,14.673,0,0,0,5.8,1.094,11.73,11.73,0,0,0,3.97-.611A6.562,6.562,0,0,0,139.7,26.3V29.09q0,2.708-.176,5.89a26.225,26.225,0,0,1-.96,5.89,11.415,11.415,0,0,1-2.442,4.538,6.032,6.032,0,0,1-4.713,1.833,7.424,7.424,0,0,1-2.923-.611,4.191,4.191,0,0,1-2.137-1.92c.115-.176.247-.392.392-.654a2.861,2.861,0,0,1,.481-.654,4.964,4.964,0,0,0,.784-1.047,3.572,3.572,0,0,0,.349-1.747,3.128,3.128,0,0,0-1.352-2.7,4.84,4.84,0,0,0-2.837-.96,4.392,4.392,0,0,0-3.183,1.136,4.15,4.15,0,0,0-1.179,3.14,5.265,5.265,0,0,0,1.179,3.448,10.209,10.209,0,0,0,2.967,2.442,14.8,14.8,0,0,0,3.751,1.484,15.112,15.112,0,0,0,3.534.479,13.47,13.47,0,0,0,8.768-2.8,19.959,19.959,0,0,0,5.455-6.993,32.094,32.094,0,0,0,2.748-9.091,61.052,61.052,0,0,0,.743-9.093,57.33,57.33,0,0,0-.524-7.648,22.3,22.3,0,0,0-2.093-7.036,13.627,13.627,0,0,0-4.451-5.158A13.011,13.011,0,0,0,134.292-.75,16.37,16.37,0,0,0,128.14.387m2.269,25.825a7.521,7.521,0,0,1-1.744-3.056,14.13,14.13,0,0,1-.611-3.927q-.046-2.093-.043-3.838V13.21q0-1.833.043-3.927a14.155,14.155,0,0,1,.611-3.927A7.513,7.513,0,0,1,130.409,2.3a4.571,4.571,0,0,1,3.448-1.222,4.63,4.63,0,0,1,3.489,1.266,7.232,7.232,0,0,1,1.747,3.14A17.731,17.731,0,0,1,139.7,9.5q.085,2.139.087,3.881v1.571q0,1.749-.087,3.883a18.329,18.329,0,0,1-.611,4.057,7.537,7.537,0,0,1-1.747,3.229,5.391,5.391,0,0,1-6.937.089" transform="translate(3.564 1.188)" fill="#2b2e34"/></svg>