<svg xmlns="http://www.w3.org/2000/svg" width="159.261" height="50.437" viewBox="0 0 159.261 50.437"><path d="M4.159,1.386A17.774,17.774,0,0,0-.552,7.8,31.766,31.766,0,0,0-2.91,16.047a55.373,55.373,0,0,0-.654,8.07,50.314,50.314,0,0,0,.7,7.94,30.8,30.8,0,0,0,2.486,8.2,18.676,18.676,0,0,0,4.8,6.415,11.342,11.342,0,0,0,7.635,2.574,11.178,11.178,0,0,0,7.678-2.618,18.37,18.37,0,0,0,4.67-6.5A31.263,31.263,0,0,0,26.717,31.8a59.907,59.907,0,0,0,.609-8.029,50.157,50.157,0,0,0-.7-7.853,30.294,30.294,0,0,0-2.486-8.159,19.1,19.1,0,0,0-4.757-6.369,11.05,11.05,0,0,0-7.5-2.574A11.474,11.474,0,0,0,4.159,1.386m.741,21.6V19.057q0-2.269.176-4.757a45.783,45.783,0,0,1,.611-4.93,21.612,21.612,0,0,1,1.22-4.362A9.1,9.1,0,0,1,8.96,1.865a4.289,4.289,0,0,1,3.1-1.22q1.658,0,2.88,2.05A20.993,20.993,0,0,1,17.03,8.15a52.506,52.506,0,0,1,1.309,7.721,87.375,87.375,0,0,1,.436,8.77,79.245,79.245,0,0,1-.436,8.376A50.078,50.078,0,0,1,17.073,40.3a17.048,17.048,0,0,1-2.137,5.149,3.7,3.7,0,0,1-3.056,1.963,4.079,4.079,0,0,1-3.1-1.352,9.634,9.634,0,0,1-2.007-3.535,27.328,27.328,0,0,1-1.133-4.843q-.393-2.659-.568-5.233t-.176-4.8V22.984ZM58.38,5.749A10.991,10.991,0,0,0,55.545,2.3a11.361,11.361,0,0,0-4.1-2.05,17.781,17.781,0,0,0-4.8-.654,17.147,17.147,0,0,0-3.71.436,12.725,12.725,0,0,0-3.621,1.4,8.889,8.889,0,0,0-2.748,2.444,5.859,5.859,0,0,0-1.09,3.576,3.863,3.863,0,0,0,1.133,2.923,4.1,4.1,0,0,0,2.967,1.092,4.409,4.409,0,0,0,2.793-.96,3.244,3.244,0,0,0,1.22-2.7,3.147,3.147,0,0,0-.349-1.571,8.111,8.111,0,0,0-.7-1.047l-.871-1.4A2.544,2.544,0,0,1,43.546,2a11.038,11.038,0,0,1,2.923-.392,3.139,3.139,0,0,1,2.488,1.047,7.071,7.071,0,0,1,1.4,2.574,12.813,12.813,0,0,1,.568,3.14q.085,1.616.087,2.75,0,2.7-.13,4.581A6.269,6.269,0,0,1,50,18.708a4.052,4.052,0,0,1-2.312,1.614,16.471,16.471,0,0,1-4.538.479v2.182a6.936,6.936,0,0,0,.741-.043,7.209,7.209,0,0,1,.83-.046,23.541,23.541,0,0,1,2.442-.043,4.878,4.878,0,0,1,2.182.568,3.86,3.86,0,0,1,1.7,2.139,17.939,17.939,0,0,1,1,3.532,35.524,35.524,0,0,1,.481,3.753q.13,1.83.13,2.878a32.364,32.364,0,0,1-.219,3.535,15.34,15.34,0,0,1-.871,3.708A8.213,8.213,0,0,1,49.7,45.933a4.479,4.479,0,0,1-3.316,1.22,9.1,9.1,0,0,1-1.352-.13,10.029,10.029,0,0,1-1.614-.392,4.575,4.575,0,0,1-1.352-.7A1.365,1.365,0,0,1,41.5,44.8a2.165,2.165,0,0,1,.784-1.4,4.97,4.97,0,0,0,.787-1.047,3.572,3.572,0,0,0,.349-1.747,3.367,3.367,0,0,0-1.222-2.748,4.283,4.283,0,0,0-2.791-1,4.047,4.047,0,0,0-3.056,1.177,4.284,4.284,0,0,0-1.133,3.1,5.766,5.766,0,0,0,1.133,3.535A9.48,9.48,0,0,0,39.184,47.2a13.39,13.39,0,0,0,3.665,1.484,15.4,15.4,0,0,0,3.621.479,14.1,14.1,0,0,0,5.847-1.177A13.894,13.894,0,0,0,56.811,44.8,13.718,13.718,0,0,0,59.689,40a17.381,17.381,0,0,0,1-5.933,13.894,13.894,0,0,0-2.267-7.808,11.271,11.271,0,0,0-6.633-4.67,12.789,12.789,0,0,0,5.628-4.319,11.224,11.224,0,0,0,2.052-6.761A9.973,9.973,0,0,0,58.38,5.749m11.793,34.73a4.456,4.456,0,0,0-1.253,3.272,4.6,4.6,0,0,0,1.253,3.316,4.283,4.283,0,0,0,3.242,1.309,4.113,4.113,0,0,0,3.24-1.309,4.8,4.8,0,0,0,1.166-3.316,4.646,4.646,0,0,0-1.166-3.272,4.189,4.189,0,0,0-3.24-1.266,4.364,4.364,0,0,0-3.242,1.266M93.456,1.386A17.8,17.8,0,0,0,88.745,7.8a31.762,31.762,0,0,0-2.356,8.246,55.372,55.372,0,0,0-.654,8.07,50.553,50.553,0,0,0,.7,7.94,30.808,30.808,0,0,0,2.488,8.2,18.671,18.671,0,0,0,4.8,6.415,11.344,11.344,0,0,0,7.637,2.574,11.182,11.182,0,0,0,7.678-2.618,18.364,18.364,0,0,0,4.668-6.5,31.183,31.183,0,0,0,2.312-8.332,59.578,59.578,0,0,0,.611-8.029,50.418,50.418,0,0,0-.7-7.853,30.3,30.3,0,0,0-2.488-8.159,19.092,19.092,0,0,0-4.755-6.369,11.054,11.054,0,0,0-7.5-2.574,11.479,11.479,0,0,0-7.723,2.574m.743,21.6V19.057q0-2.269.173-4.757a46.339,46.339,0,0,1,.611-4.93,21.47,21.47,0,0,1,1.222-4.362,9.091,9.091,0,0,1,2.05-3.142,4.3,4.3,0,0,1,3.1-1.22q1.655,0,2.878,2.05a20.99,20.99,0,0,1,2.1,5.455,52.8,52.8,0,0,1,1.309,7.721,87.376,87.376,0,0,1,.436,8.77,79.246,79.246,0,0,1-.436,8.376,50.376,50.376,0,0,1-1.266,7.286,17.047,17.047,0,0,1-2.139,5.149,3.7,3.7,0,0,1-3.053,1.963,4.072,4.072,0,0,1-3.1-1.352,9.606,9.606,0,0,1-2.009-3.535,27.519,27.519,0,0,1-1.133-4.843q-.393-2.659-.568-5.233t-.173-4.8V22.984ZM134.886.387A14.344,14.344,0,0,0,130,3.582a15.112,15.112,0,0,0-3.229,4.856,15.662,15.662,0,0,0-1.177,6.126,17.407,17.407,0,0,0,.96,5.862,13.6,13.6,0,0,0,2.748,4.683,12.308,12.308,0,0,0,4.362,3.062,14.684,14.684,0,0,0,5.8,1.094,11.73,11.73,0,0,0,3.97-.611,6.568,6.568,0,0,0,3.01-2.356V29.09q0,2.708-.173,5.89a26.35,26.35,0,0,1-.96,5.89,11.391,11.391,0,0,1-2.444,4.538,6.027,6.027,0,0,1-4.711,1.833,7.416,7.416,0,0,1-2.923-.611,4.191,4.191,0,0,1-2.137-1.92c.115-.176.245-.392.392-.654a2.856,2.856,0,0,1,.479-.654,4.97,4.97,0,0,0,.787-1.047,3.572,3.572,0,0,0,.349-1.747,3.133,3.133,0,0,0-1.352-2.7,4.84,4.84,0,0,0-2.837-.96,4.4,4.4,0,0,0-3.186,1.136,4.157,4.157,0,0,0-1.177,3.14,5.275,5.275,0,0,0,1.177,3.448A10.266,10.266,0,0,0,130.7,47.11a14.846,14.846,0,0,0,3.753,1.484,15.1,15.1,0,0,0,3.532.479,13.48,13.48,0,0,0,8.77-2.8,19.984,19.984,0,0,0,5.455-6.993,32.093,32.093,0,0,0,2.748-9.091A61.032,61.032,0,0,0,155.7,21.1a57.32,57.32,0,0,0-.522-7.648,22.25,22.25,0,0,0-2.1-7.036,13.6,13.6,0,0,0-4.449-5.158,13.016,13.016,0,0,0-7.591-2.011,16.363,16.363,0,0,0-6.152,1.14m2.269,25.825a7.5,7.5,0,0,1-1.745-3.056,14.13,14.13,0,0,1-.611-3.927q-.046-2.093-.043-3.838V13.21q0-1.833.043-3.927a14.155,14.155,0,0,1,.611-3.927A7.488,7.488,0,0,1,137.155,2.3,4.566,4.566,0,0,1,140.6,1.081a4.632,4.632,0,0,1,3.491,1.266,7.228,7.228,0,0,1,1.745,3.14,17.61,17.61,0,0,1,.611,4.016q.088,2.139.087,3.881v1.571q0,1.749-.087,3.883a18.2,18.2,0,0,1-.611,4.057,7.533,7.533,0,0,1-1.745,3.229,5.391,5.391,0,0,1-6.937.089" transform="translate(3.564 1.188)" fill="#2b2e34"/></svg>