<svg xmlns="http://www.w3.org/2000/svg" width="149.331" height="51.656" viewBox="0 0 149.331 51.656"><g transform="translate(-49.837)"><g transform="translate(49.837)"><path d="M10.01,26.269a5.643,5.643,0,0,1-3.229-.7q-.962-.7-.96-3.06V-20.764h-7.5A28.527,28.527,0,0,1-3.6-10.684,35.683,35.683,0,0,1-8.577-1.568L-6.83-.083Q-5.348-2.264-3.95-4.8a32.143,32.143,0,0,0,2.267-5.06V21.9q0,2.974-1.177,3.673a7.3,7.3,0,0,1-3.621.7v2.007H9.4l.611-.087ZM29.782-.345a6.4,6.4,0,0,0-2.923,2.269V.615q0-2.535.087-5.91a31.939,31.939,0,0,1,.787-6.4A13.528,13.528,0,0,1,30-16.826a5.316,5.316,0,0,1,4.538-2.106,8.8,8.8,0,0,1,2.793.438,2.661,2.661,0,0,1,1.744,1.92,1.933,1.933,0,0,1-.349.784c-.176.234-.349.466-.524.7a3.519,3.519,0,0,0-.7,1,3.987,3.987,0,0,0-.262,1.614A3.323,3.323,0,0,0,38.42-9.813a4.1,4.1,0,0,0,2.748,1,3.691,3.691,0,0,0,2.967-1.22,4.523,4.523,0,0,0,1.049-3.056,5.578,5.578,0,0,0-1.136-3.489,8.894,8.894,0,0,0-2.791-2.4,13.566,13.566,0,0,0-3.621-1.352,16.489,16.489,0,0,0-3.534-.436A11.066,11.066,0,0,0,26.118-17.8a20.706,20.706,0,0,0-4.843,7.242,37.215,37.215,0,0,0-2.4,9.03A62.394,62.394,0,0,0,18.221,6.9a66.068,66.068,0,0,0,.436,7.5,22.013,22.013,0,0,0,1.92,6.98,13.622,13.622,0,0,0,4.232,5.192,12.2,12.2,0,0,0,7.459,2.05A12.838,12.838,0,0,0,42.347,24.1a14.265,14.265,0,0,0,2.7-4.874,18.513,18.513,0,0,0,.917-5.829,19.415,19.415,0,0,0-.784-5.524,12.919,12.919,0,0,0-2.4-4.612A12.035,12.035,0,0,0,38.813.131a12.181,12.181,0,0,0-5.5-1.175,9.65,9.65,0,0,0-3.535.7m5.8,26.354a2.711,2.711,0,0,0-.741.089,7.138,7.138,0,0,0-.741.26,7.356,7.356,0,0,1-.96.306,4.012,4.012,0,0,1-.96.13,4.146,4.146,0,0,1-3.446-1.478,9.226,9.226,0,0,1-1.7-3.61,21.742,21.742,0,0,1-.609-4.39q-.091-2.262-.089-3.827,0-1.479.089-3.654a17.709,17.709,0,0,1,.654-4.174,8.987,8.987,0,0,1,1.788-3.435,4.225,4.225,0,0,1,3.4-1.437A4.147,4.147,0,0,1,35.5,2.138,9.2,9.2,0,0,1,37.374,5.4a18.287,18.287,0,0,1,.873,4q.215,2.087.217,3.565,0,1.391-.087,3.218a31.679,31.679,0,0,1-.392,3.654,19.46,19.46,0,0,1-.917,3.478A8.043,8.043,0,0,1,35.5,26.009ZM55.7,20.378a4.451,4.451,0,0,0-1.253,3.272A4.6,4.6,0,0,0,55.7,26.966a4.281,4.281,0,0,0,3.24,1.309,4.11,4.11,0,0,0,3.24-1.309,4.8,4.8,0,0,0,1.168-3.316,4.641,4.641,0,0,0-1.168-3.272,4.186,4.186,0,0,0-3.24-1.266,4.362,4.362,0,0,0-3.24,1.266M78.986-18.713A17.774,17.774,0,0,0,74.275-12.3a31.79,31.79,0,0,0-2.358,8.246,55.4,55.4,0,0,0-.654,8.07,50.314,50.314,0,0,0,.7,7.94,30.805,30.805,0,0,0,2.486,8.2,18.676,18.676,0,0,0,4.8,6.415,11.342,11.342,0,0,0,7.635,2.574,11.178,11.178,0,0,0,7.678-2.618,18.369,18.369,0,0,0,4.67-6.5,31.343,31.343,0,0,0,2.312-8.332,59.878,59.878,0,0,0,.609-8.029,50.156,50.156,0,0,0-.7-7.853,30.254,30.254,0,0,0-2.486-8.157,19.085,19.085,0,0,0-4.757-6.371,11.05,11.05,0,0,0-7.5-2.574,11.473,11.473,0,0,0-7.721,2.574m.741,21.6V-1.043q0-2.269.176-4.757a45.78,45.78,0,0,1,.611-4.93,21.611,21.611,0,0,1,1.22-4.362,9.065,9.065,0,0,1,2.052-3.14,4.282,4.282,0,0,1,3.1-1.222q1.658,0,2.88,2.05a21.071,21.071,0,0,1,2.093,5.455,52.85,52.85,0,0,1,1.309,7.721,87.379,87.379,0,0,1,.436,8.77,79.248,79.248,0,0,1-.436,8.376A50.462,50.462,0,0,1,91.9,20.205a17.057,17.057,0,0,1-2.137,5.147,3.7,3.7,0,0,1-3.056,1.963,4.071,4.071,0,0,1-3.1-1.352A9.616,9.616,0,0,1,81.6,22.428a27.348,27.348,0,0,1-1.133-4.841q-.393-2.662-.568-5.236t-.176-4.8V2.884Zm58.017-18.019a11.271,11.271,0,0,0-2.791-3.927,13.386,13.386,0,0,0-4.146-2.531,13.885,13.885,0,0,0-5.06-.915,12.712,12.712,0,0,0-9.338,3.446,12.353,12.353,0,0,0-3.489,9.206,12.968,12.968,0,0,0,1.875,6.85,10.694,10.694,0,0,0,5.541,4.495,13.62,13.62,0,0,0-6.8,4.625,12.153,12.153,0,0,0-2.618,7.765q0,6.722,4.143,10.558a15.221,15.221,0,0,0,10.777,3.84,17.336,17.336,0,0,0,5.847-.96,14.585,14.585,0,0,0,4.755-2.748,12.264,12.264,0,0,0,3.186-4.362,14.511,14.511,0,0,0,1.133-5.89,12.519,12.519,0,0,0-2.661-7.942,14.692,14.692,0,0,0-7.023-4.885,11.951,11.951,0,0,0,5.671-4.538,12.431,12.431,0,0,0,2.007-6.98,12.724,12.724,0,0,0-1-5.106M130.372-8.9q0,1.486-.043,3.142a11.248,11.248,0,0,1-.481,3.053,5.878,5.878,0,0,1-1.352,2.356,3.5,3.5,0,0,1-2.661.96,3.312,3.312,0,0,1-2.748-1.136,6.852,6.852,0,0,1-1.309-2.748,15.917,15.917,0,0,1-.438-3.4q-.046-1.788-.043-3.1v-.784q0-1.395.043-3.1a12.793,12.793,0,0,1,.481-3.229,6.911,6.911,0,0,1,1.309-2.574,3.209,3.209,0,0,1,2.618-1.047,3.664,3.664,0,0,1,2.7.96,5.624,5.624,0,0,1,1.4,2.442,12.453,12.453,0,0,1,.481,3.186q.042,1.7.043,3.1ZM120.03,10.694a14.792,14.792,0,0,1,.568-3.84,7.158,7.158,0,0,1,1.7-3.01,4.571,4.571,0,0,1,3.448-1.222,4.722,4.722,0,0,1,3.489,1.222,6.936,6.936,0,0,1,1.747,2.967,14.337,14.337,0,0,1,.566,3.838q.046,2.1.043,3.753,0,1.746-.043,3.795a14.7,14.7,0,0,1-.566,3.84,7.112,7.112,0,0,1-1.7,3.01,4.558,4.558,0,0,1-3.446,1.222,4.688,4.688,0,0,1-3.534-1.222,7.131,7.131,0,0,1-1.7-3.01,14.792,14.792,0,0,1-.568-3.84q-.046-2.048-.043-3.795,0-1.658.043-3.708" transform="translate(8.577 22.508)" fill="#2b2e34"/></g></g></svg>