<svg xmlns="http://www.w3.org/2000/svg" width="150.196" height="51.656" viewBox="0 0 150.196 51.656"><g transform="translate(-94.819)"><g transform="translate(94.82)"><path d="M10.01,26.269a5.643,5.643,0,0,1-3.229-.7q-.962-.7-.96-3.06V-20.764h-7.5A28.527,28.527,0,0,1-3.6-10.684,35.683,35.683,0,0,1-8.577-1.568L-6.83-.083Q-5.348-2.264-3.95-4.8a32.143,32.143,0,0,0,2.267-5.06V21.9q0,2.974-1.177,3.673a7.3,7.3,0,0,1-3.621.7v2.007H9.4l.611-.087Zm34.056-41.4a11.271,11.271,0,0,0-2.791-3.927,13.386,13.386,0,0,0-4.146-2.531,13.885,13.885,0,0,0-5.06-.915,12.712,12.712,0,0,0-9.338,3.446,12.353,12.353,0,0,0-3.489,9.206,12.968,12.968,0,0,0,1.875,6.85,10.7,10.7,0,0,0,5.541,4.495,13.62,13.62,0,0,0-6.8,4.625,12.153,12.153,0,0,0-2.618,7.765q0,6.722,4.143,10.558a15.221,15.221,0,0,0,10.777,3.84A17.336,17.336,0,0,0,38,27.315a14.562,14.562,0,0,0,4.755-2.748,12.264,12.264,0,0,0,3.186-4.362,14.512,14.512,0,0,0,1.133-5.89,12.519,12.519,0,0,0-2.661-7.942,14.692,14.692,0,0,0-7.023-4.885A11.951,11.951,0,0,0,43.062-3.05a12.431,12.431,0,0,0,2.007-6.98,12.687,12.687,0,0,0-1-5.106M36.693-8.9q0,1.486-.043,3.142A11.248,11.248,0,0,1,36.169-2.7,5.878,5.878,0,0,1,34.817-.345a3.5,3.5,0,0,1-2.661.96A3.312,3.312,0,0,1,29.408-.521,6.852,6.852,0,0,1,28.1-3.269a16.056,16.056,0,0,1-.438-3.4q-.046-1.788-.043-3.1v-.784q0-1.395.043-3.1a12.891,12.891,0,0,1,.481-3.229,6.911,6.911,0,0,1,1.309-2.574A3.209,3.209,0,0,1,32.069-20.5a3.664,3.664,0,0,1,2.7.96,5.623,5.623,0,0,1,1.4,2.442,12.454,12.454,0,0,1,.481,3.186q.042,1.7.043,3.1ZM26.352,10.694a14.793,14.793,0,0,1,.568-3.84,7.158,7.158,0,0,1,1.7-3.01,4.571,4.571,0,0,1,3.448-1.222,4.722,4.722,0,0,1,3.489,1.222A6.936,6.936,0,0,1,37.3,6.81a14.336,14.336,0,0,1,.566,3.838q.046,2.1.046,3.753,0,1.746-.046,3.795a14.7,14.7,0,0,1-.566,3.84,7.112,7.112,0,0,1-1.7,3.01,4.558,4.558,0,0,1-3.446,1.222,4.688,4.688,0,0,1-3.535-1.222,7.131,7.131,0,0,1-1.7-3.01,14.793,14.793,0,0,1-.568-3.84q-.046-2.048-.043-3.795,0-1.658.043-3.708m30.216,9.685a4.452,4.452,0,0,0-1.255,3.272,4.6,4.6,0,0,0,1.255,3.316,4.278,4.278,0,0,0,3.24,1.309,4.113,4.113,0,0,0,3.24-1.309,4.8,4.8,0,0,0,1.166-3.316,4.65,4.65,0,0,0-1.166-3.272,4.189,4.189,0,0,0-3.24-1.266,4.359,4.359,0,0,0-3.24,1.266M79.851-18.713A17.8,17.8,0,0,0,75.137-12.3a31.789,31.789,0,0,0-2.356,8.246,55.4,55.4,0,0,0-.654,8.07,50.552,50.552,0,0,0,.7,7.94,30.809,30.809,0,0,0,2.488,8.2,18.671,18.671,0,0,0,4.8,6.415,11.352,11.352,0,0,0,7.637,2.574,11.182,11.182,0,0,0,7.678-2.618,18.365,18.365,0,0,0,4.668-6.5,31.183,31.183,0,0,0,2.312-8.332,59.555,59.555,0,0,0,.611-8.029,50.156,50.156,0,0,0-.7-7.853,30.258,30.258,0,0,0-2.488-8.157,19.08,19.08,0,0,0-4.755-6.371,11.05,11.05,0,0,0-7.5-2.574,11.473,11.473,0,0,0-7.721,2.574m.741,21.6V-1.043q0-2.269.173-4.757a46.906,46.906,0,0,1,.611-4.93A21.471,21.471,0,0,1,82.6-15.092a9.092,9.092,0,0,1,2.05-3.14,4.291,4.291,0,0,1,3.1-1.222q1.655,0,2.878,2.05a20.989,20.989,0,0,1,2.1,5.455A52.843,52.843,0,0,1,94.03-4.229a87.374,87.374,0,0,1,.436,8.77,79.244,79.244,0,0,1-.436,8.376,50.46,50.46,0,0,1-1.266,7.288,17.056,17.056,0,0,1-2.139,5.147,3.7,3.7,0,0,1-3.053,1.963,4.068,4.068,0,0,1-3.1-1.352,9.555,9.555,0,0,1-2.007-3.535,27.344,27.344,0,0,1-1.136-4.841q-.393-2.662-.568-5.236t-.173-4.8V2.884Zm58.017-18.019a11.276,11.276,0,0,0-2.793-3.927,13.351,13.351,0,0,0-4.143-2.531,13.889,13.889,0,0,0-5.062-.915,12.707,12.707,0,0,0-9.336,3.446,12.355,12.355,0,0,0-3.491,9.206,12.95,12.95,0,0,0,1.877,6.85A10.7,10.7,0,0,0,121.2,1.488a13.617,13.617,0,0,0-6.807,4.625,12.165,12.165,0,0,0-2.618,7.765q0,6.722,4.146,10.558a15.214,15.214,0,0,0,10.777,3.84,17.314,17.314,0,0,0,5.845-.96,14.573,14.573,0,0,0,4.757-2.748,12.317,12.317,0,0,0,3.186-4.362,14.512,14.512,0,0,0,1.133-5.89,12.532,12.532,0,0,0-2.661-7.942,14.692,14.692,0,0,0-7.023-4.885,11.951,11.951,0,0,0,5.671-4.538,12.431,12.431,0,0,0,2.007-6.98,12.724,12.724,0,0,0-1-5.106M131.234-8.9q0,1.486-.043,3.142a11.249,11.249,0,0,1-.479,3.053A5.9,5.9,0,0,1,129.36-.345a3.5,3.5,0,0,1-2.661.96,3.32,3.32,0,0,1-2.75-1.136,6.881,6.881,0,0,1-1.309-2.748,15.919,15.919,0,0,1-.436-3.4q-.045-1.788-.043-3.1v-.784q0-1.395.043-3.1a12.892,12.892,0,0,1,.479-3.229,6.943,6.943,0,0,1,1.309-2.574A3.212,3.212,0,0,1,126.61-20.5a3.666,3.666,0,0,1,2.707.96,5.645,5.645,0,0,1,1.4,2.442,12.454,12.454,0,0,1,.479,3.186q.042,1.7.043,3.1Zm-10.339,19.59a14.7,14.7,0,0,1,.568-3.84,7.134,7.134,0,0,1,1.7-3.01,4.566,4.566,0,0,1,3.446-1.222A4.724,4.724,0,0,1,130.1,3.844a6.932,6.932,0,0,1,1.744,2.967,14.422,14.422,0,0,1,.568,3.838q.042,2.1.043,3.753,0,1.746-.043,3.795a14.794,14.794,0,0,1-.568,3.84,7.132,7.132,0,0,1-1.7,3.01,4.561,4.561,0,0,1-3.446,1.222,4.685,4.685,0,0,1-3.534-1.222,7.108,7.108,0,0,1-1.7-3.01,14.7,14.7,0,0,1-.568-3.84q-.046-2.048-.043-3.795,0-1.658.043-3.708" transform="translate(8.577 22.508)" fill="#2b2e34"/></g></g></svg>