<svg xmlns="http://www.w3.org/2000/svg" width="157.778" height="51.659" viewBox="0 0 157.778 51.659"><path d="M15.508,21.335H13.415a7.1,7.1,0,0,1-.83,3.446,3.2,3.2,0,0,1-3.1,1.528h-13.7a79.683,79.683,0,0,0,5.933-5.628,58.337,58.337,0,0,0,5.628-6.85,38,38,0,0,0,4.189-7.678,21.191,21.191,0,0,0,1.614-7.94A16.133,16.133,0,0,0,9.531-12.651Q5.91-16.883-.983-16.883a14.608,14.608,0,0,0-4.1.611,13.642,13.642,0,0,0-3.838,1.788,10.139,10.139,0,0,0-2.88,2.923,7.2,7.2,0,0,0-1.136,4.013A5.357,5.357,0,0,0-11.8-4.056a4.022,4.022,0,0,0,3.316,1.4A3.941,3.941,0,0,0-5.346-3.97,4.766,4.766,0,0,0-4.212-7.2,4.771,4.771,0,0,0-4.6-9.249a9.482,9.482,0,0,0-.83-1.439,7.994,7.994,0,0,1-.611-.873,1.84,1.84,0,0,1-.26-.96,1.45,1.45,0,0,1,.522-1.09A4.432,4.432,0,0,1-4.561-14.4a7.935,7.935,0,0,1,1.528-.479,6.8,6.8,0,0,1,1.352-.176,4.485,4.485,0,0,1,3.708,1.7,11.877,11.877,0,0,1,2.05,4.059,22.719,22.719,0,0,1,.873,4.93q.172,2.574.173,4.319A31.924,31.924,0,0,1,3.771,9.12,38.32,38.32,0,0,1,.02,17.714,38.339,38.339,0,0,1-5.7,25.132a37.932,37.932,0,0,1-7.154,5.715l-.438.7.7.96H15.595a13.328,13.328,0,0,1-.13-1.528c-.03-.667-.043-1.409-.043-2.223v-2.4q0-1.177.087-2.137,0-1.134.087-2.269ZM47.646-10.122a10.967,10.967,0,0,0-2.837-3.446,11.351,11.351,0,0,0-4.1-2.05,17.808,17.808,0,0,0-4.8-.654,17.144,17.144,0,0,0-3.708.436,12.7,12.7,0,0,0-3.621,1.4A8.9,8.9,0,0,0,25.83-12a5.859,5.859,0,0,0-1.09,3.576A3.863,3.863,0,0,0,25.873-5.5,4.1,4.1,0,0,0,28.84-4.405a4.4,4.4,0,0,0,2.793-.96,3.239,3.239,0,0,0,1.222-2.7,3.147,3.147,0,0,0-.349-1.571,8.585,8.585,0,0,0-.7-1.047l-.873-1.4a2.547,2.547,0,0,1,1.877-1.788,11.022,11.022,0,0,1,2.921-.392,3.136,3.136,0,0,1,2.488,1.047,7.071,7.071,0,0,1,1.4,2.574,12.814,12.814,0,0,1,.568,3.14q.084,1.616.087,2.75,0,2.7-.13,4.581a6.245,6.245,0,0,1-.873,3.01,4.052,4.052,0,0,1-2.312,1.614,16.46,16.46,0,0,1-4.538.479V7.113a7.009,7.009,0,0,0,.743-.043,7.17,7.17,0,0,1,.828-.046,23.584,23.584,0,0,1,2.444-.043,4.868,4.868,0,0,1,2.18.568,3.86,3.86,0,0,1,1.7,2.139,17.792,17.792,0,0,1,1,3.532,34.964,34.964,0,0,1,.481,3.753q.13,1.83.13,2.878a32.87,32.87,0,0,1-.217,3.535,15.486,15.486,0,0,1-.873,3.71,8.194,8.194,0,0,1-1.877,2.967,4.479,4.479,0,0,1-3.316,1.22,9.1,9.1,0,0,1-1.352-.13,10.14,10.14,0,0,1-1.614-.392,4.6,4.6,0,0,1-1.352-.7,1.365,1.365,0,0,1-.568-1.136,2.16,2.16,0,0,1,.787-1.4,4.891,4.891,0,0,0,.784-1.047,3.572,3.572,0,0,0,.349-1.747,3.367,3.367,0,0,0-1.222-2.748,4.283,4.283,0,0,0-2.791-1,4.032,4.032,0,0,0-3.053,1.179,4.268,4.268,0,0,0-1.136,3.1A5.754,5.754,0,0,0,25.613,28.8a9.446,9.446,0,0,0,2.835,2.529,13.417,13.417,0,0,0,3.665,1.484,15.4,15.4,0,0,0,3.621.479,14.1,14.1,0,0,0,5.847-1.177,13.871,13.871,0,0,0,4.495-3.186,13.722,13.722,0,0,0,2.88-4.8,17.433,17.433,0,0,0,1-5.933,13.879,13.879,0,0,0-2.269-7.808,11.266,11.266,0,0,0-6.631-4.67A12.8,12.8,0,0,0,46.686,1.4a11.237,11.237,0,0,0,2.05-6.761,10,10,0,0,0-1.09-4.757m11.793,34.73a4.449,4.449,0,0,0-1.255,3.272A4.6,4.6,0,0,0,59.439,31.2a4.281,4.281,0,0,0,3.24,1.309,4.113,4.113,0,0,0,3.24-1.309,4.8,4.8,0,0,0,1.168-3.316,4.638,4.638,0,0,0-1.168-3.272,4.189,4.189,0,0,0-3.24-1.266,4.362,4.362,0,0,0-3.24,1.266M82.722-14.484A17.8,17.8,0,0,0,78.009-8.07,31.848,31.848,0,0,0,75.653.176,55.372,55.372,0,0,0,75,8.246a50.552,50.552,0,0,0,.7,7.94,30.808,30.808,0,0,0,2.488,8.2,18.649,18.649,0,0,0,4.8,6.415,11.342,11.342,0,0,0,7.635,2.574A11.182,11.182,0,0,0,98.3,30.76a18.365,18.365,0,0,0,4.668-6.5,31.183,31.183,0,0,0,2.312-8.332,59.557,59.557,0,0,0,.611-8.029,50.156,50.156,0,0,0-.7-7.853A30.371,30.371,0,0,0,102.7-8.115a19.127,19.127,0,0,0-4.757-6.369,11.05,11.05,0,0,0-7.5-2.574,11.474,11.474,0,0,0-7.721,2.574m.741,21.6V3.186q0-2.269.176-4.757a46.333,46.333,0,0,1,.609-4.93,21.609,21.609,0,0,1,1.222-4.362,9.122,9.122,0,0,1,2.05-3.142,4.3,4.3,0,0,1,3.1-1.22q1.655,0,2.88,2.05a21.072,21.072,0,0,1,2.093,5.455A52.847,52.847,0,0,1,96.9,0a87.377,87.377,0,0,1,.436,8.77,79.246,79.246,0,0,1-.436,8.376,50.375,50.375,0,0,1-1.266,7.286A17.048,17.048,0,0,1,93.5,29.581a3.7,3.7,0,0,1-3.056,1.963,4.079,4.079,0,0,1-3.1-1.352,9.555,9.555,0,0,1-2.007-3.535A27.322,27.322,0,0,1,84.2,21.814q-.393-2.659-.566-5.233t-.176-4.8V7.113ZM141.48-10.906a11.276,11.276,0,0,0-2.793-3.927,13.351,13.351,0,0,0-4.143-2.531,13.845,13.845,0,0,0-5.062-.917,12.708,12.708,0,0,0-9.336,3.448,12.354,12.354,0,0,0-3.491,9.206,12.975,12.975,0,0,0,1.877,6.85,10.69,10.69,0,0,0,5.541,4.492,13.653,13.653,0,0,0-6.807,4.627,12.165,12.165,0,0,0-2.618,7.765q0,6.722,4.146,10.558A15.217,15.217,0,0,0,129.57,32.5a17.336,17.336,0,0,0,5.847-.96,14.585,14.585,0,0,0,4.755-2.748,12.279,12.279,0,0,0,3.186-4.364,14.493,14.493,0,0,0,1.133-5.888,12.519,12.519,0,0,0-2.661-7.942,14.7,14.7,0,0,0-7.023-4.887,11.934,11.934,0,0,0,5.671-4.536A12.438,12.438,0,0,0,142.484-5.8a12.713,12.713,0,0,0-1-5.1m-7.372,6.239q0,1.486-.046,3.14a11.169,11.169,0,0,1-.479,3.056,5.918,5.918,0,0,1-1.352,2.356,3.5,3.5,0,0,1-2.661.96,3.32,3.32,0,0,1-2.75-1.136A6.91,6.91,0,0,1,125.511.96a16.056,16.056,0,0,1-.436-3.4q-.046-1.788-.043-3.1v-.784q0-1.395.043-3.1a12.792,12.792,0,0,1,.481-3.227,6.912,6.912,0,0,1,1.309-2.574,3.207,3.207,0,0,1,2.616-1.047,3.658,3.658,0,0,1,2.707.96,5.645,5.645,0,0,1,1.4,2.442,12.36,12.36,0,0,1,.479,3.186q.045,1.7.046,3.1ZM123.767,14.921a14.7,14.7,0,0,1,.568-3.838,7.158,7.158,0,0,1,1.7-3.01,4.566,4.566,0,0,1,3.446-1.222,4.724,4.724,0,0,1,3.491,1.222,6.933,6.933,0,0,1,1.744,2.967,14.421,14.421,0,0,1,.568,3.838q.042,2.1.043,3.753,0,1.746-.043,3.795a14.793,14.793,0,0,1-.568,3.84,7.108,7.108,0,0,1-1.7,3.01A4.569,4.569,0,0,1,129.57,30.5a4.693,4.693,0,0,1-3.535-1.222,7.132,7.132,0,0,1-1.7-3.01,14.7,14.7,0,0,1-.568-3.84q-.046-2.048-.043-3.795,0-1.658.043-3.71" transform="translate(13.288 18.281)" fill="#2b2e34"/></svg>