<svg xmlns="http://www.w3.org/2000/svg" width="160.431" height="51.745" viewBox="0 0 160.431 51.745"><path d="M15.508,21.335H13.415a7.1,7.1,0,0,1-.83,3.446,3.2,3.2,0,0,1-3.1,1.528h-13.7a79.683,79.683,0,0,0,5.933-5.628,58.337,58.337,0,0,0,5.628-6.85,38,38,0,0,0,4.189-7.678,21.191,21.191,0,0,0,1.614-7.94A16.133,16.133,0,0,0,9.531-12.651Q5.91-16.883-.983-16.883a14.608,14.608,0,0,0-4.1.611,13.642,13.642,0,0,0-3.838,1.788,10.139,10.139,0,0,0-2.88,2.923,7.2,7.2,0,0,0-1.136,4.013A5.357,5.357,0,0,0-11.8-4.056a4.022,4.022,0,0,0,3.316,1.4A3.941,3.941,0,0,0-5.346-3.97,4.766,4.766,0,0,0-4.212-7.2,4.771,4.771,0,0,0-4.6-9.249a9.482,9.482,0,0,0-.83-1.439,7.994,7.994,0,0,1-.611-.873,1.84,1.84,0,0,1-.26-.96,1.447,1.447,0,0,1,.522-1.09A4.432,4.432,0,0,1-4.561-14.4a7.935,7.935,0,0,1,1.528-.479,6.8,6.8,0,0,1,1.352-.176,4.485,4.485,0,0,1,3.708,1.7,11.877,11.877,0,0,1,2.05,4.059,22.719,22.719,0,0,1,.873,4.93q.172,2.574.173,4.319A31.924,31.924,0,0,1,3.771,9.12,38.32,38.32,0,0,1,.02,17.714,38.339,38.339,0,0,1-5.7,25.132a37.932,37.932,0,0,1-7.154,5.715l-.438.7.7.96H15.595a13.328,13.328,0,0,1-.13-1.528c-.03-.667-.043-1.409-.043-2.223v-2.4q0-1.177.087-2.137,0-1.134.087-2.269ZM51.1,11.562a13.536,13.536,0,0,0-3.229-4.492,14.987,14.987,0,0,0-4.755-2.923A15.819,15.819,0,0,0,37.357,3.1q-1.482,0-2.921.13A13.6,13.6,0,0,0,31.6,3.8V-9.03A12.926,12.926,0,0,0,35.376-7.2a14.61,14.61,0,0,0,4.213.611,18.669,18.669,0,0,0,3.43-.349,12.451,12.451,0,0,0,3.474-1.179,8.977,8.977,0,0,0,2.737-2.137,4.774,4.774,0,0,0,1.129-3.229,3.406,3.406,0,0,0-1.339-2.967,5.286,5.286,0,0,0-3.155-.96,5.645,5.645,0,0,0-2.982.873,3.028,3.028,0,0,0-1.424,2.791,2.348,2.348,0,0,0,.436,1.4q.436.611.873,1.22l.7.873a2.262,2.262,0,0,1-1.833,1.09,14.815,14.815,0,0,1-2.18.219,11.273,11.273,0,0,1-4.059-.787,7.43,7.43,0,0,1-3.359-2.529,6.456,6.456,0,0,0,1.309-1.092,2.271,2.271,0,0,0,.611-1.612,2.056,2.056,0,0,0-.917-1.833,3.341,3.341,0,0,0-1.875-.611,2.753,2.753,0,0,0-2.1.83,2.987,2.987,0,0,0-.784,2.137l.262,1.484a5.522,5.522,0,0,1,.26,1.744V4.582a5.673,5.673,0,0,0-1.4.784,1.661,1.661,0,0,0-.7,1.4,2.132,2.132,0,0,0,1,1.831,3.43,3.43,0,0,0,1.963.7,1.91,1.91,0,0,0,1.92-.915,3.7,3.7,0,0,0,.262-2.139l.611-.173q.871-.263,1.744-.438a9.428,9.428,0,0,1,1.831-.173,6.637,6.637,0,0,1,4.495,1.4,7.786,7.786,0,0,1,2.312,3.591,18.7,18.7,0,0,1,.83,4.729q.13,2.539.13,4.726a21.908,21.908,0,0,1-.349,3.81A12.76,12.76,0,0,1,42.287,27.3a8.073,8.073,0,0,1-2.223,2.713,5.486,5.486,0,0,1-3.491,1.094,8.525,8.525,0,0,1-2.88-.44,5.045,5.045,0,0,1-2.269-1.849,3.43,3.43,0,0,1,.96-1.5,6.453,6.453,0,0,0,.787-.969,3.322,3.322,0,0,0,.349-1.757A3.662,3.662,0,0,0,32.21,21.65a4.61,4.61,0,0,0-3.056-1.1,5.231,5.231,0,0,0-3.4,1.133,3.92,3.92,0,0,0-1.4,3.229A6.1,6.1,0,0,0,25.622,28.8a10.166,10.166,0,0,0,3.183,2.661,15.51,15.51,0,0,0,4.059,1.526,18.142,18.142,0,0,0,3.97.481,16.328,16.328,0,0,0,6.326-1.179,14.26,14.26,0,0,0,4.887-3.316,14.573,14.573,0,0,0,3.14-5.06,18.449,18.449,0,0,0,1.092-6.5A14.078,14.078,0,0,0,51.1,11.562M62.092,24.608a4.447,4.447,0,0,0-1.253,3.272A4.6,4.6,0,0,0,62.092,31.2a4.281,4.281,0,0,0,3.24,1.309,4.11,4.11,0,0,0,3.24-1.309,4.8,4.8,0,0,0,1.168-3.316,4.638,4.638,0,0,0-1.168-3.272,4.186,4.186,0,0,0-3.24-1.266,4.362,4.362,0,0,0-3.24,1.266M85.375-14.484A17.774,17.774,0,0,0,80.663-8.07,31.679,31.679,0,0,0,78.308.176a55.074,55.074,0,0,0-.654,8.07,50.554,50.554,0,0,0,.7,7.94,30.805,30.805,0,0,0,2.486,8.2,18.676,18.676,0,0,0,4.8,6.415,11.342,11.342,0,0,0,7.635,2.574,11.174,11.174,0,0,0,7.678-2.618,18.369,18.369,0,0,0,4.67-6.5,31.263,31.263,0,0,0,2.312-8.332,59.938,59.938,0,0,0,.611-8.029,50.182,50.182,0,0,0-.7-7.853,30.294,30.294,0,0,0-2.486-8.159,19.1,19.1,0,0,0-4.757-6.369,11.049,11.049,0,0,0-7.5-2.574,11.475,11.475,0,0,0-7.723,2.574m.741,21.6V3.186q0-2.269.176-4.757A45.784,45.784,0,0,1,86.9-6.5a21.61,21.61,0,0,1,1.22-4.362,9.1,9.1,0,0,1,2.052-3.142,4.289,4.289,0,0,1,3.1-1.22q1.658,0,2.88,2.05a20.994,20.994,0,0,1,2.093,5.455A52.506,52.506,0,0,1,99.554,0a87.373,87.373,0,0,1,.438,8.77,79.241,79.241,0,0,1-.438,8.376,50.078,50.078,0,0,1-1.266,7.286,17.048,17.048,0,0,1-2.137,5.149A3.7,3.7,0,0,1,93.1,31.544,4.08,4.08,0,0,1,90,30.192a9.634,9.634,0,0,1-2.007-3.535,27.328,27.328,0,0,1-1.133-4.843q-.393-2.659-.568-5.233t-.176-4.8V7.113Zm58.017-18.019a11.271,11.271,0,0,0-2.791-3.927,13.387,13.387,0,0,0-4.146-2.531,13.841,13.841,0,0,0-5.06-.917,12.713,12.713,0,0,0-9.338,3.448,12.353,12.353,0,0,0-3.489,9.206,12.974,12.974,0,0,0,1.875,6.85,10.69,10.69,0,0,0,5.541,4.492,13.638,13.638,0,0,0-6.8,4.627,12.153,12.153,0,0,0-2.618,7.765q0,6.722,4.143,10.558a15.221,15.221,0,0,0,10.777,3.84,17.336,17.336,0,0,0,5.847-.96,14.562,14.562,0,0,0,4.755-2.748,12.273,12.273,0,0,0,3.186-4.364,14.461,14.461,0,0,0,1.133-5.89,12.518,12.518,0,0,0-2.661-7.94,14.7,14.7,0,0,0-7.024-4.887,11.934,11.934,0,0,0,5.671-4.536A12.438,12.438,0,0,0,145.136-5.8a12.677,12.677,0,0,0-1-5.1M136.76-4.667q0,1.486-.043,3.14a11.251,11.251,0,0,1-.481,3.056,5.893,5.893,0,0,1-1.352,2.356,3.5,3.5,0,0,1-2.661.96,3.315,3.315,0,0,1-2.748-1.136A6.852,6.852,0,0,1,128.166.96a16.056,16.056,0,0,1-.438-3.4q-.042-1.788-.043-3.1v-.784q0-1.395.043-3.1a12.888,12.888,0,0,1,.481-3.227,6.911,6.911,0,0,1,1.309-2.574,3.209,3.209,0,0,1,2.618-1.047,3.656,3.656,0,0,1,2.7.96,5.624,5.624,0,0,1,1.4,2.442,12.454,12.454,0,0,1,.481,3.186q.042,1.7.043,3.1ZM126.419,14.921a14.79,14.79,0,0,1,.568-3.838,7.158,7.158,0,0,1,1.7-3.01,4.571,4.571,0,0,1,3.448-1.222,4.722,4.722,0,0,1,3.489,1.222,6.936,6.936,0,0,1,1.747,2.967,14.337,14.337,0,0,1,.566,3.838q.045,2.1.045,3.753,0,1.746-.045,3.795a14.7,14.7,0,0,1-.566,3.84,7.132,7.132,0,0,1-1.7,3.01,4.574,4.574,0,0,1-3.448,1.222,4.7,4.7,0,0,1-3.534-1.222,7.131,7.131,0,0,1-1.7-3.01,14.792,14.792,0,0,1-.568-3.84q-.042-2.048-.043-3.795,0-1.658.043-3.71" transform="translate(13.288 18.281)" fill="#2b2e34"/></svg>