<svg xmlns="http://www.w3.org/2000/svg" width="150.239" height="51.659" viewBox="0 0 150.239 51.659"><path d="M15.508,21.335H13.415a7.1,7.1,0,0,1-.83,3.446,3.2,3.2,0,0,1-3.1,1.528h-13.7a79.683,79.683,0,0,0,5.933-5.628,58.337,58.337,0,0,0,5.628-6.85,38,38,0,0,0,4.189-7.678,21.191,21.191,0,0,0,1.614-7.94A16.133,16.133,0,0,0,9.531-12.651Q5.91-16.883-.983-16.883a14.608,14.608,0,0,0-4.1.611,13.642,13.642,0,0,0-3.838,1.788,10.139,10.139,0,0,0-2.88,2.923,7.2,7.2,0,0,0-1.136,4.013A5.357,5.357,0,0,0-11.8-4.056a4.022,4.022,0,0,0,3.316,1.4A3.941,3.941,0,0,0-5.346-3.97,4.766,4.766,0,0,0-4.212-7.2,4.771,4.771,0,0,0-4.6-9.249a9.482,9.482,0,0,0-.83-1.439,7.994,7.994,0,0,1-.611-.873,1.84,1.84,0,0,1-.26-.96,1.45,1.45,0,0,1,.522-1.09A4.432,4.432,0,0,1-4.561-14.4a7.935,7.935,0,0,1,1.528-.479,6.8,6.8,0,0,1,1.352-.176,4.485,4.485,0,0,1,3.708,1.7,11.877,11.877,0,0,1,2.05,4.059,22.719,22.719,0,0,1,.873,4.93q.172,2.574.173,4.319A31.924,31.924,0,0,1,3.771,9.12,38.32,38.32,0,0,1,.02,17.714,38.339,38.339,0,0,1-5.7,25.132a37.932,37.932,0,0,1-7.154,5.715l-.438.7.7.96H15.595a13.328,13.328,0,0,1-.13-1.528c-.03-.667-.043-1.409-.043-2.223v-2.4q0-1.177.087-2.137,0-1.134.087-2.269Zm35.2-36.387a1.429,1.429,0,0,0-1.047-.349q-1.486,0-3.053.132t-3.056.306q-1.486.176-3.053.3t-3.142.132q-1.746,0-3.532-.132t-3.71-.3q-1.918-.176-3.795-.306T22.785-15.4L22.7-4.843h1.744V-8.681a39.377,39.377,0,0,0,8.2.871A31.2,31.2,0,0,0,46.083-10.6Q42.5-5.367,39.409-.305t-5.717,10.3q-2.617,5.237-4.755,10.777A102.526,102.526,0,0,0,25.23,32.5h8.289a.674.674,0,0,1,.087-.262.691.691,0,0,0,.087-.262,35.667,35.667,0,0,0,.524-3.576q.172-1.833.349-3.578.172-2.009.349-3.883a26.147,26.147,0,0,1,.611-3.708,49.452,49.452,0,0,1,1.963-6.85Q38.665,7.2,40.107,4.233t3.14-5.847q1.7-2.88,3.448-5.758.959-1.482,1.877-3.1t1.875-3.183a2.91,2.91,0,0,0,.262-1.309ZM51.9,24.608a4.449,4.449,0,0,0-1.255,3.272A4.6,4.6,0,0,0,51.9,31.2,4.281,4.281,0,0,0,55.14,32.5a4.113,4.113,0,0,0,3.24-1.309,4.794,4.794,0,0,0,1.166-3.316,4.636,4.636,0,0,0-1.166-3.272,4.189,4.189,0,0,0-3.24-1.266,4.362,4.362,0,0,0-3.24,1.266M75.183-14.484A17.8,17.8,0,0,0,70.47-8.07,31.765,31.765,0,0,0,68.114.176a55.375,55.375,0,0,0-.654,8.07,50.554,50.554,0,0,0,.7,7.94,30.809,30.809,0,0,0,2.488,8.2,18.671,18.671,0,0,0,4.8,6.415,11.352,11.352,0,0,0,7.637,2.574,11.182,11.182,0,0,0,7.678-2.618,18.364,18.364,0,0,0,4.668-6.5,31.183,31.183,0,0,0,2.312-8.332A59.553,59.553,0,0,0,98.349,7.9a50.16,50.16,0,0,0-.7-7.853,30.3,30.3,0,0,0-2.488-8.159,19.093,19.093,0,0,0-4.755-6.369,11.05,11.05,0,0,0-7.5-2.574,11.473,11.473,0,0,0-7.721,2.574m.741,21.6V3.186q0-2.269.173-4.757a46.9,46.9,0,0,1,.611-4.93,21.468,21.468,0,0,1,1.222-4.362,9.122,9.122,0,0,1,2.05-3.142,4.3,4.3,0,0,1,3.1-1.22q1.655,0,2.878,2.05a20.988,20.988,0,0,1,2.1,5.455A52.8,52.8,0,0,1,89.362,0a87.377,87.377,0,0,1,.436,8.77,79.246,79.246,0,0,1-.436,8.376A50.375,50.375,0,0,1,88.1,24.432a16.992,16.992,0,0,1-2.139,5.149A3.7,3.7,0,0,1,82.9,31.544a4.075,4.075,0,0,1-3.1-1.352A9.573,9.573,0,0,1,77.8,26.658a27.323,27.323,0,0,1-1.136-4.843q-.393-2.659-.568-5.233t-.173-4.8V7.113Zm58.017-18.019a11.276,11.276,0,0,0-2.793-3.927A13.351,13.351,0,0,0,127-17.364a13.844,13.844,0,0,0-5.062-.917,12.708,12.708,0,0,0-9.336,3.448,12.355,12.355,0,0,0-3.491,9.206,12.956,12.956,0,0,0,1.877,6.85,10.682,10.682,0,0,0,5.541,4.492,13.644,13.644,0,0,0-6.807,4.627,12.165,12.165,0,0,0-2.618,7.765q0,6.722,4.146,10.558a15.217,15.217,0,0,0,10.777,3.84,17.314,17.314,0,0,0,5.845-.96,14.573,14.573,0,0,0,4.757-2.748,12.325,12.325,0,0,0,3.186-4.364,14.5,14.5,0,0,0,1.133-5.89,12.53,12.53,0,0,0-2.661-7.94,14.7,14.7,0,0,0-7.024-4.887,11.934,11.934,0,0,0,5.671-4.536A12.438,12.438,0,0,0,134.944-5.8a12.713,12.713,0,0,0-1-5.1m-7.375,6.239q0,1.486-.043,3.14a11.252,11.252,0,0,1-.479,3.056,5.919,5.919,0,0,1-1.352,2.356,3.5,3.5,0,0,1-2.661.96,3.32,3.32,0,0,1-2.75-1.136A6.881,6.881,0,0,1,117.972.96a15.918,15.918,0,0,1-.436-3.4q-.046-1.788-.043-3.1v-.784q0-1.395.043-3.1a12.889,12.889,0,0,1,.479-3.227,6.944,6.944,0,0,1,1.309-2.574,3.212,3.212,0,0,1,2.618-1.047,3.658,3.658,0,0,1,2.707.96,5.645,5.645,0,0,1,1.4,2.442,12.455,12.455,0,0,1,.479,3.186q.042,1.7.043,3.1ZM116.227,14.921a14.7,14.7,0,0,1,.568-3.838,7.135,7.135,0,0,1,1.7-3.01,4.566,4.566,0,0,1,3.446-1.222,4.724,4.724,0,0,1,3.491,1.222,6.932,6.932,0,0,1,1.744,2.967,14.422,14.422,0,0,1,.568,3.838q.042,2.1.043,3.753,0,1.746-.043,3.795a14.794,14.794,0,0,1-.568,3.84,7.108,7.108,0,0,1-1.7,3.01,4.569,4.569,0,0,1-3.446,1.222,4.693,4.693,0,0,1-3.534-1.222,7.108,7.108,0,0,1-1.7-3.01,14.7,14.7,0,0,1-.568-3.84q-.046-2.048-.043-3.795,0-1.658.043-3.71" transform="translate(13.288 18.281)" fill="#2b2e34"/></svg>