<svg xmlns="http://www.w3.org/2000/svg" width="159.512" height="51.657" viewBox="0 0 159.512 51.657"><path d="M12.476,4.394A10.943,10.943,0,0,0,9.639.948,11.338,11.338,0,0,0,5.539-1.1a17.882,17.882,0,0,0-4.8-.654,17.152,17.152,0,0,0-3.708.438A12.661,12.661,0,0,0-6.59.075,8.909,8.909,0,0,0-9.338,2.517,5.871,5.871,0,0,0-10.43,6.1,3.865,3.865,0,0,0-9.294,9.019a4.092,4.092,0,0,0,2.967,1.09,4.386,4.386,0,0,0,2.791-.96,3.237,3.237,0,0,0,1.222-2.7,3.158,3.158,0,0,0-.349-1.571,8.673,8.673,0,0,0-.7-1.047l-.873-1.4A2.543,2.543,0,0,1-2.358.643,11.04,11.04,0,0,1,.566.248,3.129,3.129,0,0,1,3.051,1.3a7.082,7.082,0,0,1,1.4,2.572,12.828,12.828,0,0,1,.566,3.142Q5.1,8.627,5.1,9.76q0,2.708-.132,4.581a6.254,6.254,0,0,1-.871,3.01,4.037,4.037,0,0,1-2.314,1.614,16.355,16.355,0,0,1-4.536.481v2.18a6.441,6.441,0,0,0,.741-.043,7.737,7.737,0,0,1,.828-.043A23.594,23.594,0,0,1,1.264,21.5a4.878,4.878,0,0,1,2.182.568,3.871,3.871,0,0,1,1.7,2.137,18.11,18.11,0,0,1,1,3.535,34.981,34.981,0,0,1,.479,3.751q.13,1.833.132,2.88A32.4,32.4,0,0,1,6.543,37.9a15.241,15.241,0,0,1-.873,3.708,8.181,8.181,0,0,1-1.875,2.967A4.484,4.484,0,0,1,.479,45.8a9.1,9.1,0,0,1-1.354-.13,10.146,10.146,0,0,1-1.614-.394,4.527,4.527,0,0,1-1.352-.7,1.359,1.359,0,0,1-.566-1.133,2.151,2.151,0,0,1,.784-1.4A4.906,4.906,0,0,0-2.839,41a3.562,3.562,0,0,0,.349-1.744,3.369,3.369,0,0,0-1.22-2.748,4.277,4.277,0,0,0-2.793-1,4.042,4.042,0,0,0-3.053,1.177,4.284,4.284,0,0,0-1.133,3.1A5.759,5.759,0,0,0-9.557,43.31,9.461,9.461,0,0,0-6.72,45.842a13.458,13.458,0,0,0,3.665,1.484A15.4,15.4,0,0,0,.566,47.8a14.078,14.078,0,0,0,5.847-1.179,13.511,13.511,0,0,0,7.372-7.984,17.442,17.442,0,0,0,1-5.933,13.891,13.891,0,0,0-2.269-7.81,11.247,11.247,0,0,0-6.631-4.668,12.8,12.8,0,0,0,5.628-4.319,11.243,11.243,0,0,0,2.05-6.763,9.995,9.995,0,0,0-1.09-4.755M31.856.032a17.8,17.8,0,0,0-4.713,6.412,31.9,31.9,0,0,0-2.356,8.246,55.4,55.4,0,0,0-.654,8.072,50.552,50.552,0,0,0,.7,7.94,30.808,30.808,0,0,0,2.488,8.2,18.649,18.649,0,0,0,4.8,6.415,11.341,11.341,0,0,0,7.635,2.572,11.171,11.171,0,0,0,7.678-2.618,18.356,18.356,0,0,0,4.668-6.5,31.221,31.221,0,0,0,2.312-8.335,59.524,59.524,0,0,0,.611-8.027,50.158,50.158,0,0,0-.7-7.853A30.3,30.3,0,0,0,51.837,6.4,19.07,19.07,0,0,0,47.082.032a11.04,11.04,0,0,0-7.5-2.574A11.462,11.462,0,0,0,31.856.032M32.6,21.627V17.7q0-2.269.176-4.757a46.329,46.329,0,0,1,.609-4.93A21.468,21.468,0,0,1,34.6,3.653,9.1,9.1,0,0,1,36.654.511a4.3,4.3,0,0,1,3.1-1.222q1.655,0,2.878,2.052a20.971,20.971,0,0,1,2.1,5.452,52.878,52.878,0,0,1,1.309,7.723,87.332,87.332,0,0,1,.436,8.768,79.256,79.256,0,0,1-.436,8.378,50.374,50.374,0,0,1-1.266,7.286A17.015,17.015,0,0,1,42.631,44.1a3.7,3.7,0,0,1-3.053,1.963,4.075,4.075,0,0,1-3.1-1.352,9.573,9.573,0,0,1-2.007-3.535,27.414,27.414,0,0,1-1.136-4.843q-.393-2.659-.566-5.236T32.6,26.3v-4.67Zm31.173,17.5A4.445,4.445,0,0,0,62.516,42.4a4.6,4.6,0,0,0,1.255,3.316,4.289,4.289,0,0,0,3.24,1.309,4.12,4.12,0,0,0,3.24-1.309A4.8,4.8,0,0,0,71.418,42.4a4.634,4.634,0,0,0-1.168-3.272,4.189,4.189,0,0,0-3.24-1.266,4.362,4.362,0,0,0-3.24,1.266M87.054.032A17.8,17.8,0,0,0,82.34,6.444a31.9,31.9,0,0,0-2.356,8.246,55.4,55.4,0,0,0-.654,8.072,50.553,50.553,0,0,0,.7,7.94,30.808,30.808,0,0,0,2.488,8.2,18.649,18.649,0,0,0,4.8,6.415,11.341,11.341,0,0,0,7.635,2.572,11.171,11.171,0,0,0,7.678-2.618,18.356,18.356,0,0,0,4.668-6.5,31.221,31.221,0,0,0,2.312-8.335,59.525,59.525,0,0,0,.611-8.027,50.158,50.158,0,0,0-.7-7.853A30.3,30.3,0,0,0,107.034,6.4,19.071,19.071,0,0,0,102.28.032a11.04,11.04,0,0,0-7.5-2.574A11.462,11.462,0,0,0,87.054.032m.741,21.595V17.7q0-2.269.176-4.757a46.333,46.333,0,0,1,.609-4.93A21.469,21.469,0,0,1,89.8,3.653,9.1,9.1,0,0,1,91.852.511a4.3,4.3,0,0,1,3.1-1.222q1.655,0,2.88,2.052a21.052,21.052,0,0,1,2.093,5.452,52.879,52.879,0,0,1,1.309,7.723,87.331,87.331,0,0,1,.436,8.768,79.255,79.255,0,0,1-.436,8.378,50.376,50.376,0,0,1-1.266,7.286A17.072,17.072,0,0,1,97.831,44.1a3.7,3.7,0,0,1-3.056,1.963,4.075,4.075,0,0,1-3.1-1.352,9.573,9.573,0,0,1-2.007-3.535,27.417,27.417,0,0,1-1.136-4.843q-.393-2.659-.566-5.236t-.176-4.8v-4.67ZM145.812,3.61a11.276,11.276,0,0,0-2.793-3.927,13.31,13.31,0,0,0-4.143-2.531,13.844,13.844,0,0,0-5.062-.917,12.708,12.708,0,0,0-9.336,3.448,12.351,12.351,0,0,0-3.491,9.206,12.962,12.962,0,0,0,1.877,6.848,10.684,10.684,0,0,0,5.541,4.495,13.64,13.64,0,0,0-6.807,4.625,12.175,12.175,0,0,0-2.618,7.767q0,6.719,4.146,10.558A15.218,15.218,0,0,0,133.9,47.02a17.368,17.368,0,0,0,5.845-.96,14.539,14.539,0,0,0,4.757-2.75,12.3,12.3,0,0,0,3.186-4.362,14.5,14.5,0,0,0,1.133-5.89,12.53,12.53,0,0,0-2.661-7.94,14.7,14.7,0,0,0-7.023-4.887,11.938,11.938,0,0,0,5.671-4.538,12.426,12.426,0,0,0,2.007-6.98,12.706,12.706,0,0,0-1-5.1m-7.375,6.239c0,.988-.013,2.037-.043,3.14a11.166,11.166,0,0,1-.479,3.053,5.912,5.912,0,0,1-1.352,2.358,3.513,3.513,0,0,1-2.661.96,3.326,3.326,0,0,1-2.75-1.136,6.881,6.881,0,0,1-1.309-2.748,16.079,16.079,0,0,1-.436-3.4q-.046-1.788-.043-3.1V8.191q0-1.4.043-3.1a12.907,12.907,0,0,1,.479-3.229,6.977,6.977,0,0,1,1.309-2.574,3.212,3.212,0,0,1,2.618-1.047,3.666,3.666,0,0,1,2.707.96,5.666,5.666,0,0,1,1.4,2.444,12.343,12.343,0,0,1,.479,3.183q.046,1.7.043,3.1ZM128.1,29.437a14.7,14.7,0,0,1,.568-3.838,7.179,7.179,0,0,1,1.7-3.012,4.573,4.573,0,0,1,3.446-1.22,4.732,4.732,0,0,1,3.491,1.22,6.958,6.958,0,0,1,1.745,2.967,14.452,14.452,0,0,1,.568,3.84c.028,1.4.043,2.648.043,3.751q0,1.749-.043,3.8a14.794,14.794,0,0,1-.568,3.84,7.135,7.135,0,0,1-1.7,3.01,4.569,4.569,0,0,1-3.446,1.222,4.693,4.693,0,0,1-3.535-1.222,7.157,7.157,0,0,1-1.7-3.01,14.7,14.7,0,0,1-.568-3.84q-.046-2.048-.043-3.8,0-1.655.043-3.708" transform="translate(10.69 3.765)" fill="#2b2e34"/></svg>