<svg xmlns="http://www.w3.org/2000/svg" xmlns:xlink="http://www.w3.org/1999/xlink" width="192.7" height="125.334" viewBox="0 0 192.7 125.334"><defs><clipPath id="a"><path d="M0,66.942H192.7V-58.392H0Z" transform="translate(0 58.392)" fill="none"/></clipPath></defs><g transform="translate(0 58.392)"><g transform="translate(0 -58.392)" clip-path="url(#a)"><g transform="translate(7.593)"><path d="M47.06,55.211a8.543,8.543,0,1,1,2.5,6.069,8.57,8.57,0,0,1-2.5-6.069m34.866,0a8.549,8.549,0,1,1,2.505,6.068,8.571,8.571,0,0,1-2.505-6.068M1.1,55.21a8.541,8.541,0,1,1,2.5,6.069A8.57,8.57,0,0,1,1.1,55.21m-34.869,0a8.544,8.544,0,0,1,2.5-6.068,8.544,8.544,0,0,1,6.067-2.5,8.544,8.544,0,0,1,6.069,2.5,8.544,8.544,0,0,1,2.5,6.069,8.544,8.544,0,0,1-2.5,6.068,8.544,8.544,0,0,1-6.068,2.5,8.544,8.544,0,0,1-6.069-2.5,8.544,8.544,0,0,1-2.5-6.069m70.5-15.145H29.274v30h7.455Zm-53.418,30h7.455v-30h-7.455v2.408a15.4,15.4,0,0,0-8.863-2.76,15.482,15.482,0,0,0-10.965,4.535,15.482,15.482,0,0,0-4.535,10.965,15.445,15.445,0,0,0,4.524,10.976,15.445,15.445,0,0,0,10.976,4.524,15.413,15.413,0,0,0,8.863-2.758Zm115.7,0h7.455v-30H99.009v2.408a15.5,15.5,0,1,0,0,25.476Zm10.213-9.745c.236,6.046,5.4,10.333,14.029,10.333,7.045,0,12.855-3.054,12.855-9.8,0-4.694-2.64-7.455-8.747-8.629l-4.754-.938c-3.052-.588-5.164-1.174-5.164-2.994,0-2,2.054-2.876,4.636-2.876,3.758,0,5.282,1.878,5.4,4.108h7.515c-.412-5.868-5.106-9.8-12.679-9.8-7.807,0-12.445,4.286-12.445,9.863,0,6.808,5.518,7.925,10.273,8.8l3.932.7c2.818.528,4.05,1.35,4.05,2.994,0,1.466-1.408,2.934-4.754,2.934-4.872,0-6.456-2.524-6.517-4.7ZM18.179,29.853V42.474a15.5,15.5,0,1,0,.006,25.479v2.112H25.64V29.853Zm45.961,0V42.474a15.5,15.5,0,1,0,0,25.476v2.112H71.6V29.853Zm-85.818-8.865,5.048,8.865H18.179L4.384,6.021ZM36.729,37.307V29.853H64.141l-29.232-50.6L8.787-5.778,29.274,29.853v7.455Zm38.507-7.455H110.1L65.021-48.159,38.959-33.132Z" transform="translate(41.049 48.159)"/></g></g></g></svg>