<svg xmlns="http://www.w3.org/2000/svg" xmlns:xlink="http://www.w3.org/1999/xlink" width="346.667" height="60.576" viewBox="0 0 346.667 60.576"><defs><clipPath id="a"><path d="M0,26.029H346.667V-34.547H0Z" transform="translate(0 34.547)" fill="none"/></clipPath></defs><g clip-path="url(#a)"><g transform="translate(251.81 12.461)"><path d="M2.529,3.591C-.9,3.5-3.532,1.562-3.348-.765-3.327-3.076-.525-4.9,2.724-4.759,6.173-4.747,8.8-2.806,8.8-.4c-.2,2.234-3,4.052-6.27,3.993" transform="translate(3.357 4.766)"/></g><g transform="translate(333.653 11.043)"><path d="M1.716,1.457c.586,0,1.1-.039,1.1-.686,0-.521-.51-.617-.989-.617H.893v1.3ZM.893,3.821H.2V-.387H1.933C3-.387,3.539-.019,3.539.81c0,.752-.51,1.082-1.18,1.157l1.3,1.853H2.883L1.682,2H.893Zm.831.94A3.065,3.065,0,0,0,4.912,1.708,3.068,3.068,0,0,0,1.724-1.326,3.073,3.073,0,0,0-1.483,1.708,3.07,3.07,0,0,0,1.724,4.761m-4-3.053a3.806,3.806,0,0,1,4-3.642A3.8,3.8,0,0,1,5.706,1.708,3.8,3.8,0,0,1,1.724,5.366a3.807,3.807,0,0,1-4-3.658" transform="translate(2.277 1.934)"/></g><g transform="translate(82.317 6.716)"><path d="M4.557,13.392c-3.019,2.625-5.606,3.744-7.836,1.815-1.16-1.116-2.981-1.345-2.742-19.969.033-6.658-.23-4.65.389-10.71.319-2.555,1.338-1.913,3.919-2.18,4.864-.491,4.7.5,4.7,2.723-.077-.016-.005,2.63-.2,5.629-.175,3.7.261,14.98.2,15.067.065-.088-.193,1.273,1.369-.182,1.738-1.773,7.328-7.031,9.6-6.717,3.719.305,5.792,9.742,8.425,9.44,1.1-.044,2.458-.935,4.506-2.36A47.265,47.265,0,0,1,32.379,2.5C34.823.763,41.46-1.46,43.936-1.493c1.511.033,2.488.67,2.355,1.452-.067,1.794-7.3,1.629-7.252,7.987-.089,1.743,2.03,2.667,3.53,1.815C46.9,7.746,45.143,4.839,46.1,3.045a2.974,2.974,0,0,1,3.524-1.271c2.607,1.215,4.806,6.281,6.272,6.535,1.643.268,4.329-3.414,7.052-5.629C65.5.63,67.162-1.143,68.82-1.132c1.741-.011,3.2,1.361,4.114,2.542.838,1.247,3.847,5.134,4.7,5.083.973.105,4.624-5.336,5.681-6.354a4.1,4.1,0,0,1,2.742-1.452c2.127-.049,2.476.842,3.724,1.815,1.578,1.436,4.036,6.028,5.29,5.991.691.1,2.823-3.319,4.112-4.54C100.431.706,102.1-1.33,103.7-1.313c1.7.081,2.7,1.464,4.115,2.9,3.319,2.99,5.825,6.525,7.445,6.533,1.583-.14,5.427-3.866,6.854-6.172,2.129-3.786,1.727-3.475,4.508-3.63,4.892-.177,4.063,1.545,4.115,2.541-.186,2.315-.27,4.433.2,4.72.708.307,2.832-6.5,13.517-6.9,3.151-.054,8.892,2.053,8.62,6.535-.156,3.758-2.557,4.747-1.568,5.083,3.637.808,12.611-5.216,12.737-6.9.191-2.262-.407-4.529,1.369-4.718a25.7,25.7,0,0,1,8.816.181c2.2.254-.512,11.147,1.764,11.438,5.062.342,14.687-9.4,15.87-10.347,2.862-2.285,6.933-2.423,8.425-2.542,1.636-.11,2.926.547,2.742,1.452-.507,1.648-6.307,1.156-6.268,7.806-.039,1.282,1.006,3.458,2.351,3.814,1.277.284,2.744-.4,3.332-2.362,1.422-3.8.012-4.4-.4-5.627-.829-2.213,1.783-1.845,4.51-2,3.766-.17,13.41-2,14.3-2.178a4.146,4.146,0,0,1,2.35,0c1.655.608,2.821,3.493,3.135,4.356.363.857.715,2.18,1.375,2.18.9-.151,1.068-.472,2.153-1.634,1.213-1.266,4.694-4.978,7.249-4.9,3.852.191,6.411,7.189,9.993,9.077,2.155,1.222,6.612-2.032,7.641-2.725.85-.612,3.614-1.238,3.331.908-.242,1.45-3.98,5.346-7.056,7.261-2.672,1.562-5.218,3.167-8.031,3.086-4.471-.217-7.627-7.841-9.6-8.169-1.555-.4-8,10.855-11.559,7.806-4.385-3.489-6.256-12.456-7.25-12.344a24.672,24.672,0,0,0-3.917.363c-.547.2.16,1.338.589,3.814.663,2.93-2.4,11.033-15.479,8.893-8.674-1.443-7.852-7.391-8.425-6.717-3.3,3.356-9.414,6.57-15.281,6.537-10.161.033-7.391-7.264-8.231-6.537-2,1.627-8.857,6.686-16.849,6.537-6.679-.286-10.55-2.208-10.582-4.175.032-.859,2.364.379,4.506-.728,3.174-1.582,3.57-6.069,1.373-6.535-1.447-.268-5.581.042-9.4,7.263a17.588,17.588,0,0,0-1.959,6.353c-1.066,11.455,1.243,16.231-.393,16.882a9.372,9.372,0,0,1-4.9.908c-2.53-.114-2.53-1.154-2.939-6.172-.828-13.572-.189-20.128-.391-20.876-.428-.847-5.706,7.073-13.126,7.08-3.246.049-8.022-7.578-9.014-7.261-1.34.251-5.348,7.385-8.231,7.442-4.185.037-7.1-7.624-8.618-7.624-1.075,0-6.023,7.471-9.014,7.624-4.206.16-6.873-7.5-9.011-7.987-1.5-.433-8.4,7.84-12.735,8.169-3.6.116-5.222-4.629-5.683-4.177A16.913,16.913,0,0,1,36.7,16.474c-4-.084-7.468-1.813-7.838-5.99,0-.53-.382-.174-.978.361-1.129.7-6.653,5.36-10.187,5.446-6.716.089-7-7.492-9.013-7.261-.6.072-3.754,4.15-4.115,4.357" transform="translate(6.049 17.774)"/></g><g transform="translate(0 -0.001)"><path d="M33.36,13.548c-.694-.47-1.724,1.888-18.809,5.444-1.836.417-6.155.589-6.246.647l-.02-29.873,4.9.726C29.1-6.434,29.655-4.751,30.423-5.514,31.65-6.845,25.082-19.356-9.154-17.858c-13.487.693-33.755,8.336-35.072,21.6C-45.1,12.4-35.176,27.3-5.234,27.526,17.16,27.731,27.578,19.806,30.62,17c1.934-1.791,3.38-3,2.74-3.452m-48.391,5.809c-.47.4-.85.245-1.764.181-6.952-.7-20.208-3.752-20.377-15.43,0-2.642,2.462-11.785,20.768-14.522,1.2-.123,1.545.358,1.568,1.634-.023,1.445-.016,26.582,0,26.5-.016.079.114,1.319-.195,1.634" transform="translate(44.278 17.982)"/></g></g></svg>