<svg xmlns="http://www.w3.org/2000/svg" xmlns:xlink="http://www.w3.org/1999/xlink" width="248.234" height="81.773" viewBox="0 0 248.234 81.773"><defs><clipPath id="a"><path d="M0,67.895H248.234V-13.878H0Z" transform="translate(0 13.878)" fill="none"/></clipPath></defs><g transform="translate(0 13.878)"><g transform="translate(0 -13.878)" clip-path="url(#a)"><g transform="translate(79.647 0.002)"><path d="M.2,58.815-.041-1.115A10.744,10.744,0,0,1,3.036-8.806a10.744,10.744,0,0,1,7.635-3.216h1.167a10.9,10.9,0,0,1,7.714,3.193,10.9,10.9,0,0,1,3.192,7.714l.242,59.93A10.9,10.9,0,0,1,12.079,69.721H10.836A10.681,10.681,0,0,1,.2,58.815" transform="translate(0.041 12.022)"/></g><g transform="translate(111.349 0.085)"><path d="M88.183,5.812l24.229,39.443c5.238,8.52,6.446,10.736,6.446,17.011,0,9.9-8.974,17.494-16.923,17.494H69.192c-5.957,0-10.783-4.142-10.783-10.1v-.689A10.784,10.784,0,0,1,69.191,58.188l20.076-.006c1.261,0,2.033-.165,2.375-.955a2.129,2.129,0,0,0-.324-2.333l-14.3-22.927c-.224-.383-.5-.913-.943-.913-.412,0-.772.53-.966.943L53.277,69.466c-3.4,5.945-7.4,10.288-13.358,10.288H-2.063c-7.949,0-15.962-7.848-15.962-15.956V9.6A10.789,10.789,0,0,1-7.236-1.188h1.379A10.784,10.784,0,0,1,4.925,9.593V53.875a2.843,2.843,0,0,0,2.94,2.934H28.718c3.659,0,5.869-1.32,7.784-4.508L64.555,5.812a13.554,13.554,0,0,1,12.008-6.8c4.9,0,8.768,2.215,11.619,6.8" transform="translate(18.025 1.188)"/></g><g transform="translate(0 30.709)"><path d="M21.492,18.478a2.933,2.933,0,0,0-2.934,2.946L18.551,36.5A10.782,10.782,0,0,1,7.763,47.285H6.39A10.78,10.78,0,0,1-4.393,36.5l.006-27.434A12.661,12.661,0,0,1,8.452-3.777H52.273A10.784,10.784,0,0,1,63.055,7v.7a10.78,10.78,0,0,1-10.78,10.778Z" transform="translate(4.393 3.777)"/></g><g transform="translate(0.002 1.554)"><path d="M9.056,0h51.05A10.744,10.744,0,0,1,71.012,10.712V11.4A10.9,10.9,0,0,1,60.106,22.3H9.056A10.9,10.9,0,0,1-1.851,11.4v-.76A10.677,10.677,0,0,1,9.056,0" transform="translate(1.851)"/></g></g></g></svg>