<svg xmlns="http://www.w3.org/2000/svg" width="141.367" height="43.883" viewBox="0 0 141.367 43.883"><g transform="translate(-145 -3279.289)"><g transform="translate(145 3287.922)"><path d="M2.209,3.645V4.671H4.064l.1.2v.049a.529.529,0,0,1,.1.293v7.03A5.644,5.644,0,0,1,4.112,13.6a5.176,5.176,0,0,1-1.171,1.929,2.855,2.855,0,0,1-2.149.805A5.676,5.676,0,0,1-3.65,13.653v.05A14.7,14.7,0,0,1-4.7,10.773,17.726,17.726,0,0,1-5.163,7.7q-.342-2.244-.489-4.467T-5.8-1.238v-1.22c0-.456.017-.862.05-1.221q.1-1.415.292-2.831A26.1,26.1,0,0,1-4.92-9.292a14.863,14.863,0,0,1,2.05-5.225,4.914,4.914,0,0,1,1.636-1.171A4.359,4.359,0,0,1,.5-16.079a4.847,4.847,0,0,1,2.709.854,5.466,5.466,0,0,1,1.978,2.368A11.09,11.09,0,0,1,6.554-7.1h.732v-9.521H6.554v.39a3.265,3.265,0,0,1-.05.537c-.033.2-.13.292-.292.292a2.06,2.06,0,0,1-.977-.341,6.956,6.956,0,0,0-1.123-.489q-.586-.195-1.123-.39a2.931,2.931,0,0,1-.39-.049c-.2-.033-.359-.065-.489-.1a.2.2,0,0,1-.1-.024.349.349,0,0,0-.147-.024.68.68,0,0,0-.292-.048H1.281a1.349,1.349,0,0,1-.586-.1A9.225,9.225,0,0,0-5.041-15.2a11.57,11.57,0,0,0-3.37,4.272A18.769,18.769,0,0,0-10-5.363a43.568,43.568,0,0,0-.39,5.639,34.02,34.02,0,0,0,.292,5.052,20.064,20.064,0,0,0,1.318,5.054,13.655,13.655,0,0,0,2.661,4.2,8.745,8.745,0,0,0,4.272,2.49,10.146,10.146,0,0,0,1.953.293,13.131,13.131,0,0,0,1.952-.05c.261-.065.577-.154.952-.268s.757-.252,1.148-.415A13.266,13.266,0,0,1,5.895,16a2.484,2.484,0,0,1,1.342-.1,1.136,1.136,0,0,1,.416.512,2.587,2.587,0,0,1,.219.708H8.6V5.671a2.235,2.235,0,0,1,.1-.61q.1-.391.342-.39h1.074V3.645Zm20.54-20.456H13.667v.829h.928q1.026.147,1.172.831a7.285,7.285,0,0,1,.145,1.513V14.288a2.5,2.5,0,0,1-.415,1.342,1.483,1.483,0,0,1-.61.464H13.667v.829h9.569a10.1,10.1,0,0,0,4.834-.829,8.451,8.451,0,0,0,3.807-3.174,21.448,21.448,0,0,0,2.1-4.515A19.158,19.158,0,0,0,34.9,3.5q.1-.78.121-1.66T35.05.081a36.2,36.2,0,0,0-.244-4.126,21.878,21.878,0,0,0-.879-4.125,19.176,19.176,0,0,0-1.66-3.784A10.535,10.535,0,0,0,29.632-15a10.349,10.349,0,0,0-6.883-1.807m6.3,28.609L28.7,12.824l-.39.781a5.958,5.958,0,0,1-.415.708,3.307,3.307,0,0,1-.9.757,3.967,3.967,0,0,1-1.221.635A8.411,8.411,0,0,1,24.408,16H20.16V-15.982h2.149a7.393,7.393,0,0,1,4.541,1.172,4.349,4.349,0,0,1,1.489,1.831,15.388,15.388,0,0,1,.805,2.221.339.339,0,0,0,.024.145.335.335,0,0,1,.025.147v.2A58.451,58.451,0,0,1,30.169.277,55.785,55.785,0,0,1,29,11.7Zm30.166,4.3a1.162,1.162,0,0,1-.732-.269,2.7,2.7,0,0,1-.586-.634,3.647,3.647,0,0,1-.39-.757,4.116,4.116,0,0,1-.2-.635l-.39-1.318L49.057-16.763l-2.294-.049-8.056,31a3.19,3.19,0,0,1-.171.611,2.527,2.527,0,0,1-.318.586,1.675,1.675,0,0,1-.463.439.866.866,0,0,1-.611.122,1.388,1.388,0,0,1-.732,0v.976h5.907v-.833a8.319,8.319,0,0,1-1.465-.172,1.333,1.333,0,0,1-.683-.343.746.746,0,0,1-.147-.615,10.435,10.435,0,0,1,.2-1.031l.2-.931,1.366-5.791h2.124q1.246,0,2.539.025t2.515.024h2.1l1.757,6.624a3.837,3.837,0,0,1,.122,1.325.95.95,0,0,1-.292.614.9.9,0,0,1-.464.2c-.164.016-.276.024-.342.024l-.732.048v.834h8.544v-.829ZM42.076,6.037l4.394-16.99,4.3,17.038Zm36.542-22.8v.831H79.3a1.369,1.369,0,0,1,.806.048,1.86,1.86,0,0,1,.707.439A6.325,6.325,0,0,1,81.328-14a3.982,3.982,0,0,1,.074,1.44q.1,4.2.1,8.348V8.136l-11.961-24.9H63.044v.831a2.938,2.938,0,0,1,1.391.146,1.18,1.18,0,0,1,.806,1.074V7.844q0,2.392-.05,4.882a4.857,4.857,0,0,1-.634,2.881,2.364,2.364,0,0,1-.561.415.741.741,0,0,1-.61.074h-.831v.829H69.2v-.829h-.634a1.369,1.369,0,0,1-.806-.05,1.851,1.851,0,0,1-.707-.439,4.338,4.338,0,0,1-.635-2.881q-.1-.975-.1-2.27V-13.1l14.4,30.025h1.855V-10.513a18.743,18.743,0,0,1,.1-2.05,4.507,4.507,0,0,1,.635-2.881,1,1,0,0,1,1.171-.487h.782v-.831Zm23.737.51v.759a.9.9,0,0,1-.171.219c-.081.081-.155.107-.219.074a6.527,6.527,0,0,1-1.318-.537h.049a8.4,8.4,0,0,0-4-1.074,6.607,6.607,0,0,0-2.465.537,6.912,6.912,0,0,0-1.953,1.294,9.033,9.033,0,0,0-1.489,1.831,12.472,12.472,0,0,0-1.074,2.2,10.214,10.214,0,0,0-.586,3.32c0,2.18,1.9,5.907,1.9,5.907s1.993,2.14,3.15,3.1a33.941,33.941,0,0,0,3.588,2.612,5.285,5.285,0,0,0,.439.39,2.509,2.509,0,0,0,.44.293l.586.537q.293.293.586.536a3.175,3.175,0,0,1,.537.587A8.21,8.21,0,0,1,102.4,11.6a4.921,4.921,0,0,1-.342,2.271,4.7,4.7,0,0,1-1.366,1.879,5.827,5.827,0,0,1-3.808,1.318,7.616,7.616,0,0,1-1.489-.049,11.863,11.863,0,0,1-1.44-.293,5.14,5.14,0,0,1-2.026-1.537,9.983,9.983,0,0,1-1.44-2.441,13.321,13.321,0,0,1-.854-3.028,20.253,20.253,0,0,1-.269-3.3h-.732V17.461h.782v-.634a.589.589,0,0,1,.145-.464.428.428,0,0,1,.342-.1,1.211,1.211,0,0,1,.39.121c.13.065.228.115.293.147q.977.44,1.928.805a11.52,11.52,0,0,0,1.978.563q.537.1,1.1.146t1.1.05A12.335,12.335,0,0,0,98.5,17.95a8.478,8.478,0,0,0,3.637-1.614,8.661,8.661,0,0,0,2.514-3.129v.05a7.8,7.8,0,0,0,.953-2.273,9.635,9.635,0,0,0,.219-2.518,7.872,7.872,0,0,0-.44-2.591,9.709,9.709,0,0,0-1-2.273,9.954,9.954,0,0,0-1.489-1.932Q102.306,1.13,101.524.4T100.109-.826L98.546-1.852q-.829-.537-1.513-1.075A12.916,12.916,0,0,1,94.25-5.4a11.348,11.348,0,0,1-1.9-3.154,7.708,7.708,0,0,1-.2-1.858,8,8,0,0,1,.683-3.325A4,4,0,0,1,94.4-15.3a4.031,4.031,0,0,1,1.9-.49,4.731,4.731,0,0,1,1.782.366,5.971,5.971,0,0,1,1.684,1.05,11.848,11.848,0,0,1,2.587,7.47h.684V-8.512q0-.733-.024-1.489t.024-1.539v-4.713Zm27.838,31.37a1.769,1.769,0,0,1-1.123.977,1.234,1.234,0,0,1-.635-.269,1.871,1.871,0,0,1-.634-.952,5.234,5.234,0,0,1-.048-.879v-.928q.1-.878.147-1.831t.048-1.831q0-1.171-.074-2.392t-.268-2.489a6.309,6.309,0,0,0-.9-2.417A6.561,6.561,0,0,0,125.115.422a7.206,7.206,0,0,0-2.05-1.049,12.253,12.253,0,0,0-2.343-.513,3.145,3.145,0,0,0,1.147-1.807,9.658,9.658,0,0,0,.268-2.246,12.9,12.9,0,0,0-.147-2.1l-.439-3.271a7.271,7.271,0,0,1-.147-1.416,6.779,6.779,0,0,1,.293-1.953,2.379,2.379,0,0,1,1.269-1.708,1.662,1.662,0,0,1,1.025-.147.664.664,0,0,1,.537.684q-.195.293-.415.66a4.623,4.623,0,0,0-.366.757,2.019,2.019,0,0,0,.1,1.513,2.689,2.689,0,0,0,1.025,1.221,2.466,2.466,0,0,0,1.513.39,2.645,2.645,0,0,0,1.978-.831,2.664,2.664,0,0,0,.757-2.05,3.242,3.242,0,0,0-1.171-2.539,5.258,5.258,0,0,0-3.173-1.171,4.892,4.892,0,0,0-2.344.634,3.388,3.388,0,0,0-1.831,2.247,10.261,10.261,0,0,0-.219,2.929l.487,4.638.1.781a11.8,11.8,0,0,1,.048,1.831,3.614,3.614,0,0,1-.732,1.831,2.537,2.537,0,0,1-1.074.781,2.868,2.868,0,0,1-1.27.2h-2.246V-14.077c0-.749.154-1.228.464-1.44a2.738,2.738,0,0,1,.854-.415h.928v-.831h-8.592v.831h1.074a1,1,0,0,1,.341.073,1.047,1.047,0,0,1,.366.244,1.613,1.613,0,0,1,.318.537,2.76,2.76,0,0,1,.147,1V13.751a3.607,3.607,0,0,1-.2,1.342,2.176,2.176,0,0,1-.415.684,1.319,1.319,0,0,1-.66.318h-.976v.829h8.592v-.829h-.732a.889.889,0,0,1-.829-.318,2.515,2.515,0,0,1-.439-.831,4.7,4.7,0,0,1-.2-.9c-.033-.293-.048-.456-.048-.489V-.26h3.662a4.36,4.36,0,0,1,2.441,1.1,5,5,0,0,1,1.27,2,9.173,9.173,0,0,1,.464,2.465q.073,1.319.073,2.539v.829q-.1.538-.147,1.1t-.049,1.1a13.1,13.1,0,0,0,.44,3.37,6,6,0,0,0,1.025,1.586,4.284,4.284,0,0,0,1.563,1.1h-.05a3.253,3.253,0,0,0,1.758.489,3.5,3.5,0,0,0,2.149-.732,2.814,2.814,0,0,0,.683-1.026l-.292-.244Z" transform="translate(10.393 17.153)" fill="#2b2e34"/></g><g transform="translate(229.064 3279.289)"><path d="M1.275.008Q.2.008-.433-.04h-2.3L-4.29,3.377Q-5.365,5.867-5.9,7.185a.75.75,0,0,0-.1.293c0,.162.1.244.293.244q.487,0,3.418-3.076L2.154.008Z" transform="translate(6 0.04)" fill="#2b2e34"/></g></g></svg>