<svg xmlns="http://www.w3.org/2000/svg" xmlns:xlink="http://www.w3.org/1999/xlink" width="745.753" height="547.164" viewBox="0 0 745.753 547.164"><defs><clipPath id="a"><rect width="745.753" height="547.164" fill="none"/></clipPath></defs><g clip-path="url(#a)"><path d="M260.141,279.249v1.467q0,6.424,4.509,9.131h3.042q6.2,0,8.343-9.131,0-3.721-4.622-10.484-10.484,0-10.484,3.044Zm0-76.2q-18.26-4.509-25.589-4.509l3.721,4.509v4.509l-4.509,6.874-.79.677h-3.719q-8.794-9.018-13.64-9.018H211.9q-11.612,0-23.447,20.4l-6.763,14.317q-5.3,15.893-5.3,29.419,0,41.371,39.226,51.965l8.341.79h6.763q28.968,0,55.8-33.93,12.06-18.487,12.062-33.14v-7.553q0-27.389-29.421-41.481Zm19.613,52.076q15.893,1.015,15.894,3.721V261.1q-.9,9.806-9.131,9.806l.79,3.044q0,24.008-23.334,30.209h-3.832q-9.581,0-11.272-16.569v-7.553l.677-5.3q-18.6,6.654-39.9,26.376H206.6l-2.254-2.254V297.4q0-13.3,43.735-35.507,18.823-6.763,31.675-6.763m-59.629-70.9h12.85q50.837,0,70.9,33.14a66.256,66.256,0,0,1,6.763,28.744q0,43.062-45.2,77.665-22.317,14.314-42.269,14.317-41.147,0-55.8-41.483a57.5,57.5,0,0,1-2.254-15.892v-8.23q0-38.434,31.673-72.366-4.509,0-4.509-2.368v-.677q0-12.06,15.781-12.06Z" transform="translate(187.388 209.074)"/><path d="M214.942,216.49c2.058,8.984-1.473,17.459-7.891,18.928s-13.288-4.62-15.348-13.6,1.475-17.459,7.893-18.93,13.287,4.62,15.346,13.6" transform="translate(216.896 230.004)"/><path d="M224.365,213.546c.683,8.008-3.4,14.9-9.122,15.384s-10.911-5.61-11.592-13.618,3.4-14.9,9.122-15.384,10.909,5.61,11.592,13.618" transform="translate(231.035 226.863)"/><path d="M729.25,180.305v3.608a4.283,4.283,0,0,1-.813,1.044c-.386.386-.734.5-1.044.348a30.987,30.987,0,0,1-6.262-2.553h.231q-7.887-4.659-19.02-5.1a31.421,31.421,0,0,0-11.714,2.551,32.816,32.816,0,0,0-9.278,6.148,42.833,42.833,0,0,0-7.075,8.7,59.357,59.357,0,0,0-5.1,10.437,48.532,48.532,0,0,0-2.782,15.775,46.788,46.788,0,0,0,9.046,28.067A122.061,122.061,0,0,0,690.4,264.054a161,161,0,0,0,17.049,12.41,24.055,24.055,0,0,0,2.088,1.857,11.963,11.963,0,0,0,2.088,1.39l2.784,2.553q1.39,1.39,2.784,2.551a15.068,15.068,0,0,1,2.551,2.784,39.011,39.011,0,0,1,9.742,25.051,23.423,23.423,0,0,1-1.623,10.788,22.42,22.42,0,0,1-6.5,8.93,27.693,27.693,0,0,1-18.093,6.262,35.7,35.7,0,0,1-7.073-.231,56.9,56.9,0,0,1-6.845-1.392,24.364,24.364,0,0,1-9.626-7.308,47.286,47.286,0,0,1-6.842-11.6,63.367,63.367,0,0,1-4.061-14.383,96.322,96.322,0,0,1-1.274-15.657h-3.48v52.424h3.711v-3.017a2.788,2.788,0,0,1,.7-2.2,2.05,2.05,0,0,1,1.625-.463,5.828,5.828,0,0,1,1.855.579q.926.468,1.392.7,4.637,2.088,9.163,3.828a54.6,54.6,0,0,0,9.393,2.666q2.552.464,5.22.7t5.22.233a58.254,58.254,0,0,0,8.582-.7,40.262,40.262,0,0,0,17.282-7.666,41.16,41.16,0,0,0,11.945-14.867v.233a37.018,37.018,0,0,0,4.524-10.8,45.659,45.659,0,0,0,1.044-11.964,37.459,37.459,0,0,0-2.088-12.312,46.114,46.114,0,0,0-4.754-10.8,47.442,47.442,0,0,0-7.075-9.178q-2.783-2.555-6.5-6.037t-6.727-5.811l-7.421-4.878q-3.948-2.555-7.193-5.111a61.383,61.383,0,0,1-13.221-11.727A54.109,54.109,0,0,1,681.7,216.9a36.689,36.689,0,0,1-.929-8.828,37.956,37.956,0,0,1,3.247-15.8,18.779,18.779,0,0,1,16.471-9.756,22.394,22.394,0,0,1,8.465,1.74,28.245,28.245,0,0,1,8,4.987,56.28,56.28,0,0,1,12.295,35.49H732.5v-7.656q0-3.478-.117-7.075t.117-7.306v-22.4Zm-113.2,81.083a13.433,13.433,0,0,1,7.771,2.666,18.028,18.028,0,0,1,4.987,6.031,26.274,26.274,0,0,1,2.551,7.888,50.031,50.031,0,0,1,.7,8h3.48v-51.5h-3.48a58.5,58.5,0,0,1-1.044,7.771,28.046,28.046,0,0,1-2.551,7.423,15.784,15.784,0,0,1-4.754,5.568,12.634,12.634,0,0,1-7.656,2.2H604.921v-75.62a140.8,140.8,0,0,1,19.948,1.274,35.255,35.255,0,0,1,14.961,5.452,25.5,25.5,0,0,1,9.278,11.945q3.132,7.775,2.9,20.762h3.48V177.649H574.3v4.176h4.174a5.967,5.967,0,0,1,4.409,1.622,7.5,7.5,0,0,1,1.392,1.857,5.819,5.819,0,0,1,.463,2.551v137.32a22.292,22.292,0,0,1-.348,4.293,5.267,5.267,0,0,1-2.2,3.13,6.179,6.179,0,0,1-3.017,1.277c-.927.079-1.934.115-3.014.115H574.3v3.943h41.056v-3.943h-3.71q-4.643-.227-5.568-2.9a26.718,26.718,0,0,1-1.159-4.058V261.388Zm-90.205,0a13.426,13.426,0,0,1,7.769,2.666,18.03,18.03,0,0,1,4.987,6.031,26.336,26.336,0,0,1,2.553,7.888,50.265,50.265,0,0,1,.7,8h3.478v-51.5h-3.478a58.5,58.5,0,0,1-1.044,7.771,28.051,28.051,0,0,1-2.553,7.423,15.761,15.761,0,0,1-4.754,5.568,12.627,12.627,0,0,1-7.654,2.2H514.714v-75.62a140.776,140.776,0,0,1,19.948,1.274,35.256,35.256,0,0,1,14.961,5.452A25.5,25.5,0,0,1,558.9,200.5q3.129,7.775,2.9,20.762h3.48V177.649H484.1v4.176h4.176a5.965,5.965,0,0,1,4.406,1.622,7.447,7.447,0,0,1,1.392,1.857,5.82,5.82,0,0,1,.463,2.551v137.32a22.3,22.3,0,0,1-.348,4.293,5.259,5.259,0,0,1-2.2,3.13,6.172,6.172,0,0,1-3.014,1.277c-.929.079-1.936.115-3.017.115H484.1v3.943h41.058v-3.943h-3.713q-4.643-.227-5.568-2.9a26.732,26.732,0,0,1-1.159-4.058V261.388ZM338.633,179.737v3.943l7.656.7a17.239,17.239,0,0,1,2.436.7,6.027,6.027,0,0,1,2.2,1.392,3.067,3.067,0,0,0,.463,1.044c.31.542.54.967.7,1.275a14.456,14.456,0,0,1-.463,3.48q-.468,1.861-.929,3.247a1.151,1.151,0,0,1-.231.581,1.126,1.126,0,0,0-.233.581q-1.393,3.945-3.014,7.654t-3.48,7.656q-3.948,7.192-7.308,14.381t-6.842,14.613q-4.643-10.9-9.859-21.919t-9.859-21.921l-1.159-3.017q-1.857-3.939-1.044-6.031a5.532,5.532,0,0,1,2.551-3.014,9.158,9.158,0,0,1,3.828-1.044q2.088-.115,2.784-.115l1.392-.233v-3.943H271.828v3.943a15.838,15.838,0,0,1,9.4,3.828,26.109,26.109,0,0,1,6.146,8l8.352,19.022q1.854,3.945,3.6,8t3.6,8l9.511,21.573v70.748a17.125,17.125,0,0,1-.929,6.379,10.215,10.215,0,0,1-1.973,3.247,6.233,6.233,0,0,1-3.13,1.507h-4.639v3.943h40.593v-3.943h-3.48a3.953,3.953,0,0,1-3.71-1.507,12.012,12.012,0,0,1-2.088-3.943,22.164,22.164,0,0,1-.929-4.291q-.234-2.088-.233-2.321V250.718q6.264-13.222,12.643-25.979t12.873-25.516q1.159-2.549,2.669-5.22t2.667-5.22q1.393-2.783,5.452-3.6a35.243,35.243,0,0,1,6.61-.811v-4.639ZM207.3,286.208l20.877-80.724,20.412,80.955Zm81.418,47.783a5.511,5.511,0,0,1-3.48-1.275,12.92,12.92,0,0,1-2.784-3.017,17.525,17.525,0,0,1-1.855-3.6,20.114,20.114,0,0,1-.927-3.014l-1.857-6.264L240.469,177.882l-10.9-.233-38.274,147.3a15.338,15.338,0,0,1-.811,2.9,12.112,12.112,0,0,1-1.509,2.784,8.08,8.08,0,0,1-2.2,2.088,4.13,4.13,0,0,1-2.9.579,6.584,6.584,0,0,1-3.48,0v4.639h28.067v-3.96a38.957,38.957,0,0,1-6.958-.815,6.352,6.352,0,0,1-3.249-1.631,3.549,3.549,0,0,1-.7-2.918q.231-1.864.929-4.9l.929-4.43,6.494-27.51H216q5.915,0,12.062.117t11.947.115h9.974l8.352,31.475a18.188,18.188,0,0,1,.579,6.3,4.487,4.487,0,0,1-1.392,2.914,4.239,4.239,0,0,1-2.2.931c-.775.079-1.315.115-1.625.115l-3.478.233v3.965h40.593v-3.943ZM174.781,294.327q.227,13.219-2.9,20.992a25.5,25.5,0,0,1-9.278,11.945,35.225,35.225,0,0,1-14.961,5.453,140.189,140.189,0,0,1-19.95,1.275V189.711q0-5.332,1.857-6.612a5.882,5.882,0,0,1,3.014-1.274h5.568v-3.943H96.843v3.943h5.566a4.347,4.347,0,0,1,3.017,1.044,5.682,5.682,0,0,1,1.623,2.436,6.213,6.213,0,0,1,.465,2.318v139.64q-.468,3.948-1.973,5.22a6.147,6.147,0,0,1-2.9,1.507h-5.8v3.943h81.418V294.327ZM64.254,252.573v-.233A22.777,22.777,0,0,1,60.08,257.1a20.87,20.87,0,0,1-4.872,3.132,60.52,60.52,0,0,1-17.86,2.782c-1.085,0-2.244-.036-3.48-.115s-2.4-.192-3.48-.348V181.825H47.322A20.768,20.768,0,0,1,62.631,191.1a48.873,48.873,0,0,1,3.943,8.582,73.506,73.506,0,0,1,2.551,9.048,122.256,122.256,0,0,1,.7,13.452q0,4.643-.348,9.163t-.811,9.163a45,45,0,0,1-4.409,12.062m22.269-56.831a39.365,39.365,0,0,0-11.829-11.829,38.421,38.421,0,0,0-12.062-5.1,43.155,43.155,0,0,0-13.221-1.159H0v3.943H5.1a4.709,4.709,0,0,1,1.623.348A6.21,6.21,0,0,1,8.584,183.1a6.658,6.658,0,0,1,1.623,2.553,13.155,13.155,0,0,1,.7,4.754V322.625a18.108,18.108,0,0,1-.929,6.5A10.124,10.124,0,0,1,8,332.484a6.241,6.241,0,0,1-3.132,1.507H0v3.943H41.058v-3.943h-3.48a4.753,4.753,0,0,1-3.943-1.74,12.032,12.032,0,0,1-2.088-3.943,22.447,22.447,0,0,1-.927-4.176c-.156-1.311-.233-2.047-.233-2.2V266.956a32.588,32.588,0,0,0,4.058.231h8.236a33.716,33.716,0,0,0,4.174-.231,37.415,37.415,0,0,0,8.352,0,68.452,68.452,0,0,0,8.119-1.392,37.569,37.569,0,0,0,13.221-6.379,40.74,40.74,0,0,0,9.393-10.207A44.751,44.751,0,0,0,91.625,236.1a54.727,54.727,0,0,0,1.857-14.15,53.84,53.84,0,0,0-1.161-10.44,38.224,38.224,0,0,0-5.8-15.772" transform="translate(0 201.495)"/><path d="M533.346,93.018l-.145,1.324q-.295,2.94,6.761,14.257A269.013,269.013,0,0,1,560.833,174L545.4,172.536q-8.967-.884-11.025,9.112l-.147,1.324q0,1.031,2.5,2.35l24.839,1.618h.734q2.206,19.7,1.766,24.545,2.5,29.692,9.112,45.417,6.76,14.846,9.406,15.141,3.82.291,11.759-9.7,37.922-28.808,84.074-24.547,12.05,1.178,13.08-9.554l-1.763-2.205-5.438-.44a126.4,126.4,0,0,0-28.368.587q-47.18,7.5-67.757,30.132-11.906-11.906-14.406-69.522,30.72.147,48.8-1.471,21.606.151,22.634-10.141-.147-3.378-1.763-3.527-40.42,2.94-71.139,2.792l-2.5-17.786A282.016,282.016,0,0,0,550.69,101.4l15.141,4.85q61.731,24.11,79.369,25.723,7.058-2.792,7.645-9.406v-.589l-1.176-2.205a246.971,246.971,0,0,1-28.368-6.761Q561.127,88.17,541.431,86.4l-2.058-.147q-5.732,2.5-6.027,6.761m-35.721,97.558v4.872h8.815l.463.927v.233a2.5,2.5,0,0,1,.465,1.392v33.4a26.988,26.988,0,0,1-.7,6.494,24.6,24.6,0,0,1-5.568,9.163q-3.715,3.827-10.207,3.828-13.456-1.159-21.108-12.758v.233a69.4,69.4,0,0,1-4.987-13.919,84.215,84.215,0,0,1-2.2-14.613q-1.627-10.667-2.321-21.225t-.7-21.223v-5.8q0-3.244.233-5.8.461-6.725,1.392-13.454a123.424,123.424,0,0,1,2.551-13.221,70.568,70.568,0,0,1,9.741-24.82,23.365,23.365,0,0,1,7.771-5.568,20.735,20.735,0,0,1,8.234-1.855,23.039,23.039,0,0,1,12.875,4.061,25.948,25.948,0,0,1,9.393,11.249,52.68,52.68,0,0,1,6.494,27.371h3.48V94.312h-3.48v1.855a15.906,15.906,0,0,1-.231,2.551q-.234,1.393-1.392,1.392a9.8,9.8,0,0,1-4.639-1.623,32.835,32.835,0,0,0-5.335-2.321q-2.786-.922-5.335-1.855a14.042,14.042,0,0,1-1.857-.233c-.927-.152-1.7-.307-2.319-.463a.992.992,0,0,1-.463-.115,1.629,1.629,0,0,0-.7-.117,3.3,3.3,0,0,0-1.392-.231h-1.392a6.409,6.409,0,0,1-2.784-.465q-16.934.234-27.256,8.352a55.011,55.011,0,0,0-16.005,20.3,89.282,89.282,0,0,0-7.538,26.445,207.655,207.655,0,0,0-1.855,26.791,162.216,162.216,0,0,0,1.392,24.009,95.139,95.139,0,0,0,6.262,24.007,64.854,64.854,0,0,0,12.643,19.948,41.564,41.564,0,0,0,20.3,11.832,48.318,48.318,0,0,0,9.278,1.392,62.678,62.678,0,0,0,9.278-.233q1.854-.468,4.524-1.277t5.45-1.97a63.412,63.412,0,0,1,8.234-3.017q4.057-1.156,6.379-.463a5.39,5.39,0,0,1,1.973,2.436,12.069,12.069,0,0,1,1.044,3.362h3.48V200.2a10.621,10.621,0,0,1,.463-2.9q.461-1.854,1.625-1.855h5.1v-4.872ZM362.278,201.942l20.877-80.722,20.412,80.955ZM443.7,249.727a5.518,5.518,0,0,1-3.48-1.277,12.785,12.785,0,0,1-2.782-3.017,17.431,17.431,0,0,1-1.857-3.6,20.107,20.107,0,0,1-.926-3.014l-1.857-6.264L395.448,93.616l-10.9-.233-38.274,147.3a15.14,15.14,0,0,1-.811,2.9,12.115,12.115,0,0,1-1.509,2.784,8.082,8.082,0,0,1-2.2,2.088,4.119,4.119,0,0,1-2.9.581,6.584,6.584,0,0,1-3.48,0v4.639h28.067v-3.962a38.76,38.76,0,0,1-6.958-.816,6.336,6.336,0,0,1-3.249-1.631,3.548,3.548,0,0,1-.7-2.918q.231-1.864.929-4.9l.929-4.43,6.494-27.508h10.089q5.918,0,12.062.115t11.947.115h9.974l8.352,31.475a18.188,18.188,0,0,1,.579,6.3,4.487,4.487,0,0,1-1.392,2.914,4.2,4.2,0,0,1-2.2.931c-.775.081-1.315.117-1.622.117l-3.48.231v3.967h40.593v-3.943ZM292.739,159.84a25.215,25.215,0,0,1-7.075,5.452,28.7,28.7,0,0,1-7.192,2.551,29.3,29.3,0,0,1-5.1.7H262.235V152.65q0-9.392.115-19.368t.115-19.37V97.792h7.888a28.512,28.512,0,0,1,13.685,2.088,39.584,39.584,0,0,1,5.916,5.1,34.561,34.561,0,0,1,4.987,6.612,35.02,35.02,0,0,1,3.247,7.423,21.345,21.345,0,0,1,.929,7.538,27.957,27.957,0,0,1,.231,3.362v3.132a108.366,108.366,0,0,1-1.392,17.4,24.437,24.437,0,0,1-5.218,9.393m-20.529,8.7V169h1.623v-.463H272.21Zm-.929-70.981V97.1a1.018,1.018,0,0,0-.463.115,1.017,1.017,0,0,1-.463.115v.465Zm60.31,149.615a10.964,10.964,0,0,1-3.015,3.48,6.177,6.177,0,0,1-3.713,1.392,4.035,4.035,0,0,1-3.014-2.2,14.313,14.313,0,0,1-1.625-3.828q-.234-2.549-.233-4.872V227.921q0-5.8-.115-11.829a95.346,95.346,0,0,0-1.277-13.221,52.553,52.553,0,0,0-2.086-10.9,44.636,44.636,0,0,0-4.409-9.974,25.627,25.627,0,0,0-17.4-10.67q13.917-4.4,21.11-15.775a49.874,49.874,0,0,0,5.566-23.428q0-2.315-.231-4.754c-.156-1.625-.389-3.283-.7-4.987a33.917,33.917,0,0,0-20.877-25.516,73.786,73.786,0,0,0-23.428-3.943q-2.322,0-4.872.115a32.933,32.933,0,0,0-4.87.581H240.9a42.212,42.212,0,0,0-8.815,0v3.943h5.1a6.883,6.883,0,0,1,1.625.233,4.147,4.147,0,0,1,1.855,1.159,7.918,7.918,0,0,1,1.625,2.669,13.155,13.155,0,0,1,.7,4.754V238.591a17.118,17.118,0,0,1-.929,6.379,10.215,10.215,0,0,1-1.973,3.247,6.26,6.26,0,0,1-3.13,1.509H232.08v3.943h41.056v-3.943h-3.478a4.216,4.216,0,0,1-3.943-1.509,12.012,12.012,0,0,1-2.088-3.943,22.128,22.128,0,0,1-.929-4.291c-.156-1.392-.233-2.163-.233-2.318V173.179h6.727q4.64,0,6.727-.233a20.2,20.2,0,0,1,13.454,2.553h-.231q5.332,4.64,6.842,9.741a66.179,66.179,0,0,1,2.2,11.133q.461,3.948.811,8t.348,8v3.713a30.452,30.452,0,0,1-.231,3.71c-.156,1.24-.273,2.436-.348,3.6s-.117,2.361-.117,3.6a56.639,56.639,0,0,0,5.1,23.891q2.549,4.4,5.566,5.914a22.118,22.118,0,0,0,7.656,1.973,19.512,19.512,0,0,0,5.1-.233,21.539,21.539,0,0,0,5.335-1.622,18.543,18.543,0,0,0,4.639-3.017,13.048,13.048,0,0,0,3.247-4.406,2.951,2.951,0,0,0-1.159-.7,2.841,2.841,0,0,1-1.159-.7ZM145.165,201.942l20.877-80.722,20.414,80.955Zm81.42,47.785a5.514,5.514,0,0,1-3.48-1.277,12.793,12.793,0,0,1-2.784-3.017,17.421,17.421,0,0,1-1.855-3.6,19.911,19.911,0,0,1-.929-3.014l-1.855-6.264L178.337,93.616l-10.9-.233-38.274,147.3a15.139,15.139,0,0,1-.811,2.9,12.189,12.189,0,0,1-1.507,2.784,8.112,8.112,0,0,1-2.2,2.088,4.125,4.125,0,0,1-2.9.581,6.576,6.576,0,0,1-3.478,0v4.639h28.067v-3.962a38.788,38.788,0,0,1-6.96-.816,6.328,6.328,0,0,1-3.247-1.631,3.549,3.549,0,0,1-.7-2.918q.227-1.864.929-4.9l.927-4.43,6.494-27.508h10.092q5.915,0,12.062.115t11.945.115h9.976l8.35,31.475a18.2,18.2,0,0,1,.581,6.3,4.5,4.5,0,0,1-1.392,2.914,4.211,4.211,0,0,1-2.2.931c-.777.081-1.317.117-1.625.117l-3.48.231v3.967h40.593v-3.943ZM82.073,190.576v4.872h8.815l.463.927v.233A2.508,2.508,0,0,1,91.814,198v33.4a26.881,26.881,0,0,1-.7,6.494,24.572,24.572,0,0,1-5.566,9.163q-3.715,3.827-10.207,3.828-13.456-1.159-21.108-12.758v.233a69.269,69.269,0,0,1-4.987-13.919,84.214,84.214,0,0,1-2.205-14.613q-1.624-10.667-2.318-21.225t-.7-21.223v-5.8q0-3.244.233-5.8.461-6.725,1.39-13.454a124,124,0,0,1,2.553-13.221,70.568,70.568,0,0,1,9.741-24.82,23.364,23.364,0,0,1,7.771-5.568,20.727,20.727,0,0,1,8.234-1.855,23.027,23.027,0,0,1,12.873,4.061,25.939,25.939,0,0,1,9.4,11.249,52.7,52.7,0,0,1,6.494,27.371h3.48V94.312h-3.48v1.855a15.692,15.692,0,0,1-.233,2.551q-.234,1.393-1.39,1.392a9.813,9.813,0,0,1-4.641-1.623,32.671,32.671,0,0,0-5.335-2.321q-2.783-.922-5.335-1.855a14.024,14.024,0,0,1-1.855-.233c-.927-.152-1.7-.307-2.318-.463a1.007,1.007,0,0,1-.465-.115,1.622,1.622,0,0,0-.7-.117,3.29,3.29,0,0,0-1.39-.231H77.666a6.4,6.4,0,0,1-2.784-.465q-16.937.234-27.256,8.352a55.011,55.011,0,0,0-16.005,20.3,89.283,89.283,0,0,0-7.538,26.445,207.678,207.678,0,0,0-1.857,26.791,162.509,162.509,0,0,0,1.392,24.009,95.144,95.144,0,0,0,6.264,24.007,64.854,64.854,0,0,0,12.643,19.948,41.564,41.564,0,0,0,20.3,11.832,48.318,48.318,0,0,0,9.278,1.392,62.678,62.678,0,0,0,9.278-.233q1.854-.468,4.524-1.277t5.45-1.97a63.413,63.413,0,0,1,8.234-3.017q4.057-1.156,6.379-.463a5.39,5.39,0,0,1,1.973,2.436,12.072,12.072,0,0,1,1.044,3.362h3.48V200.2a10.621,10.621,0,0,1,.463-2.9q.461-1.854,1.623-1.855h5.1v-4.872Z" transform="translate(25.19 97.892)"/><path d="M523.8,114.748v3.014a69.749,69.749,0,0,1-2.2,15.657,39.852,39.852,0,0,1-6.148,13.339,31.753,31.753,0,0,1-10.785,9.393,34.622,34.622,0,0,1-15.89,3.828H472.308v-72.6h11.133a13.433,13.433,0,0,1,7.771,2.666,18.056,18.056,0,0,1,4.987,6.031,26.281,26.281,0,0,1,2.551,7.886,50.068,50.068,0,0,1,.7,8h3.48V60.236h-3.71a39.689,39.689,0,0,1-.813,7.771,29.9,29.9,0,0,1-2.551,7.538,15.049,15.049,0,0,1-4.872,5.683,12.741,12.741,0,0,1-7.538,2.205H472.308V7.581a140.454,140.454,0,0,1,19.948,1.277,35.252,35.252,0,0,1,14.961,5.45A25.519,25.519,0,0,1,516.5,26.255q3.132,7.772,2.9,20.992h3.48V3.638H441.689V7.581h4.87l3.48,1.392a13.585,13.585,0,0,1,1.855,3.828,8.162,8.162,0,0,1,.233,4.291v130.13a13.912,13.912,0,0,1-.115,5.335,19.316,19.316,0,0,1-1.973,5.335,7.045,7.045,0,0,1-3.362,1.857,22.137,22.137,0,0,1-3.365.231h-1.623v3.713h85.824V114.748Zm-98.049,45q-1.393-.231-3.017-3.017t-1.625-11.6V14.308a9.683,9.683,0,0,1,2.205-4.987,5.754,5.754,0,0,1,2.666-1.74h6.031V3.638H399.542q-6.959,30.851-13.8,61.7t-13.8,61.7L341.55,3.638h-33.17V7.581h6.031a3.913,3.913,0,0,1,2.2.7A4.307,4.307,0,0,1,318.124,9.9V145.366a13.993,13.993,0,0,1-.465,6.146,36.319,36.319,0,0,1-2.318,5.916,11.412,11.412,0,0,1-2.669,1.973,3.54,3.54,0,0,1-2.9.348H305.83v3.943h31.547v-3.943H334.36a6.516,6.516,0,0,1-3.828-.233,8.825,8.825,0,0,1-3.362-2.088,23.071,23.071,0,0,1-3.017-13.687q0-1.156-.115-5.8t-.115-10.207V17.555l38.041,145.672,7.423.465,32.243-146.6V151.165q0,4.643-1.277,6.379a5.547,5.547,0,0,1-2.9,2.205H390.96v3.943h41.056v-3.943ZM229.777,35.951l15.471,39.632q-.15,1.476-24.015,5.894l7.66-45.526ZM219.463,7.662q-3.391,34.185-10.314,75.583l-13.7,5.158q-30.941,5.008-30.941,16.353v3.388l2.5,2.654h.886l36.1-9.577h.884l-8.546,29.32-9.43,26.52v2.652l2.506,2.506h.884l4.272-.886q11.2-16.354,22.395-60.848,0-4.419,32.561-8.693h1.768q15.47,40.372,26.522,64.386,16.056,34.034,31.825,52.452h.884q6.629,0,9.43-11.2,0-3.391-6.926-11.2-25.2-40.368-46.263-96.947l23.131-.884q7.66-6.19,7.662-12.081l-1.623-4.274Q260.717,73.23,260.717,74.7,241.856,21.218,229.777,0h-.884q-4.566,0-9.43,7.662M126.388,100.6v4.872H135.2l.463.927v.233a2.508,2.508,0,0,1,.463,1.392v33.4a26.881,26.881,0,0,1-.7,6.494,24.572,24.572,0,0,1-5.566,9.163q-3.715,3.827-10.207,3.828-13.456-1.159-21.108-12.758v.233a69.27,69.27,0,0,1-4.987-13.919,84.215,84.215,0,0,1-2.205-14.613q-1.624-10.667-2.318-21.225t-.7-21.223V71.6q0-3.244.233-5.8.461-6.725,1.39-13.454a124,124,0,0,1,2.553-13.221,70.569,70.569,0,0,1,9.741-24.82,23.364,23.364,0,0,1,7.771-5.568,20.727,20.727,0,0,1,8.234-1.855,23.027,23.027,0,0,1,12.873,4.061,25.939,25.939,0,0,1,9.4,11.249,52.7,52.7,0,0,1,6.494,27.371h3.48V4.334h-3.48V6.189A15.694,15.694,0,0,1,146.8,8.74q-.234,1.393-1.39,1.392a9.813,9.813,0,0,1-4.641-1.623,32.669,32.669,0,0,0-5.335-2.321q-2.783-.922-5.335-1.855a14.025,14.025,0,0,1-1.855-.233c-.927-.152-1.7-.307-2.318-.463a1.007,1.007,0,0,1-.465-.115,1.623,1.623,0,0,0-.7-.117,3.29,3.29,0,0,0-1.39-.231h-1.392a6.4,6.4,0,0,1-2.784-.465q-16.937.234-27.256,8.352a55.011,55.011,0,0,0-16.005,20.3A89.282,89.282,0,0,0,68.4,57.8a207.674,207.674,0,0,0-1.857,26.791A162.8,162.8,0,0,0,67.933,108.6,95.144,95.144,0,0,0,74.2,132.608,64.854,64.854,0,0,0,86.84,152.557a41.563,41.563,0,0,0,20.3,11.832,48.314,48.314,0,0,0,9.278,1.392,62.672,62.672,0,0,0,9.278-.233q1.854-.468,4.524-1.277t5.45-1.971a63.42,63.42,0,0,1,8.234-3.017q4.057-1.156,6.379-.463a5.39,5.39,0,0,1,1.973,2.436,12.072,12.072,0,0,1,1.044,3.362h3.48V110.224a10.622,10.622,0,0,1,.463-2.9q.461-1.854,1.622-1.855h5.1V100.6Z" transform="translate(75.484)"/></g></svg>