<svg xmlns="http://www.w3.org/2000/svg" xmlns:xlink="http://www.w3.org/1999/xlink" width="344.642" height="52.838" viewBox="0 0 344.642 52.838"><defs><clipPath id="a"><path d="M0-72.342H344.642V-125.18H0Z" transform="translate(0 125.18)"/></clipPath><clipPath id="b"><rect width="26.328" height="43.96"/></clipPath><clipPath id="c"><rect width="330.076" height="45.374"/></clipPath></defs><g transform="translate(0 125.18)"><g transform="translate(0 -125.18)" clip-path="url(#a)"><g transform="translate(322.113 8.594)" style="mix-blend-mode:multiply;isolation:isolate"><g clip-path="url(#b)"><g transform="translate(3.799 2.955)"><path d="M-3.577-48.265a3,3,0,0,0-.846,2.209,3.1,3.1,0,0,0,.846,2.238,2.892,2.892,0,0,0,2.188.883A2.776,2.776,0,0,0,.8-43.817a3.24,3.24,0,0,0,.788-2.238A3.133,3.133,0,0,0,.8-48.265a2.827,2.827,0,0,0-2.186-.854,2.946,2.946,0,0,0-2.188.854M-.683-83.046a9.654,9.654,0,0,0-2.739,1.355,7.19,7.19,0,0,0-2,2.15,5.411,5.411,0,0,0-.766,2.857,3.672,3.672,0,0,0,.825,2.415,2.875,2.875,0,0,0,2.356,1A2.945,2.945,0,0,0-.8-74.146a3.058,3.058,0,0,0,.854-2.223A2.9,2.9,0,0,0-.211-77.8a9.668,9.668,0,0,0-.737-1.024l-.353-.351v.058l-.236-.7A2.071,2.071,0,0,1-.388-81.429a4.291,4.291,0,0,1,1.973-.5,3.035,3.035,0,0,1,2.562,1.2,7.76,7.76,0,0,1,1.325,2.93,16.955,16.955,0,0,1,.442,3.662q.029,1.934.03,3.34v1.875q0,1.407-.03,3.136A14.8,14.8,0,0,1,5.5-62.5a6.6,6.6,0,0,1-1.237,2.607,2.964,2.964,0,0,1-2.444,1.055A4.73,4.73,0,0,1,.672-59.01a11.909,11.909,0,0,1-1.149-.347.247.247,0,0,1,.03-.116.261.261,0,0,0,.029-.116.709.709,0,0,0,.059-.317v-.375a1.978,1.978,0,0,0-.353-1.186,1.221,1.221,0,0,0-1.06-.491,2.034,2.034,0,0,0-1.355.5,1.591,1.591,0,0,0-.589,1.266,1.879,1.879,0,0,0,.265,1.119,3.045,3.045,0,0,0,.677.648l.471.353a6.178,6.178,0,0,1,.059,1.031v6.391H-.536v-6.833a9.19,9.19,0,0,0,1.149.177q.619.06,1.266.059a8.608,8.608,0,0,0,4.535-1.207,11.232,11.232,0,0,0,3.357-3.092,14.19,14.19,0,0,0,2.062-4.241,16.123,16.123,0,0,0,.707-4.653,17.937,17.937,0,0,0-.618-4.624,13.506,13.506,0,0,0-1.914-4.211A10.629,10.629,0,0,0,6.8-82.339a8.541,8.541,0,0,0-4.565-1.178,9.723,9.723,0,0,0-2.916.471" transform="translate(6.19 83.517)"/></g></g></g><g transform="translate(-3.799 7.887)" style="mix-blend-mode:multiply;isolation:isolate"><g clip-path="url(#c)"><g transform="translate(3.799 2.955)"><path d="M-10.732-.565v1h.353A7.6,7.6,0,0,1-9.524.5a2.594,2.594,0,0,1,.854.236,1.973,1.973,0,0,1,.5.913,4.107,4.107,0,0,1,.147,1.031V36.9a2.543,2.543,0,0,1-.736,1.826,2.609,2.609,0,0,1-1.8.825,3.787,3.787,0,0,1-2.356-.412.8.8,0,0,1-.56-.883,2.75,2.75,0,0,1,.383-1.06q.118-.177.353-.471a5.342,5.342,0,0,0,.412-.589,2.207,2.207,0,0,0,.118-1.237,3.609,3.609,0,0,0-1-2.268,2.731,2.731,0,0,0-2.179-.854,3.051,3.051,0,0,0-2.327.972,3.146,3.146,0,0,0-.854,2.386,3.941,3.941,0,0,0,.589,2.3,4.368,4.368,0,0,0,1.826,1.649h-.059A8.309,8.309,0,0,0-11.5,40.49,8,8,0,0,0-6.591,38.9a11.629,11.629,0,0,0,2.741-4.182,12.431,12.431,0,0,0,.776-5.007V2.145a.119.119,0,0,1,.03-.088.122.122,0,0,0,.029-.089,6.386,6.386,0,0,1,.295-.913A.875.875,0,0,1-1.838.437H-.365v-1Zm35.117,39.7a1.4,1.4,0,0,1-.883-.324,3.258,3.258,0,0,1-.707-.766,4.432,4.432,0,0,1-.471-.913,5.07,5.07,0,0,1-.236-.766l-.471-1.59L12.133-.506,9.364-.565l-9.719,37.4a3.865,3.865,0,0,1-.206.736,3.11,3.11,0,0,1-.383.707,2.051,2.051,0,0,1-.56.53,1.044,1.044,0,0,1-.736.147,1.667,1.667,0,0,1-.883,0v1.178H4V39.13a9.845,9.845,0,0,1-1.767-.207,1.606,1.606,0,0,1-.825-.414.9.9,0,0,1-.176-.741c.038-.316.118-.73.236-1.244L1.707,35.4l1.649-6.985H5.919q1.5,0,3.063.03t3.033.029h2.533l2.12,7.992a4.608,4.608,0,0,1,.147,1.6,1.138,1.138,0,0,1-.353.74,1.075,1.075,0,0,1-.56.237c-.2.02-.334.029-.412.029l-.884.059v1.007H24.915v-1ZM3.71,27l5.3-20.5L14.195,27.06ZM50.825,37.957a2.133,2.133,0,0,1-1.355,1.178,1.483,1.483,0,0,1-.766-.324,2.254,2.254,0,0,1-.766-1.149,6.266,6.266,0,0,1-.059-1.06V35.483q.117-1.06.177-2.209t.059-2.209q0-1.413-.088-2.886t-.324-3a7.594,7.594,0,0,0-1.089-2.916A7.918,7.918,0,0,0,44.7,20.228a8.7,8.7,0,0,0-2.474-1.266,14.784,14.784,0,0,0-2.827-.618,3.792,3.792,0,0,0,1.384-2.179,11.646,11.646,0,0,0,.324-2.709,15.668,15.668,0,0,0-.176-2.533L40.4,6.975a8.706,8.706,0,0,1-.177-1.708,8.156,8.156,0,0,1,.354-2.356A2.869,2.869,0,0,1,42.108.849,2,2,0,0,1,43.344.672a.8.8,0,0,1,.648.825q-.236.353-.5.8a5.574,5.574,0,0,0-.442.913,2.448,2.448,0,0,0,.118,1.826A3.246,3.246,0,0,0,44.4,6.5a2.967,2.967,0,0,0,1.826.471,3.193,3.193,0,0,0,2.385-1A3.217,3.217,0,0,0,49.529,3.5,3.91,3.91,0,0,0,48.115.437,6.339,6.339,0,0,0,44.287-.977a5.9,5.9,0,0,0-2.827.766A4.09,4.09,0,0,0,39.251,2.5a12.379,12.379,0,0,0-.265,3.534l.589,5.6.118.942a14.253,14.253,0,0,1,.059,2.209,4.368,4.368,0,0,1-.883,2.209,3.073,3.073,0,0,1-1.3.943,3.464,3.464,0,0,1-1.531.236H33.331V2.734q0-1.354.559-1.737A3.3,3.3,0,0,1,34.921.5h1.119v-1H25.674v1h1.3a1.207,1.207,0,0,1,.412.088,1.264,1.264,0,0,1,.442.295,1.947,1.947,0,0,1,.383.648,3.34,3.34,0,0,1,.177,1.207V36.308a4.359,4.359,0,0,1-.236,1.62,2.6,2.6,0,0,1-.5.825,1.585,1.585,0,0,1-.8.383H25.674v1H36.041v-1h-.884a1.071,1.071,0,0,1-1-.383,3.06,3.06,0,0,1-.53-1,5.684,5.684,0,0,1-.236-1.09c-.04-.353-.059-.55-.059-.589V19.4h4.417a5.276,5.276,0,0,1,2.945,1.325,6.058,6.058,0,0,1,1.531,2.415,11.114,11.114,0,0,1,.559,2.975q.089,1.59.089,3.063v1q-.119.649-.177,1.325t-.059,1.325a15.813,15.813,0,0,0,.53,4.064A7.249,7.249,0,0,0,44.4,38.811a5.185,5.185,0,0,0,1.885,1.325h-.059a3.919,3.919,0,0,0,2.12.589,4.223,4.223,0,0,0,2.592-.884,3.38,3.38,0,0,0,.825-1.237l-.353-.295Zm31.924-8.835a17.048,17.048,0,0,1-.5,4.977,6.588,6.588,0,0,1-1.708,3,6.162,6.162,0,0,1-2.886,1.5,19.725,19.725,0,0,1-4.034.471H66.492L83.574.024H61.191V11.039h.883a17,17,0,0,1,.5-4.977,6.375,6.375,0,0,1,1.708-2.975A6.322,6.322,0,0,1,67.2,1.615a23.6,23.6,0,0,1,4.123-.53h6.067L60.308,40.136H83.632V29.122ZM97.3-.565H86.348v1h1.119q1.237.177,1.414,1a8.735,8.735,0,0,1,.177,1.826V36.956a3.015,3.015,0,0,1-.5,1.62,1.786,1.786,0,0,1-.736.56H86.348v1H97.893a12.164,12.164,0,0,0,5.831-1,10.192,10.192,0,0,0,4.594-3.828,25.893,25.893,0,0,0,2.533-5.448,23.073,23.073,0,0,0,1.119-5.92q.117-.941.147-2t.029-2.121a43.7,43.7,0,0,0-.294-4.977,26.523,26.523,0,0,0-1.06-4.977,23.193,23.193,0,0,0-2-4.565,12.724,12.724,0,0,0-3.181-3.682A12.486,12.486,0,0,0,97.3-.565m7.6,34.516-.412,1.237-.471.943a6.948,6.948,0,0,1-.5.854,3.992,3.992,0,0,1-1.089.913,4.81,4.81,0,0,1-1.473.766,10.147,10.147,0,0,1-1.649.353H94.181V.437h2.592a8.929,8.929,0,0,1,5.478,1.414,5.256,5.256,0,0,1,1.8,2.209,18.623,18.623,0,0,1,.972,2.68.4.4,0,0,0,.029.176.415.415,0,0,1,.03.177v.236a70.406,70.406,0,0,1,1.178,12.723,67.267,67.267,0,0,1-1.414,13.783Zm36.459-18.436a30.981,30.981,0,0,0-.707-4.653,24.994,24.994,0,0,0-1.443-4.388,13.091,13.091,0,0,0-2.385-3.682A11.37,11.37,0,0,0,133.292.231,11.977,11.977,0,0,0,128.4-.8h-.236A12.187,12.187,0,0,0,123.249.231a11.248,11.248,0,0,0-3.564,2.562A13.054,13.054,0,0,0,117.3,6.474a24.889,24.889,0,0,0-1.443,4.388,30.926,30.926,0,0,0-.707,4.653q-.177,2.357-.176,4.476a40.331,40.331,0,0,0,.471,6.685,22.992,22.992,0,0,0,2,6.627,14.438,14.438,0,0,0,4.064,5.124,11.08,11.08,0,0,0,6.6,2.238h.412a10.858,10.858,0,0,0,6.508-2.238,14.592,14.592,0,0,0,4.035-5.124,23.031,23.031,0,0,0,2-6.627,40.419,40.419,0,0,0,.471-6.685q0-2.12-.177-4.476m-5.949,6.508q-.059,1.738-.176,3.446a42.67,42.67,0,0,1-.763,6.773,12.24,12.24,0,0,1-1.026,3.24,11.792,11.792,0,0,1-1.906,2.827,2.324,2.324,0,0,1-.676.471,4.434,4.434,0,0,0-.557.294,6.283,6.283,0,0,1-1.994.354,5.605,5.605,0,0,1-1.994-.354q-.294-.117-.645-.294a2.457,2.457,0,0,1-.645-.471,15.889,15.889,0,0,1-2.2-3.74,13.71,13.71,0,0,1-1.027-4.211,55.661,55.661,0,0,1-.645-5.6q-.177-2.768-.176-5.6,0-1.59.059-3.151t.176-3.151a27.572,27.572,0,0,1,.469-4.27,30.375,30.375,0,0,1,1.115-4.27A6.917,6.917,0,0,1,128.314.2a6.966,6.966,0,0,1,3.343,1.325,6.112,6.112,0,0,1,2.112,2.8A31.145,31.145,0,0,1,134.8,8.035a26.121,26.121,0,0,1,.5,3.711,2.128,2.128,0,0,0-.029.618,3.589,3.589,0,0,0,.088.56,1.311,1.311,0,0,0,.03.265,1.416,1.416,0,0,1,.029.265v.883a2.468,2.468,0,0,0,.03.412,2.565,2.565,0,0,1,.03.412q.058.884.059,1.738v1.679q-.059,1.709-.118,3.446M153.405-.624q-2.445-.058-4.977-.059-1.237,0-2.533.03t-2.533.029v1H144.6a2.011,2.011,0,0,1,.824.589,1.67,1.67,0,0,1,.412.883V36.6a5.858,5.858,0,0,1-.059,1,2.113,2.113,0,0,1-1.355,1.414h-1.06v1.06h10.956q1.414,0,2.739-.03a12.135,12.135,0,0,0,2.562-.325,10.286,10.286,0,0,0,2.415-.916,8.951,8.951,0,0,0,2.3-1.8,11.352,11.352,0,0,0,2.268-3.78,12.421,12.421,0,0,0,.737-4.194,11.911,11.911,0,0,0-.56-3.6,10.635,10.635,0,0,0-1.62-3.189,9.152,9.152,0,0,0-2.621-2.362,8.8,8.8,0,0,0-3.564-1.182,9.515,9.515,0,0,0,2.945-1.322,10.017,10.017,0,0,0,3.858-4.873,9.075,9.075,0,0,0,.559-3.2,11.424,11.424,0,0,0-2-6.489,8.664,8.664,0,0,0-6.008-3.259q-2.474-.117-4.918-.177m7.687,33.869A6.555,6.555,0,0,1,160.8,34.6q-.177.472-.412,1.119l-.176.471a4.243,4.243,0,0,1-2.5,2.415,10.826,10.826,0,0,1-3.387.53h-.883a7.061,7.061,0,0,1-.883-.059c-.2,0-.462-.009-.8-.029s-.6-.03-.8-.03v-19.5h5.949a4.471,4.471,0,0,1,3.24,2.474l.177.412a6.123,6.123,0,0,1,.324.8q.147.442.265.736c0,.079.009.128.03.147a.123.123,0,0,1,.03.089,27.894,27.894,0,0,1,.412,3,25.6,25.6,0,0,1,.059,3q-.118,1.59-.353,3.063M159.855,16.34a4.023,4.023,0,0,1-3.3,1.944h-5.6V.378h3.711q.647,0,1.237.059a5.361,5.361,0,0,1,4.005,2.533V2.911a9.585,9.585,0,0,1,.707,2.121,17.671,17.671,0,0,1,.53,4.3,20.757,20.757,0,0,1-1.3,7.068ZM183.433-.034v1l1.944.177A4.4,4.4,0,0,1,186,1.32a1.535,1.535,0,0,1,.559.354.788.788,0,0,0,.118.265c.079.138.137.246.177.324a3.668,3.668,0,0,1-.118.883q-.119.472-.236.825a.29.29,0,0,1-.059.147.283.283,0,0,0-.059.147q-.354,1-.766,1.944t-.883,1.944q-1,1.826-1.855,3.652t-1.738,3.711q-1.179-2.768-2.5-5.566t-2.5-5.566l-.295-.766a2.058,2.058,0,0,1-.265-1.532,1.4,1.4,0,0,1,.648-.766,2.334,2.334,0,0,1,.972-.265c.353-.019.589-.029.707-.029l.353-.059v-1h-11.78v1a4.021,4.021,0,0,1,2.385.972,6.623,6.623,0,0,1,1.561,2.032l2.121,4.83q.47,1,.913,2.032t.913,2.032l2.415,5.478V36.308a4.359,4.359,0,0,1-.236,1.62,2.6,2.6,0,0,1-.5.825,1.585,1.585,0,0,1-.8.383h-1.178v1h10.308v-1h-.883a1,1,0,0,1-.943-.383,3.06,3.06,0,0,1-.53-1,5.683,5.683,0,0,1-.236-1.09c-.04-.353-.059-.55-.059-.589V17.989q1.59-3.357,3.21-6.6T188.2,4.913q.294-.648.677-1.325t.677-1.325a1.827,1.827,0,0,1,1.384-.913,8.958,8.958,0,0,1,1.679-.206V-.034Zm29.321,27.507a25.058,25.058,0,0,1-.265,3.475,19.023,19.023,0,0,1-.883,3.652,11.243,11.243,0,0,1-1.679,3.151,5.452,5.452,0,0,1-2.65,1.914,10.307,10.307,0,0,1-2.238.295,8.318,8.318,0,0,1-2.945-.53,2.968,2.968,0,0,1-1.119-.648,1.01,1.01,0,0,1-.294-.118h.059a12.628,12.628,0,0,1-1.885-2.828,11.993,11.993,0,0,1-1-3.181,58.043,58.043,0,0,1-.884-6.715q-.118-1.708-.176-3.387t-.059-3.387q0-1.708.059-3.387t.236-3.446a22.751,22.751,0,0,1,.442-3.888,29.789,29.789,0,0,1,1.031-3.77,10.722,10.722,0,0,1,1.649-2.15,7.864,7.864,0,0,1,2.032-1.384,5.816,5.816,0,0,1,2.8-.53,5.476,5.476,0,0,1,2.828,1.561,10,10,0,0,1,1.914,2.8A15.048,15.048,0,0,1,210.81,8.3a15.925,15.925,0,0,1,.354,3.151h.883V-.034h-.883V.731q0,.472-.177.589a.581.581,0,0,1-.412.089,1.433,1.433,0,0,1-.471-.147l-.353-.177a13.226,13.226,0,0,0-5.3-1.531h-.53a10.91,10.91,0,0,0-6.833,2.121,13.82,13.82,0,0,0-4.005,5.154,23.266,23.266,0,0,0-1.885,6.715,52.756,52.756,0,0,0-.471,6.8,38.786,38.786,0,0,0,.147,4.477,27.981,27.981,0,0,0,.795,4.624,23.977,23.977,0,0,0,1.59,4.359,13.441,13.441,0,0,0,2.533,3.652,12.354,12.354,0,0,0,3.593,2.533,11.818,11.818,0,0,0,4.83,1.031,15.239,15.239,0,0,0,3.092-.324,25.062,25.062,0,0,0,3.093-.854.956.956,0,0,0,.294-.059,2.217,2.217,0,0,0,.295-.118.339.339,0,0,0,.236-.118h-.059a1.462,1.462,0,0,1,.883-.147,1.1,1.1,0,0,1,.471.265,1.332,1.332,0,0,1,.236.589v.354h.884V27.472ZM235.4-.624q-2.445-.058-4.977-.059-1.237,0-2.533.03t-2.533.029v1h1.237a2.009,2.009,0,0,1,.825.589,1.67,1.67,0,0,1,.412.883V36.6a5.862,5.862,0,0,1-.059,1,2.113,2.113,0,0,1-1.355,1.414h-1.06v1.06h10.956q1.414,0,2.739-.03a12.135,12.135,0,0,0,2.562-.325,10.286,10.286,0,0,0,2.415-.916,8.958,8.958,0,0,0,2.3-1.8,11.352,11.352,0,0,0,2.268-3.78,12.431,12.431,0,0,0,.737-4.194,11.911,11.911,0,0,0-.56-3.6,10.626,10.626,0,0,0-1.62-3.189,9.144,9.144,0,0,0-2.621-2.362,8.8,8.8,0,0,0-3.564-1.182,9.515,9.515,0,0,0,2.945-1.322A10.017,10.017,0,0,0,247.77,12.5a9.075,9.075,0,0,0,.559-3.2,11.424,11.424,0,0,0-2-6.489,8.665,8.665,0,0,0-6.008-3.259q-2.474-.117-4.918-.177m7.687,33.869a6.555,6.555,0,0,1-.295,1.355q-.177.472-.412,1.119l-.176.471a4.243,4.243,0,0,1-2.5,2.415,10.826,10.826,0,0,1-3.387.53h-.883a7.056,7.056,0,0,1-.883-.059c-.2,0-.462-.009-.8-.029s-.6-.03-.8-.03v-19.5H238.9a4.471,4.471,0,0,1,3.24,2.474l.177.412a6.123,6.123,0,0,1,.324.8q.146.442.265.736c0,.079.009.128.03.147a.123.123,0,0,1,.03.089,27.894,27.894,0,0,1,.412,3,25.6,25.6,0,0,1,.059,3q-.118,1.59-.353,3.063M241.85,16.34a4.022,4.022,0,0,1-3.3,1.944h-5.6V.378h3.711q.647,0,1.237.059a5.361,5.361,0,0,1,4.005,2.533V2.911a9.608,9.608,0,0,1,.707,2.121,17.671,17.671,0,0,1,.53,4.3,20.748,20.748,0,0,1-1.3,7.068Zm36.247-.824a30.979,30.979,0,0,0-.707-4.653,24.994,24.994,0,0,0-1.443-4.388,13.092,13.092,0,0,0-2.386-3.682A11.363,11.363,0,0,0,270.028.231,11.977,11.977,0,0,0,265.139-.8H264.9A12.189,12.189,0,0,0,259.985.231a11.251,11.251,0,0,0-3.563,2.562,13.055,13.055,0,0,0-2.386,3.682,24.922,24.922,0,0,0-1.443,4.388,30.922,30.922,0,0,0-.707,4.653q-.177,2.357-.177,4.476a40.333,40.333,0,0,0,.471,6.685,22.991,22.991,0,0,0,2,6.627,14.438,14.438,0,0,0,4.064,5.124,11.079,11.079,0,0,0,6.6,2.238h.412a10.859,10.859,0,0,0,6.508-2.238A14.592,14.592,0,0,0,275.8,33.3a23.032,23.032,0,0,0,2-6.627,40.469,40.469,0,0,0,.471-6.685q0-2.12-.177-4.476m-5.949,6.508q-.059,1.738-.176,3.446a42.673,42.673,0,0,1-.763,6.773,12.24,12.24,0,0,1-1.026,3.24,11.782,11.782,0,0,1-1.906,2.827,2.316,2.316,0,0,1-.675.471,4.435,4.435,0,0,0-.557.294,6.283,6.283,0,0,1-1.994.354,5.605,5.605,0,0,1-1.994-.354q-.294-.117-.645-.294a2.451,2.451,0,0,1-.645-.471,15.889,15.889,0,0,1-2.2-3.74,13.709,13.709,0,0,1-1.027-4.211,55.537,55.537,0,0,1-.645-5.6q-.177-2.768-.176-5.6,0-1.59.059-3.151t.177-3.151a27.58,27.58,0,0,1,.469-4.27,30.379,30.379,0,0,1,1.115-4.27A6.917,6.917,0,0,1,265.051.2a6.966,6.966,0,0,1,3.343,1.325,6.112,6.112,0,0,1,2.112,2.8,31.07,31.07,0,0,1,1.026,3.711,26.065,26.065,0,0,1,.5,3.711,2.114,2.114,0,0,0-.03.618,3.64,3.64,0,0,0,.089.56,1.308,1.308,0,0,0,.03.265,1.417,1.417,0,0,1,.029.265v.883a2.468,2.468,0,0,0,.03.412,2.565,2.565,0,0,1,.03.412q.058.884.059,1.738v1.679q-.059,1.709-.118,3.446m31.759,17.052a5.064,5.064,0,0,1-2.444-.854,4.1,4.1,0,0,1-1.561-1.914q-1.356-3.181-2.827-6.421t-2.886-6.42q-.649-1.531-1.325-3.033T291.538,17.4q1.708-3.534,3.3-6.774t2.592-5.36a16.159,16.159,0,0,1,.648-1.561,5.05,5.05,0,0,1,1-1.384q.353-.354.677-.619a2.78,2.78,0,0,1,.8-.442,1.582,1.582,0,0,1,.8-.147,3.211,3.211,0,0,1,.854.03V-.034H293.01v1a1.389,1.389,0,0,1,.265.03,1.31,1.31,0,0,0,.265.03q.412.059.913.088a4.306,4.306,0,0,1,.913.147,2.2,2.2,0,0,1,.8.677,1.255,1.255,0,0,1,.206,1.031,12.844,12.844,0,0,1-1.119,3.475q-.826,1.709-1.708,3.24l-.883,1.708-1.944,4.064q-.707-1.471-1.266-2.945T288.3,9.567q-.472-1.237-1.06-2.621T286.06,4.206a.5.5,0,0,1-.147-.265,1.136,1.136,0,0,0-.088-.265,2.1,2.1,0,0,1-.206-1.649,1.613,1.613,0,0,1,.766-.766,2.4,2.4,0,0,1,1.031-.236H288L288.3.967v-1h-11.78v1A4.36,4.36,0,0,1,279.228,2.2a6.189,6.189,0,0,1,1.089,1.266,11.44,11.44,0,0,1,.677,1.266q1.708,3.711,3.151,7.392t2.915,7.451q.177.413.353.913t.354.972l-7.54,15.55a7.107,7.107,0,0,1-1,1.414,3.007,3.007,0,0,1-.913.442,2.148,2.148,0,0,1-.913.088h-1.119v1.178h9.189v-1q-.589-.058-1.089-.118a9.931,9.931,0,0,1-1.031-.177,1.813,1.813,0,0,1-1.266-.913,1.793,1.793,0,0,1,.088-1.443L288.3,24.056l.294-.53.295.53,2.592,5.831q.648,1.473,1.266,2.916t1.325,2.915a.957.957,0,0,1,.118.412.4.4,0,0,0,.118.295.173.173,0,0,1,.059.118v-.059a2.542,2.542,0,0,1,.236,1.59,1.173,1.173,0,0,1-.618.736,2.545,2.545,0,0,1-.943.236c-.334.02-.56.029-.677.029l-.353.059v1h11.721v-.943Z" transform="translate(18.571 0.977)"/></g></g></g><g transform="translate(216.571 0)"><path d="M-11.638-.078q-1.256,0-2-.057h-2.681l-1.826,3.993q-1.256,2.91-1.883,4.45a.871.871,0,0,0-.114.342c0,.19.114.285.342.285q.57,0,3.993-3.594l5.192-5.42Z" transform="translate(20.139 0.135)"/></g></g></g></svg>