<svg xmlns="http://www.w3.org/2000/svg" width="190.144" height="34.81" viewBox="0 0 190.144 34.81"><g transform="translate(0 0)"><path d="M3.653,5.656a1.767,1.767,0,0,1-1.123.976A1.23,1.23,0,0,1,1.9,6.364a1.871,1.871,0,0,1-.634-.952,5.235,5.235,0,0,1-.048-.879V3.605q.1-.878.147-1.831T1.408-.056q0-1.171-.074-2.392t-.268-2.49a6.317,6.317,0,0,0-.9-2.417A6.536,6.536,0,0,0-1.424-9.04a7.209,7.209,0,0,0-2.05-1.05A12.244,12.244,0,0,0-5.819-10.6,3.141,3.141,0,0,0-4.67-12.408,9.665,9.665,0,0,0-4.4-14.654a12.916,12.916,0,0,0-.147-2.1l-.439-3.271a7.157,7.157,0,0,1-.147-1.415,6.772,6.772,0,0,1,.293-1.953A2.377,2.377,0,0,1-3.572-25.1a1.654,1.654,0,0,1,1.025-.147.664.664,0,0,1,.537.684q-.195.293-.415.658a4.619,4.619,0,0,0-.366.757,2.027,2.027,0,0,0,.1,1.514,2.7,2.7,0,0,0,1.026,1.22,2.458,2.458,0,0,0,1.513.39,2.644,2.644,0,0,0,1.978-.829,2.664,2.664,0,0,0,.757-2.05,3.242,3.242,0,0,0-1.171-2.539,5.258,5.258,0,0,0-3.173-1.171,4.878,4.878,0,0,0-2.344.634A3.388,3.388,0,0,0-5.94-23.735a10.263,10.263,0,0,0-.219,2.929l.487,4.638.1.782a11.8,11.8,0,0,1,.048,1.831,3.607,3.607,0,0,1-.732,1.83,2.539,2.539,0,0,1-1.074.782,2.885,2.885,0,0,1-1.269.2h-2.246V-23.54q0-1.122.464-1.44a2.726,2.726,0,0,1,.854-.415H-8.6v-.829h-8.592v.829h1.073a.973.973,0,0,1,.342.074,1.03,1.03,0,0,1,.366.244,1.588,1.588,0,0,1,.318.537,2.753,2.753,0,0,1,.147,1V4.289a3.607,3.607,0,0,1-.2,1.342,2.19,2.19,0,0,1-.415.684,1.318,1.318,0,0,1-.66.316h-.976v.831H-8.6V6.632h-.732a.888.888,0,0,1-.829-.316,2.552,2.552,0,0,1-.44-.831,4.794,4.794,0,0,1-.2-.9c-.033-.292-.048-.455-.048-.487V-9.724h3.662a4.376,4.376,0,0,1,2.441,1.1,5.009,5.009,0,0,1,1.269,2A9.229,9.229,0,0,1-3.01-4.157c.048.878.073,1.725.073,2.538v.831q-.1.538-.147,1.1t-.048,1.1a13.13,13.13,0,0,0,.439,3.368A6.04,6.04,0,0,0-1.668,6.364a4.313,4.313,0,0,0,1.563,1.1h-.05A3.252,3.252,0,0,0,1.6,7.95a3.5,3.5,0,0,0,2.149-.732,2.808,2.808,0,0,0,.683-1.025l-.292-.244Zm26.226.976a1.155,1.155,0,0,1-.731-.268,2.664,2.664,0,0,1-.587-.635,3.735,3.735,0,0,1-.39-.757,4.4,4.4,0,0,1-.2-.634l-.39-1.318L19.725-26.225l-2.294-.05-8.056,31a3.155,3.155,0,0,1-.171.61,2.526,2.526,0,0,1-.318.586,1.7,1.7,0,0,1-.463.44.873.873,0,0,1-.611.122,1.384,1.384,0,0,1-.731,0v.976h5.907V6.628a8.211,8.211,0,0,1-1.465-.171,1.332,1.332,0,0,1-.684-.344.743.743,0,0,1-.147-.614q.049-.393.2-1.031l.2-.932,1.368-5.79h2.123q1.246,0,2.539.024t2.515.024h2.1L23.485,4.42a3.8,3.8,0,0,1,.121,1.325.941.941,0,0,1-.292.612.885.885,0,0,1-.464.2c-.162.017-.276.024-.342.024l-.732.05v.834H30.32V6.632ZM12.744-3.425l4.394-16.991,4.3,17.039Zm24.821,8.2a4.725,4.725,0,0,1-.073.9,1.114,1.114,0,0,1-.464.66,1.317,1.317,0,0,1-.66.268c-.211.017-.432.024-.658.024h-.39v.831h8.641V6.632h-.782q-.928-.047-1.147-.61a2.629,2.629,0,0,1-.219-.9V-25.4a18.788,18.788,0,0,1,3.344.44,5.284,5.284,0,0,1,2.417,1.244,5.35,5.35,0,0,1,1.44,2.49,14.106,14.106,0,0,1,.415,4.125h.732v-9.179H29.217V-17.1h.732a13.606,13.606,0,0,1,.415-4.052,5.5,5.5,0,0,1,1.44-2.489,5.338,5.338,0,0,1,2.417-1.294,17.21,17.21,0,0,1,3.344-.464Zm37.5-17.722a25.693,25.693,0,0,0-.587-3.857,20.648,20.648,0,0,0-1.2-3.637A10.852,10.852,0,0,0,71.31-23.49a9.407,9.407,0,0,0-2.929-2.124,9.92,9.92,0,0,0-4.052-.855h-.2a10.1,10.1,0,0,0-4.076.855A9.332,9.332,0,0,0,57.1-23.49a10.825,10.825,0,0,0-1.978,3.051,20.649,20.649,0,0,0-1.2,3.637,25.538,25.538,0,0,0-.586,3.857q-.147,1.953-.147,3.71a33.385,33.385,0,0,0,.39,5.541A19.034,19.034,0,0,0,55.248,1.8a11.973,11.973,0,0,0,3.368,4.247A9.181,9.181,0,0,0,64.084,7.9h.342a9,9,0,0,0,5.394-1.855A12.086,12.086,0,0,0,73.165,1.8a19.034,19.034,0,0,0,1.66-5.493,33.384,33.384,0,0,0,.39-5.541q0-1.757-.146-3.71M70.138-7.551q-.049,1.44-.147,2.857A35.356,35.356,0,0,1,69.36.92a10.193,10.193,0,0,1-.851,2.686,9.82,9.82,0,0,1-1.58,2.344,1.947,1.947,0,0,1-.56.39,3.708,3.708,0,0,0-.461.244,5.226,5.226,0,0,1-1.654.293A4.653,4.653,0,0,1,62.6,6.583c-.162-.064-.341-.147-.535-.244a2.045,2.045,0,0,1-.535-.39,13.225,13.225,0,0,1-1.824-3.1,11.4,11.4,0,0,1-.851-3.491,46.1,46.1,0,0,1-.535-4.638q-.147-2.3-.146-4.639,0-1.317.049-2.612t.147-2.612a22.7,22.7,0,0,1,.389-3.539,25.142,25.142,0,0,1,.924-3.54,5.633,5.633,0,0,1,1.8-2.294,5.637,5.637,0,0,1,2.772-1.123,5.757,5.757,0,0,1,2.771,1.1,5.075,5.075,0,0,1,1.751,2.318,25.666,25.666,0,0,1,.85,3.076,21.493,21.493,0,0,1,.413,3.076,1.75,1.75,0,0,0-.024.513,3,3,0,0,0,.074.463,1.064,1.064,0,0,0,.024.219,1.187,1.187,0,0,1,.024.221v.732a2.014,2.014,0,0,0,.024.341,2.175,2.175,0,0,1,.024.342q.049.733.049,1.44v1.392q-.049,1.417-.1,2.855M109.15-26.274v.831q.928.1,1.44.2a1.044,1.044,0,0,1,.684.342.859.859,0,0,1,.1.658c-.05.278-.122.644-.221,1.1l-.1.782L105,1.652l-.976-3.807-2.637-10.351q-.438-1.806-.9-3.588t-.952-3.54c-.1-.292-.188-.586-.268-.878s-.155-.586-.219-.879l-.44-1.807a8.773,8.773,0,0,1-.171-.9,1.3,1.3,0,0,1,.171-.9,1.014,1.014,0,0,1,.684-.39.514.514,0,0,1,.292-.049h.732v-.831h-8.1v.831a.225.225,0,0,1,.1.024.2.2,0,0,0,.1.024h.2a3.067,3.067,0,0,1,1.124.757,2.143,2.143,0,0,1,.586,1.2,7.137,7.137,0,0,1,.244,2.684,6.773,6.773,0,0,1-.439,2.392.826.826,0,0,1-.05.342L89.135,1.6Q88.6-.446,88.06-2.6t-1.074-4.2l-2.2-8.69a.329.329,0,0,1-.1-.244.919.919,0,0,0-.049-.293l-.147-.586-1.757-6.64a2.714,2.714,0,0,1-.147-1.269,1.17,1.17,0,0,1,.318-.635.832.832,0,0,1,.463-.219c.162-.016.276-.024.342-.024l.732-.049v-.831H75.952v.831h.439a1.106,1.106,0,0,1,.684.219,2.162,2.162,0,0,1,.513.561,3.4,3.4,0,0,1,.342.684c.08.228.154.439.219.634l.1.2.392,1.319L83.227-4.889l3.32,12.352h2.294L95.432-18.12,98.215-8.064q1.073,3.858,2.1,7.714t2.1,7.812h2.246l8.056-31a3.709,3.709,0,0,1,.463-1.171,1.1,1.1,0,0,1,1.1-.586,2.739,2.739,0,0,1,.732,0v-.977ZM126.117,6.583a1.026,1.026,0,0,1-1.074-.61,4.092,4.092,0,0,1-.293-1.1V-23.589a3.956,3.956,0,0,1,.074-1.147.853.853,0,0,1,.805-.708h1.366v-.831H118.4v.831h1.318a1.056,1.056,0,0,1,.781.757,4.321,4.321,0,0,1,.147,1.1V4.338a3.789,3.789,0,0,1-.147,1.171,1.9,1.9,0,0,1-.366.684,1.076,1.076,0,0,1-.439.318,1.217,1.217,0,0,1-.366.073H118.4v.879h8.592V6.583ZM149.39-3.034a20.726,20.726,0,0,1-.219,2.88,15.782,15.782,0,0,1-.732,3.028,9.329,9.329,0,0,1-1.392,2.612,4.522,4.522,0,0,1-2.2,1.587,8.564,8.564,0,0,1-1.855.244,6.908,6.908,0,0,1-2.441-.439,2.456,2.456,0,0,1-.928-.537.846.846,0,0,1-.244-.1h.049A10.461,10.461,0,0,1,137.867,3.9a9.945,9.945,0,0,1-.829-2.636,48,48,0,0,1-.732-5.565q-.1-1.415-.147-2.807t-.048-2.808q0-1.415.048-2.807t.2-2.855a18.92,18.92,0,0,1,.366-3.223,24.539,24.539,0,0,1,.855-3.125,8.9,8.9,0,0,1,1.367-1.782,6.558,6.558,0,0,1,1.684-1.147,4.816,4.816,0,0,1,2.319-.439A4.543,4.543,0,0,1,145.289-24a8.3,8.3,0,0,1,1.586,2.318,12.437,12.437,0,0,1,.9,2.758,13.225,13.225,0,0,1,.293,2.613h.732v-9.521h-.732v.634c0,.261-.048.423-.147.489a.483.483,0,0,1-.342.073,1.182,1.182,0,0,1-.39-.121l-.293-.147a10.95,10.95,0,0,0-4.393-1.269h-.44a9.047,9.047,0,0,0-5.664,1.757,11.472,11.472,0,0,0-3.32,4.273,19.262,19.262,0,0,0-1.562,5.565,43.78,43.78,0,0,0-.39,5.639,32.267,32.267,0,0,0,.121,3.71,23.217,23.217,0,0,0,.66,3.833,19.842,19.842,0,0,0,1.318,3.612,11.131,11.131,0,0,0,2.1,3.028,10.243,10.243,0,0,0,2.978,2.1,9.794,9.794,0,0,0,4,.855,12.551,12.551,0,0,0,2.562-.269,20.687,20.687,0,0,0,2.563-.708.8.8,0,0,0,.245-.049,1.786,1.786,0,0,0,.244-.1.281.281,0,0,0,.2-.1h-.048a1.217,1.217,0,0,1,.732-.122.919.919,0,0,1,.39.221,1.106,1.106,0,0,1,.2.487v.293h.732V-3.034Zm22.779.2v.634a14.647,14.647,0,0,1-.463,3.3A8.388,8.388,0,0,1,170.412,3.9a6.675,6.675,0,0,1-2.271,1.978,7.285,7.285,0,0,1-3.344.806H161.33V-8.6h2.344a2.831,2.831,0,0,1,1.636.563,3.8,3.8,0,0,1,1.05,1.268,5.579,5.579,0,0,1,.537,1.66,10.65,10.65,0,0,1,.146,1.685h.732V-14.313h-.781a8.328,8.328,0,0,1-.171,1.636,6.262,6.262,0,0,1-.537,1.587,3.159,3.159,0,0,1-1.025,1.2,2.682,2.682,0,0,1-1.587.464H161.33V-25.4a29.459,29.459,0,0,1,4.2.269,7.405,7.405,0,0,1,3.149,1.147,5.361,5.361,0,0,1,1.953,2.515,11.545,11.545,0,0,1,.61,4.418h.732v-9.179H154.886v.829h1.026l.732.293a2.874,2.874,0,0,1,.39.805,1.708,1.708,0,0,1,.049.9V4a2.9,2.9,0,0,1-.024,1.123,4.06,4.06,0,0,1-.415,1.123,1.477,1.477,0,0,1-.708.39,4.655,4.655,0,0,1-.708.05h-.342v.781h18.065v-10.3Z" transform="translate(17.193 26.615)" fill="#2b2e34"/></g></svg>