<svg xmlns="http://www.w3.org/2000/svg" width="93.539" height="43.677" viewBox="0 0 93.539 43.677"><g transform="translate(-160 -3700.775)"><g transform="translate(162 3710.082)"><path d="M2.875,4.338a11.572,11.572,0,0,1-.61,4.418A5.368,5.368,0,0,1,.312,11.271a7.411,7.411,0,0,1-3.149,1.147,29.482,29.482,0,0,1-4.2.268V-17.681q0-1.122.39-1.391a1.244,1.244,0,0,1,.635-.269h1.171v-.829h-8.69v.829h1.171a.92.92,0,0,1,.635.219,1.194,1.194,0,0,1,.341.513,1.306,1.306,0,0,1,.1.489V11.271a1.707,1.707,0,0,1-.415,1.1,1.291,1.291,0,0,1-.611.316h-1.22v.831H3.607V4.338ZM29.233-6.891a25.85,25.85,0,0,0-.586-3.857,20.752,20.752,0,0,0-1.2-3.637,10.825,10.825,0,0,0-1.978-3.051,9.407,9.407,0,0,0-2.929-2.124,9.916,9.916,0,0,0-4.052-.855h-.2a10.1,10.1,0,0,0-4.076.855,9.333,9.333,0,0,0-2.954,2.124,10.826,10.826,0,0,0-1.978,3.051,20.648,20.648,0,0,0-1.2,3.637,25.538,25.538,0,0,0-.586,3.857q-.147,1.953-.147,3.71a33.384,33.384,0,0,0,.39,5.541,19.072,19.072,0,0,0,1.66,5.493A11.973,11.973,0,0,0,12.78,12.1a9.181,9.181,0,0,0,5.468,1.855h.342A8.994,8.994,0,0,0,23.984,12.1a12.086,12.086,0,0,0,3.344-4.247,19.034,19.034,0,0,0,1.66-5.493,33.523,33.523,0,0,0,.392-5.541q0-1.757-.147-3.71M24.3-1.5q-.049,1.44-.147,2.857a35.355,35.355,0,0,1-.632,5.614,10.192,10.192,0,0,1-.851,2.686A9.8,9.8,0,0,1,21.093,12a1.947,1.947,0,0,1-.56.39,3.709,3.709,0,0,0-.461.244,5.226,5.226,0,0,1-1.654.293,4.653,4.653,0,0,1-1.653-.293c-.162-.064-.341-.147-.535-.244A2.065,2.065,0,0,1,15.7,12a13.225,13.225,0,0,1-1.824-3.1,11.4,11.4,0,0,1-.851-3.491A46.108,46.108,0,0,1,12.486.775q-.146-2.3-.146-4.639,0-1.317.048-2.612t.147-2.612a22.7,22.7,0,0,1,.389-3.539,25.085,25.085,0,0,1,.924-3.539,5.629,5.629,0,0,1,1.8-2.3,5.648,5.648,0,0,1,2.772-1.123,5.781,5.781,0,0,1,2.771,1.1,5.063,5.063,0,0,1,1.751,2.32,25.645,25.645,0,0,1,.85,3.075,21.491,21.491,0,0,1,.413,3.076,1.8,1.8,0,0,0-.024.513,3.119,3.119,0,0,0,.074.463,1.064,1.064,0,0,0,.024.219A1.187,1.187,0,0,1,24.3-8.6v.732a2.038,2.038,0,0,0,.024.342,2.148,2.148,0,0,1,.024.341q.049.733.05,1.44v1.392q-.051,1.417-.1,2.855M42.332-20.22H33.25v.831h.928q1.026.147,1.172.831a7.285,7.285,0,0,1,.146,1.513V10.881a2.5,2.5,0,0,1-.415,1.342,1.478,1.478,0,0,1-.61.463H33.25v.831h9.569a10.077,10.077,0,0,0,4.833-.831,8.438,8.438,0,0,0,3.808-3.173A21.476,21.476,0,0,0,53.561,5,19.157,19.157,0,0,0,54.488.091q.1-.78.121-1.66t.024-1.758a36.2,36.2,0,0,0-.244-4.125,21.966,21.966,0,0,0-.879-4.126,19.2,19.2,0,0,0-1.66-3.783,10.54,10.54,0,0,0-2.636-3.052,10.349,10.349,0,0,0-6.883-1.807m6.3,28.61-.342,1.026-.39.781a6.057,6.057,0,0,1-.415.708,3.329,3.329,0,0,1-.9.757,4,4,0,0,1-1.221.634,8.409,8.409,0,0,1-1.366.293H39.743V-19.389h2.149a7.4,7.4,0,0,1,4.541,1.171,4.373,4.373,0,0,1,1.489,1.831,15.388,15.388,0,0,1,.805,2.221.342.342,0,0,0,.024.147.332.332,0,0,1,.025.147v.2a58.428,58.428,0,0,1,.976,10.545A55.713,55.713,0,0,1,48.58,8.293Zm28.648-4a14.193,14.193,0,0,1-.415,4.126A5.469,5.469,0,0,1,75.446,11a5.1,5.1,0,0,1-2.392,1.245,16.338,16.338,0,0,1-3.344.39H63.8L77.961-19.731H59.409v9.13h.732a14.114,14.114,0,0,1,.415-4.126,5.279,5.279,0,0,1,1.416-2.465,5.242,5.242,0,0,1,2.417-1.221,19.584,19.584,0,0,1,3.417-.439h5.029L58.676,13.517H78.01V4.387Z" transform="translate(13.529 20.415)" fill="#2b2e34"/></g><g transform="translate(160 3721.203)"><path d="M1.532.927,7.291-3.095q.637-.438.637-.731,0-.537-.684-.537a.651.651,0,0,0-.39.147L1.532-.555-3.3,2.893-6.573,5.187q-.635.489-.635.732,0,.587.616.587a1,1,0,0,0,.52-.179L-3.3,4.383Z" transform="translate(7.208 4.363)" fill="#2b2e34"/></g><g transform="translate(243.125 3700.775)"><path d="M1.275.008Q.2.008-.433-.04h-2.3L-4.29,3.377Q-5.365,5.867-5.9,7.185a.75.75,0,0,0-.1.293c0,.162.1.244.293.244q.487,0,3.418-3.076L2.154.008Z" transform="translate(6 0.04)" fill="#2b2e34"/></g><g transform="translate(192 3700.775)"><path d="M1.275.008Q.2.008-.433-.04h-2.3L-4.29,3.377Q-5.365,5.867-5.9,7.185a.75.75,0,0,0-.1.293c0,.162.1.244.293.244q.487,0,3.418-3.076L2.154.008Z" transform="translate(6 0.04)" fill="#2b2e34"/></g></g></svg>