<svg xmlns="http://www.w3.org/2000/svg" xmlns:xlink="http://www.w3.org/1999/xlink" width="1652.165" height="1701.879" viewBox="0 0 1652.165 1701.879"><defs><clipPath id="a"><rect width="1652.165" height="1701.879" transform="translate(0 0.001)" fill="none"/></clipPath></defs><g transform="translate(0 -0.001)"><g clip-path="url(#a)"><path d="M1624.333,1152.692c-16.143-37.194-36.607-73.686-47.564-111.48-15.229-52.529,18.373-114.405-5.6-161.688-10.857-21.412-27.986-38.076-41.434-57.648-60.677-88.311,41.119-107.638,80.169-160.308,46.667-62.958,11.106-177.964-8.547-246.025-18.019-62.4-28.261-138.519-57.851-195.25-38.225-73.284-91.984-70.433-158.806-65.493-72.219,5.34-148.735,14.335-220.314,4.342-53.55-7.477-107.485-24.573-161.882-21.022-109.725,7.165-203.162,91.128-272.3-51.773C704.01,32.219,684.92-9.065,617.148,8.575,591.277,15.309,567.693,28,544.8,42.293c-74.818,46.715-157.812,94.876-240.608,131.14C213.415,213.191,111.132,216.439,29.1,279.257c-17.872,13.685,9.488,141.986,4.212,173.013-9.011,53-46.012,121.583-18.74,174.506,11.457,22.217,30.466,38.4,45.126,58.235,27.756,37.548,22.8,100.7,23.415,146.643,1.071,80.355,16.93,167.445,42.518,242.584,42.647,125.234,104.246,152.87,212.069,180.79,75.151,19.46.045,183.344,104.256,137.389,64.763-28.559,108.625-51.277,174.76-12.851,61.085,35.492,110.386,100.79,146.542,164.005,23.779,41.576,37.954,33.195,75.167,39.591,44.382,7.627,61.155,15.477,97.765,52.324,76.013,76.506,180.982-47.407,276.3-29.7,70.882,13.167,119.7,68.841,186.528,88.256,6.3,1.829,12.452,4.76,19.21,2.857,6.649-1.265,11.309-5.521,14.687-11.7,2.184-4.223,2.637-8.79,2.507-13.562-.339-12.4-.974-24.769-.518-37.2,2.557-69.645,23.279-135.031,63.239-189.506,38.387-52.331,104.843-72.782,133.958-132.872,27.943-57.683,14.025-109.161-7.762-159.36" fill="#f2f1ef"/><path d="M1628.611,1150.256c-12.934-29.589-28.206-58.175-39.74-88.369-5.258-13.765-10.029-27.754-11.268-42.52-1.192-14.215.034-28.493,1.7-42.616,3.016-25.519,8.223-51.944,3.413-77.57-5.141-27.391-24.3-47.833-40.8-69.152-13.36-17.257-27.759-38.507-26.491-61.434.9-16.256,10.887-29.49,22.378-40.206,25.7-23.97,59.592-39.968,79.088-70.2,24.969-38.718,23.036-88.868,16.226-132.573-7.519-48.256-23.487-94.285-35.194-141.538-13.639-55.048-23.014-112.853-48.938-163.878-10.385-20.44-24.011-39.609-43.135-52.705-15.755-10.789-34.374-16.226-53.232-18.141-21.159-2.15-42.507-.666-63.653.874-32.012,2.331-63.974,5.333-96.017,7.236-33.771,2.005-67.736,2.9-101.493.151-32.475-2.639-64.224-9.689-96.188-15.657-30.918-5.773-62.385-10.322-93.907-8.02-20.49,1.5-40.705,5.682-60.617,10.6C904.822,153.4,867.3,167.5,829.736,164.43c-44.549-3.643-73.547-37.662-92.671-75.3C720.614,56.757,705.276,12.863,666.118,2.4c-22.657-6.05-47.635.268-68.9,8.435-28.194,10.827-53.273,27.686-78.89,43.376-56,34.3-113.1,67-172.228,95.634-28.088,13.6-56.468,26.354-86.162,36.056-26.678,8.716-53.873,15.7-80.907,23.2-26.934,7.472-53.795,15.476-79.644,26.192a358.7,358.7,0,0,0-37.29,17.875C50.178,259.811,36.68,267.1,26.62,276.441c-7.6,7.062-7.85,19.062-8.1,28.727-.464,17.875,1.433,35.839,3.268,53.594,1.97,19.062,4.366,38.082,6.124,57.166,1.347,14.62,2.677,29.11-.314,43.584C17.463,508.555-9.315,559.414,3.32,610.5c6.9,27.876,27.906,47.52,45.589,68.883,17.159,20.728,24.6,44.4,27.55,70.91,2.847,25.62,1.983,51.425,2.11,77.149a735.675,735.675,0,0,0,6.252,90.615c7.763,60.042,21.347,120.477,43.208,177.032,14.963,38.711,35.842,76.147,67.894,103.281,28.711,24.305,63.644,38.635,99.251,49.6,10.543,3.248,21.171,6.212,31.832,9.044,7.457,1.982,14.84,3.548,21.309,7.957,10.395,7.085,15.824,18.982,19.048,30.753,7.033,25.674,4.681,52.841,10.776,78.674,2.272,9.628,6.171,19.782,14.644,25.61,9.693,6.668,22.318,5.323,33.077,2.435,24.331-6.531,46.658-20.19,70.392-28.651,25.112-8.953,51.19-13.418,77.492-7.056,29.326,7.1,55.895,24.956,78.642,44.247,21.726,18.426,40.975,39.678,58.373,62.191,18.149,23.486,33.943,48.458,48.925,74.045,9.121,15.577,19.983,30.133,38.225,34.835,8.182,2.109,16.748,2.522,25.111,3.489a296.526,296.526,0,0,1,34.22,6.015,127.391,127.391,0,0,1,55.054,28.221c16.9,14.554,30.63,32.29,52.217,40.155,17.285,6.3,35.792,6.022,53.648,2.517,42.458-8.336,80.5-31.133,121.37-44.478,20.2-6.6,41.7-11.339,63.054-9.072,26.247,2.786,51.281,13.885,74.194,26.448,22.751,12.475,44.248,27.079,66.9,39.732a290.452,290.452,0,0,0,35.43,17.09c10.357,4.064,24.106,10.677,35.353,9.583a28.347,28.347,0,0,0,23.041-17.09c5.472-12.443,1.722-29.157,1.732-42.356a351.708,351.708,0,0,1,11.718-88.516c14.13-53.88,41.312-105.963,84.515-141.972,36.849-30.714,80.06-55.483,101.381-100.525a156.652,156.652,0,0,0,14.647-81.778c-2.6-27.606-11.974-53.964-22.88-79.267-2.115-4.907-10.452.475-8.557,4.872,11.372,26.384,21.159,53.91,22.884,82.826,1.836,30.771-6.2,62.443-23.353,88.171-26.818,40.217-72.109,61.8-105.823,95.182-37.486,37.116-61.114,89.271-73.344,140a360.858,360.858,0,0,0-10.171,83.87c-.006,7.233.262,14.462.489,21.69.275,8.747.725,19.047-7.893,24.216-7.291,4.373-15.779.559-23.073-1.682-6.6-2.028-13.087-4.334-19.459-7-47.568-19.9-87.228-54.96-135.9-72.593-20.649-7.482-41.914-11.68-63.884-9.392-20.56,2.14-40.462,8.49-59.677,15.871-38.243,14.689-77.018,37.522-118.73,39.885-19.346,1.1-38.025-4.16-53.392-16.126-18.1-14.089-32.021-32.264-52.261-43.809-18.092-10.319-38.959-14.711-59.338-17.881-15.775-2.453-34.41-1.156-48.077-10.654-9-6.257-15.342-16.069-20.814-25.349-6.757-11.458-13.453-22.921-20.654-34.11a539.164,539.164,0,0,0-51.938-68.863c-34.594-38.487-81.721-79.6-135.6-84.054-24.29-2.009-47.952,3.993-70.5,12.568-12.775,4.859-25.269,10.429-37.762,15.963-9.515,4.215-19.052,8.865-29.281,11.115-10.432,2.3-21.429,1.626-28.359-7.4-6.5-8.464-8.238-20.273-9.586-30.542-3.378-25.733-2.031-53.62-12.691-77.822-4.683-10.632-12.184-19.942-22.8-25.06-7.651-3.688-16.326-5.172-24.468-7.385-10.155-2.76-20.273-5.662-30.3-8.847-35.63-11.313-70.6-26.747-98.139-52.645-31.512-29.637-50.852-69.338-64.935-109.664-20.477-58.635-33.61-120.088-39.89-181.848a804.54,804.54,0,0,1-3.759-84.5c.093-25.179.267-50.612-4.043-75.506-4.18-24.139-13.123-44.425-28.933-63.15-18.618-22.051-39.656-42.636-44.172-72.471-3.987-26.348,2.3-53.131,9.309-78.42,6.358-22.934,15.49-46.165,18.277-69.91,1.621-13.8-.253-28.173-1.608-41.914-1.869-18.947-4.228-37.843-6.117-56.789-1.68-16.84-3.406-33.923-2.714-50.867.2-4.936.212-11.33,2.506-15.863,1.243-2.457,2.362-2.981,4.963-4.9q9.2-6.781,18.955-12.749c48.2-29.6,103.469-43.312,157.45-58.165,26.623-7.324,53.2-15.024,78.907-25.171,28.323-11.18,55.845-24.705,82.979-38.48,57.4-29.14,112.982-61.765,167.628-95.757,25.536-15.883,51.893-31.109,81.554-37.715,20.1-4.477,41.454-3.887,58.541,8.76,15.883,11.755,25.787,30.315,34.543,47.545,10.93,21.509,20.593,43.553,35.636,62.642,22.893,29.051,54.351,44.408,91.379,42.948,36.932-1.456,72.562-14.672,108.286-22.908,21.906-5.05,44.158-8.531,66.689-8.45,32.885.118,65.319,6.845,97.457,13.122,31.219,6.1,62.307,11.058,94.134,12.369,32.168,1.325,64.382-.078,96.479-2.277,30.144-2.066,60.23-4.906,90.378-6.93,20.945-1.407,42.269-2.537,63.063,1.062,19.71,3.412,37.973,11.726,52.56,25.57,18.587,17.639,30.429,41.141,39.722,64.7,20.919,53.028,29.215,109.869,44.6,164.532,12.747,45.291,26.638,90.463,31.087,137.528,4.173,44.142-.141,91.338-34.253,123.185-24.153,22.549-56.95,37.843-75.7,65.8-23.751,35.41-1.494,72.452,21.7,101.585,17.844,22.413,34.8,43.709,36.562,73.418,1.571,26.442-4.6,52.658-6.568,78.923-2.044,27.332,3.151,51.151,13.191,76.509,11.33,28.615,25.742,55.881,38.061,84.064,2.142,4.9,10.474-.486,8.557-4.872"/></g></g></svg>