<svg xmlns="http://www.w3.org/2000/svg" width="146.327" height="43.608" viewBox="0 0 146.327 43.608"><g transform="translate(-465 -3910.312)"><path d="M1.275.008Q.2.008-.433-.04h-2.3L-4.29,3.377Q-5.365,5.867-5.9,7.185a.75.75,0,0,0-.1.293c0,.162.1.244.293.244q.487,0,3.418-3.076L2.154.008Z" transform="translate(555 3910.352)" fill="#2b2e34"/><g transform="translate(465 3919.549)"><path d="M3.192.7A8.283,8.283,0,0,0,.7-1.789,8.089,8.089,0,0,0-1.837-2.862a9.08,9.08,0,0,0-2.783-.245h-10.4v.831h1.074A1.008,1.008,0,0,1-13.6-2.2a1.3,1.3,0,0,1,.39.245,1.4,1.4,0,0,1,.342.536,2.79,2.79,0,0,1,.146,1V27.407a3.816,3.816,0,0,1-.2,1.368,2.126,2.126,0,0,1-.415.708,1.319,1.319,0,0,1-.658.316h-1.026v.831h8.641V29.8H-7.11a1,1,0,0,1-.831-.366,2.544,2.544,0,0,1-.439-.829,4.76,4.76,0,0,1-.2-.879c-.033-.276-.049-.432-.049-.464V15.691a6.858,6.858,0,0,0,.854.048h1.734a7.133,7.133,0,0,0,.879-.048,7.882,7.882,0,0,0,1.757,0A14.307,14.307,0,0,0-1.691,15.4a7.922,7.922,0,0,0,2.784-1.342,8.6,8.6,0,0,0,1.976-2.149,9.43,9.43,0,0,0,1.2-2.71,11.546,11.546,0,0,0,.39-2.978,11.33,11.33,0,0,0-.244-2.2A8.045,8.045,0,0,0,3.192.7M-1.495,12.663v-.049a4.842,4.842,0,0,1-.879,1,4.37,4.37,0,0,1-1.026.66,12.737,12.737,0,0,1-3.759.586c-.228,0-.473-.007-.732-.024s-.506-.04-.732-.074V-2.228H-5.06A4.372,4.372,0,0,1-1.837-.274a10.222,10.222,0,0,1,.829,1.807,15.238,15.238,0,0,1,.537,1.9A25.572,25.572,0,0,1-.324,6.267c0,.652-.024,1.294-.074,1.929S-.5,9.474-.567,10.124a9.491,9.491,0,0,1-.928,2.539m32.348-2.441a25.827,25.827,0,0,0-.586-3.857,20.752,20.752,0,0,0-1.2-3.637A10.849,10.849,0,0,0,27.093-.324a9.432,9.432,0,0,0-2.928-2.123A9.926,9.926,0,0,0,20.112-3.3h-.2a10.1,10.1,0,0,0-4.076.855A9.348,9.348,0,0,0,12.887-.324a10.849,10.849,0,0,0-1.978,3.052,20.749,20.749,0,0,0-1.2,3.637,25.515,25.515,0,0,0-.586,3.857q-.147,1.953-.147,3.71a33.385,33.385,0,0,0,.39,5.541,19.083,19.083,0,0,0,1.66,5.493A11.973,11.973,0,0,0,14.4,29.214a9.181,9.181,0,0,0,5.468,1.855h.342A8.994,8.994,0,0,0,25.6,29.214a12.1,12.1,0,0,0,3.345-4.247,19.121,19.121,0,0,0,1.66-5.493A33.648,33.648,0,0,0,31,13.932q0-1.757-.147-3.71m-4.931,5.394q-.049,1.44-.147,2.857a35.355,35.355,0,0,1-.632,5.614,10.192,10.192,0,0,1-.851,2.686,9.784,9.784,0,0,1-1.58,2.344,1.947,1.947,0,0,1-.56.39,3.549,3.549,0,0,0-.461.244,5.221,5.221,0,0,1-1.654.293,4.654,4.654,0,0,1-1.653-.293q-.244-.1-.535-.244a2.065,2.065,0,0,1-.535-.39,13.225,13.225,0,0,1-1.824-3.1,11.4,11.4,0,0,1-.851-3.491,46.091,46.091,0,0,1-.535-4.639q-.146-2.293-.146-4.638,0-1.319.048-2.612t.147-2.612a22.846,22.846,0,0,1,.389-3.539,25.144,25.144,0,0,1,.924-3.54,5.731,5.731,0,0,1,4.57-3.417,5.757,5.757,0,0,1,2.771,1.1A5.066,5.066,0,0,1,24.561.945a25.9,25.9,0,0,1,.851,3.076A21.819,21.819,0,0,1,25.825,7.1a1.75,1.75,0,0,0-.025.513,3.148,3.148,0,0,0,.074.463,1.064,1.064,0,0,0,.024.219,1.186,1.186,0,0,1,.024.219v.732a2.019,2.019,0,0,0,.024.342,2.175,2.175,0,0,1,.024.342q.049.733.05,1.44v1.392q-.049,1.415-.1,2.855M53.165,21.5a14.146,14.146,0,0,1-.416,4.126,5.457,5.457,0,0,1-1.415,2.489,5.118,5.118,0,0,1-2.392,1.245,16.348,16.348,0,0,1-3.344.39H39.689L53.847-2.618H35.3v9.13h.731a14.067,14.067,0,0,1,.416-4.126A5.288,5.288,0,0,1,37.858-.079,5.246,5.246,0,0,1,40.276-1.3a19.584,19.584,0,0,1,3.417-.439h5.029L34.564,30.63H53.9V21.5ZM74.4-3.057v.829h.684a1.385,1.385,0,0,1,.805.048,1.873,1.873,0,0,1,.708.44A6.443,6.443,0,0,1,77.107-.3a3.947,3.947,0,0,1,.073,1.439q.1,4.2.1,8.349V21.842L65.316-3.057H58.822v.829a2.96,2.96,0,0,1,1.392.147,1.179,1.179,0,0,1,.805,1.074V21.548q0,2.393-.049,4.883a4.861,4.861,0,0,1-.634,2.881,2.432,2.432,0,0,1-.561.415.748.748,0,0,1-.611.073h-.829v.831h6.64V29.8h-.635a1.365,1.365,0,0,1-.805-.049,1.87,1.87,0,0,1-.708-.439,4.333,4.333,0,0,1-.634-2.881q-.1-.977-.1-2.27V.6L76.5,30.63h1.856V3.192a18.764,18.764,0,0,1,.1-2.052,4.5,4.5,0,0,1,.635-2.88,1,1,0,0,1,1.171-.489h.781v-.829ZM105.261,29.8a1.16,1.16,0,0,1-.732-.268,2.684,2.684,0,0,1-.586-.635,3.733,3.733,0,0,1-.39-.757,4.247,4.247,0,0,1-.2-.634l-.39-1.318L95.106-3.057l-2.294-.05-8.056,31a3.155,3.155,0,0,1-.171.61,2.526,2.526,0,0,1-.318.586,1.7,1.7,0,0,1-.463.44.872.872,0,0,1-.611.121,1.364,1.364,0,0,1-.732,0v.977h5.907V29.8a8.209,8.209,0,0,1-1.463-.171,1.332,1.332,0,0,1-.684-.344.743.743,0,0,1-.147-.614c.032-.262.1-.605.2-1.031l.2-.932,1.368-5.79h2.123q1.246,0,2.539.024t2.515.024h2.1l1.758,6.625a3.858,3.858,0,0,1,.121,1.325.946.946,0,0,1-.292.612.885.885,0,0,1-.464.2c-.164.017-.276.024-.342.024l-.732.049v.835H105.7V29.8ZM88.125,19.743,92.519,2.752l4.3,17.039Zm36.543-22.8v.829h.683a1.389,1.389,0,0,1,.806.048,1.877,1.877,0,0,1,.707.44,6.324,6.324,0,0,1,.513,1.44,3.975,3.975,0,0,1,.074,1.439q.1,4.2.1,8.349V21.842l-11.961-24.9h-6.493v.829a2.955,2.955,0,0,1,1.391.147,1.18,1.18,0,0,1,.806,1.074V21.548q0,2.393-.049,4.883a4.871,4.871,0,0,1-.635,2.881,2.432,2.432,0,0,1-.561.415.745.745,0,0,1-.61.073H108.6v.831h6.64V29.8h-.634a1.369,1.369,0,0,1-.806-.049,1.866,1.866,0,0,1-.707-.439,4.341,4.341,0,0,1-.635-2.881q-.1-.977-.1-2.27V.6l14.4,30.026h1.855V3.192a18.437,18.437,0,0,1,.1-2.052,4.493,4.493,0,0,1,.634-2.88,1,1,0,0,1,1.171-.489h.782v-.829Z" transform="translate(15.019 3.302)" fill="#2b2e34"/></g></g></svg>