<svg xmlns="http://www.w3.org/2000/svg" xmlns:xlink="http://www.w3.org/1999/xlink" width="188.85" height="94.233" viewBox="0 0 188.85 94.233"><defs><clipPath id="a"><path d="M0,69.473H188.85V-24.76H0Z" transform="translate(0 24.76)" fill="none"/></clipPath></defs><g transform="translate(0 24.76)"><g transform="translate(0 -24.76)" clip-path="url(#a)"><g transform="translate(92.679 0.001)"><path d="M6.7.233C6.091.32,5.5,2.6,4.3,3.784c-.879.86-1.949.807-2.554,1.876-.209.384-.133,1.069-.369,1.7C.867,8.66-.834,8.8-.849,10.18c0,1.541,1.431,1.838,2.679,2.908,1,.864,1.062,1.469,2.223,1.872,1.031.354,2.535-.757,3.863-.358,1.107.327,2.173.563,2.413,1.713.217,1.035,0,2.66-1.366,2.481a14.217,14.217,0,0,0-4.8-.445c-2.908.308-6.226,1.252-6.55,4.491-.167,1.812,2.063,3.928,4.228,3.505,1.488-.289.788-2.048,1.6-2.9,1.073-1.092,7.106,3.821,12.715,3.821a7.323,7.323,0,0,0,5.876-2.447c.156-.118.373-.411.624-.441a2.457,2.457,0,0,1,.78.354C27.964,28.357,31.374,35.653,48,35.74a11.282,11.282,0,0,1,7.189,3.144c1.922,1.751,3.06,4.556,4.156,7.383C61.021,50.53,64,54.64,68.53,59.233c.24.27,3.969,3.159,4.244,3.368a1.588,1.588,0,0,1,.213,1.031c-.08,2.793-.487,10.809,5.473,11.144,1.465.08,1.1-.94,1.1-1.659-.011-1.382-.255-2.778.457-4.209,1.016-1.941-2.108-2.87-2.04-7.113.076-3.166-2.584-2.63-3.939-5.05-.765-1.389-1.48-2.158-1.4-3.829.289-9.633-2.07-15.977-3.224-17.514-.913-1.184-1.7-1.629-.833-2.181,4.974-3.3,6.112-6.367,6.112-6.367,2.645-6.234,5.031-11.924,8.316-14.447a25.83,25.83,0,0,1,3.41-2.268c3.064-1.465,4.7-2.337,5.564-3.185,1.427-1.366,2.546-4.266,1.176-5.99A2.577,2.577,0,0,0,91.03-.083h-.046a8.141,8.141,0,0,0-3.7,1.37c-9.157,5.442-10.5,15.037-13.693,20.54-2.508,4.411-6.618,7.646-10.337,7.9a18.4,18.4,0,0,1-8.689-1.637,43.77,43.77,0,0,1-12.091-7.973C40.527,18.623,25.528,3.867,13.307,3.266c0,0-1.492-3.033-1.865-3.087C10.548.077,9.635,2,8.969,2.2,8.367,2.417,7.317.134,6.7.233" transform="translate(2.389 0.083)"/></g><g transform="translate(33.52 48.285)"><path d="M10.791,29.568a2.161,2.161,0,0,1-2.127-2.112L8.671-9.606a.932.932,0,0,0-.932-.932H-2.91a.935.935,0,0,0-.936.932V30.4A4.657,4.657,0,0,0,.808,35.056h20a4.649,4.649,0,0,0,4.647-4.647V-9.606a.934.934,0,0,0-.932-.932H13.855a.935.935,0,0,0-.936.932V27.456a2.174,2.174,0,0,1-2.127,2.112" transform="translate(3.846 10.538)"/></g><g transform="translate(67.078 48.282)"><path d="M16.95,0H-1.044a5,5,0,0,0-5,5V44.662a.934.934,0,0,0,.932.932H5.54a.934.934,0,0,0,.932-.932V7.505A2.144,2.144,0,0,1,8.6,5.42,2.116,2.116,0,0,1,10.731,7.5V44.662a.935.935,0,0,0,.936.932H22.278a.934.934,0,0,0,.932-.932V7.5a2.1,2.1,0,0,1,2.124-2.08,2.132,2.132,0,0,1,2.135,2.086V44.662a.934.934,0,0,0,.932.932h10.65a.934.934,0,0,0,.932-.932V4.993A4.991,4.991,0,0,0,34.99,0Z" transform="translate(6.041)"/></g><g transform="translate(-0.002 48.281)"><path d="M12.368,5.586a2.141,2.141,0,0,0-2.135-2.139H8.094V26.515h2.139a2.138,2.138,0,0,0,2.135-2.166Zm8.4,26.565H9.027a.932.932,0,0,0-.932.932v9.591a.935.935,0,0,1-.936.932H-3.472a.935.935,0,0,1-.936-.932V-1.059a.935.935,0,0,1,.936-.932H19.9a4.959,4.959,0,0,1,4.955,4.959v25.08a4.094,4.094,0,0,1-4.087,4.1" transform="translate(4.408 1.991)"/></g><g transform="translate(117.364 48.282)"><path d="M12.36,21.016v-21a2.132,2.132,0,0,0-2.131-2.067A2.165,2.165,0,0,0,8.086.046v20.97ZM13.292,38.1a.934.934,0,0,1-.932-.932V26.66H8.112V37.172a.934.934,0,0,1-.932.932H-3.473a.934.934,0,0,1-.932-.932V-2.47A5.022,5.022,0,0,1,.615-7.49H19.861a5.023,5.023,0,0,1,5.024,5.021V37.172a.935.935,0,0,1-.936.932Z" transform="translate(4.405 7.49)"/></g><g transform="translate(153.877 85.4)"><path d="M1.08,2.1c.868,0,1.32-.33,1.32-.916C2.4.625,1.948.339,1.1.339H.852V2.1ZM4.269,5.7h-1.5L.852,3.156v2.55H-.385V-.749H.928c1.732,0,2.656.643,2.656,1.892a1.859,1.859,0,0,1-1.3,1.807l-.08.042Z" transform="translate(0.385 0.749)"/></g><g transform="translate(150.284 82.994)"><path d="M4.094,8.286h.145a5.6,5.6,0,0,0,5.488-5.64,5.566,5.566,0,0,0-5.659-5.6H3.961a1.359,1.359,0,0,0-.217.008,5.624,5.624,0,0,0,.35,11.231M3.953-2.12h.213A4.734,4.734,0,0,1,8.84,2.68,4.73,4.73,0,0,1,4.166,7.486,4.763,4.763,0,0,1-.542,2.676,4.777,4.777,0,0,1,3.721-2.1a1.23,1.23,0,0,1,.232-.015" transform="translate(1.459 2.953)"/></g></g></g></svg>