<svg xmlns="http://www.w3.org/2000/svg" xmlns:xlink="http://www.w3.org/1999/xlink" width="279.243" height="62.667" viewBox="0 0 279.243 62.667"><defs><clipPath id="a"><path d="M0,31.011H279.243V-31.656H0Z" transform="translate(0 31.656)" fill="none"/></clipPath></defs><g transform="translate(0 31.656)"><g transform="translate(0 -31.656)" clip-path="url(#a)"><g transform="translate(239.437 0.734)"><path d="M0,0H13.3V22.4h5.242c5.185-.432,7.915-5.78,7.76-11.434H39.428c.063,9.956-2.461,14.526-9.593,17.268,2.882.986,9.971,4,9.971,15.166v7.649H26.567V42.976c0-3.633-3.365-9.2-9.342-8.97H13.3V51.045H0Z"/></g><g transform="translate(190.71 11.096)"><path d="M11.214,15.285a9.739,9.739,0,0,0,9.508-9.967,9.683,9.683,0,0,0-9.508-9.876A9.712,9.712,0,0,0,1.662,5.318a9.767,9.767,0,0,0,9.552,9.967M-11.447,5.4c0-11.589,8.227-21,22.661-21,14.566,0,22.69,9.415,22.69,21,0,11.612-8.6,21.018-22.69,21.018-13.489,0-22.661-9.4-22.661-21.018" transform="translate(11.447 15.603)"/></g><g transform="translate(144.347 0.733)"><path d="M12.374,5.438H3.42V17.05l6.374.048c4.029,0,7.485,3.672,7.485,8.3,0,5.6-4.25,8.368-7.3,8.431H.617V-5.551H-12.631V45.493H9.927c9.52,0,20.7-7.418,20.7-19.658,0-12.3-8.888-20.4-18.25-20.4" transform="translate(12.631 5.551)"/></g><g transform="translate(0 0.002)"><path d="M24.58,8.858c0-11.413-10.262-17.9-19.254-17.9H-25.091V42.733H-12.21V2.923l14.918.024c4.438,0,8.251,2.522,8.251,8.407,0,4.789-3.106,8.1-7.346,8.271l-.382.016H-8.482V31.113H-.714c6.4.291,9.734,3.1,9.8,10.587V53.623H22.541V38.15c0-6.822-5.45-10.941-8.744-12.571l-.051-.091.1-.1c6.9-2.558,10.733-8.978,10.733-16.526" transform="translate(25.091 9.042)"/></g><g transform="translate(96.362 11.74)"><path d="M10.357,14.069A8.219,8.219,0,0,1,2.349,5.65,8.255,8.255,0,0,1,10.357-2.8h8.829L11.208,11.132H24.061L32.324-2.389V-14.362l-23.9.022c-10.49,0-19,8.95-19,20s8.51,20.012,19,20.012H32.4v-11.6Z" transform="translate(10.572 14.362)"/></g><g transform="translate(50.829 11.739)"><path d="M6.388,9.9a8.261,8.261,0,0,1,8.055-8.455h8.819L15.277,15.386H28.152L36.391,1.865V-10.11L12.5-10.082c-10.5,0-19.024,8.946-19.024,20S2,29.928,12.5,29.928H36.466v-11.6H14.443A8.224,8.224,0,0,1,6.388,9.9" transform="translate(6.521 10.11)"/></g></g></g></svg>