<svg xmlns="http://www.w3.org/2000/svg" width="174.014" height="34.908" viewBox="0 0 174.014 34.908"><path d="M2.4.1V.857a.875.875,0,0,1-.171.219c-.081.082-.155.107-.219.074A6.527,6.527,0,0,1,.7.613H.745a8.4,8.4,0,0,0-4-1.074A6.607,6.607,0,0,0-5.724.076,6.912,6.912,0,0,0-7.678,1.37,9.033,9.033,0,0,0-9.166,3.2a12.472,12.472,0,0,0-1.074,2.2,10.214,10.214,0,0,0-.586,3.32,9.857,9.857,0,0,0,1.9,5.907,25.743,25.743,0,0,0,3.15,3.1,33.941,33.941,0,0,0,3.588,2.612,5.286,5.286,0,0,0,.439.39,2.509,2.509,0,0,0,.44.293l.586.537q.293.293.586.536a3.176,3.176,0,0,1,.537.587,8.21,8.21,0,0,1,2.05,5.272,4.921,4.921,0,0,1-.342,2.271A4.7,4.7,0,0,1,.745,32.1a5.827,5.827,0,0,1-3.808,1.318,7.616,7.616,0,0,1-1.489-.049,11.864,11.864,0,0,1-1.44-.293,5.14,5.14,0,0,1-2.026-1.537A9.983,9.983,0,0,1-9.46,29.1a13.3,13.3,0,0,1-.854-3.028,20.254,20.254,0,0,1-.269-3.3h-.732V33.811h.782v-.634a.591.591,0,0,1,.145-.464.432.432,0,0,1,.342-.1,1.241,1.241,0,0,1,.39.121c.13.065.228.115.293.147q.977.44,1.929.806a11.582,11.582,0,0,0,1.976.561q.537.1,1.1.145t1.1.05A12.335,12.335,0,0,0-1.453,34.3a8.478,8.478,0,0,0,3.637-1.614A8.661,8.661,0,0,0,4.7,29.557v.05a7.789,7.789,0,0,0,.953-2.273,9.635,9.635,0,0,0,.219-2.518,7.872,7.872,0,0,0-.44-2.591,9.709,9.709,0,0,0-1-2.273,9.954,9.954,0,0,0-1.489-1.932q-.586-.538-1.368-1.271c-.52-.49-.993-.9-1.415-1.223L-1.4,14.5q-.829-.537-1.513-1.075A12.916,12.916,0,0,1-5.7,10.953,11.359,11.359,0,0,1-7.6,7.8a7.725,7.725,0,0,1-.2-1.859,8,8,0,0,1,.683-3.325A4,4,0,0,1-5.553,1.053a4.03,4.03,0,0,1,1.9-.49A4.731,4.731,0,0,1-1.867.93,6,6,0,0,1-.183,1.98,11.848,11.848,0,0,1,2.4,9.45h.684V7.839q0-.733-.024-1.489t.024-1.537V.1ZM27.616,24.145A14.184,14.184,0,0,1,27.2,28.27a5.474,5.474,0,0,1-1.416,2.49A5.1,5.1,0,0,1,23.393,32a16.417,16.417,0,0,1-3.344.392H14.14L28.3.026H9.747v9.13h.732a14.064,14.064,0,0,1,.415-4.125,5.283,5.283,0,0,1,1.416-2.466,5.234,5.234,0,0,1,2.417-1.22,19.46,19.46,0,0,1,3.417-.44h5.029L9.015,33.274H28.348V24.145ZM51.25,22.778a20.757,20.757,0,0,1-.219,2.881,15.793,15.793,0,0,1-.732,3.026A9.3,9.3,0,0,1,48.906,31.3a4.512,4.512,0,0,1-2.2,1.586,8.489,8.489,0,0,1-1.855.244,6.881,6.881,0,0,1-2.441-.439,2.449,2.449,0,0,1-.928-.537.827.827,0,0,1-.244-.1h.049a10.51,10.51,0,0,1-1.562-2.344,9.931,9.931,0,0,1-.831-2.636,48.053,48.053,0,0,1-.732-5.567q-.1-1.415-.147-2.807t-.048-2.807q0-1.415.048-2.808t.2-2.855a18.945,18.945,0,0,1,.366-3.223,24.853,24.853,0,0,1,.855-3.125A8.9,8.9,0,0,1,40.8,2.1,6.485,6.485,0,0,1,42.487.955a4.822,4.822,0,0,1,2.318-.44,4.539,4.539,0,0,1,2.344,1.294,8.28,8.28,0,0,1,1.587,2.32,12.478,12.478,0,0,1,.9,2.758A13.225,13.225,0,0,1,49.932,9.5h.732V-.022h-.732V.613c0,.261-.049.423-.147.487a.482.482,0,0,1-.342.074,1.185,1.185,0,0,1-.39-.122L48.761.905A10.98,10.98,0,0,0,44.367-.364h-.44a9.043,9.043,0,0,0-5.662,1.758,11.453,11.453,0,0,0-3.32,4.272,19.276,19.276,0,0,0-1.563,5.565,43.8,43.8,0,0,0-.39,5.639,32,32,0,0,0,.122,3.71,23.213,23.213,0,0,0,.658,3.833,19.945,19.945,0,0,0,1.318,3.613,11.124,11.124,0,0,0,2.1,3.026,10.224,10.224,0,0,0,2.978,2.1,9.8,9.8,0,0,0,4,.854,12.655,12.655,0,0,0,2.563-.268,20.747,20.747,0,0,0,2.563-.708.8.8,0,0,0,.244-.049,1.942,1.942,0,0,0,.244-.1.279.279,0,0,0,.2-.1h-.048a1.217,1.217,0,0,1,.732-.122.91.91,0,0,1,.39.219,1.1,1.1,0,0,1,.2.489v.292h.732V22.778Zm23.844,1.368a14.1,14.1,0,0,1-.415,4.125,5.452,5.452,0,0,1-1.416,2.49A5.093,5.093,0,0,1,70.871,32a16.417,16.417,0,0,1-3.344.392H61.619L75.777.026H57.225v9.13h.732a14.105,14.105,0,0,1,.415-4.125,5.294,5.294,0,0,1,1.416-2.466A5.246,5.246,0,0,1,62.2,1.346a19.49,19.49,0,0,1,3.418-.44h5.028L56.493,33.274H75.826V24.145Zm22.824-1.172v.635a14.649,14.649,0,0,1-.463,3.3,8.41,8.41,0,0,1-1.294,2.807,6.689,6.689,0,0,1-2.271,1.978,7.285,7.285,0,0,1-3.344.805H87.079V17.212h2.344a2.822,2.822,0,0,1,1.636.561,3.8,3.8,0,0,1,1.05,1.269,5.568,5.568,0,0,1,.537,1.66,10.636,10.636,0,0,1,.146,1.684h.732V11.5h-.781a8.337,8.337,0,0,1-.171,1.636,6.237,6.237,0,0,1-.537,1.586,3.172,3.172,0,0,1-1.025,1.2,2.689,2.689,0,0,1-1.587.463H87.079V.418a29.649,29.649,0,0,1,4.2.268,7.421,7.421,0,0,1,3.149,1.147A5.367,5.367,0,0,1,96.38,4.348a11.553,11.553,0,0,1,.61,4.418h.732V-.413H80.635V.418h1.026l.732.292a2.883,2.883,0,0,1,.39.806,1.7,1.7,0,0,1,.049.9V29.808a2.912,2.912,0,0,1-.024,1.124,4.06,4.06,0,0,1-.415,1.123,1.487,1.487,0,0,1-.708.39,4.663,4.663,0,0,1-.708.048h-.342v.781H98.7v-10.3Zm23.761-.2a20.759,20.759,0,0,1-.219,2.881,15.794,15.794,0,0,1-.732,3.026,9.3,9.3,0,0,1-1.392,2.613,4.512,4.512,0,0,1-2.2,1.586,8.489,8.489,0,0,1-1.855.244,6.881,6.881,0,0,1-2.441-.439,2.449,2.449,0,0,1-.928-.537.826.826,0,0,1-.244-.1h.049a10.51,10.51,0,0,1-1.562-2.344,9.932,9.932,0,0,1-.831-2.636,48.052,48.052,0,0,1-.732-5.567q-.1-1.415-.147-2.807t-.049-2.807q0-1.415.049-2.808t.2-2.855a18.949,18.949,0,0,1,.366-3.223,24.856,24.856,0,0,1,.855-3.125A8.9,8.9,0,0,1,111.231,2.1,6.485,6.485,0,0,1,112.916.955a4.822,4.822,0,0,1,2.318-.44,4.539,4.539,0,0,1,2.344,1.294,8.28,8.28,0,0,1,1.587,2.32,12.475,12.475,0,0,1,.9,2.758,13.225,13.225,0,0,1,.293,2.612h.732V-.022h-.732V.613c0,.261-.049.423-.147.487a.482.482,0,0,1-.342.074,1.185,1.185,0,0,1-.39-.122L119.19.905A10.98,10.98,0,0,0,114.8-.364h-.44a9.043,9.043,0,0,0-5.662,1.758,11.453,11.453,0,0,0-3.32,4.272,19.276,19.276,0,0,0-1.563,5.565,43.8,43.8,0,0,0-.39,5.639,32,32,0,0,0,.122,3.71,23.213,23.213,0,0,0,.658,3.833,19.945,19.945,0,0,0,1.318,3.613,11.124,11.124,0,0,0,2.1,3.026,10.224,10.224,0,0,0,2.978,2.1,9.8,9.8,0,0,0,4,.854,12.655,12.655,0,0,0,2.563-.268,20.749,20.749,0,0,0,2.563-.708.8.8,0,0,0,.244-.049,1.941,1.941,0,0,0,.244-.1.279.279,0,0,0,.2-.1h-.049a1.217,1.217,0,0,1,.732-.122.91.91,0,0,1,.39.219,1.1,1.1,0,0,1,.2.489v.292h.732V22.778ZM134.865,32.4a1.026,1.026,0,0,1-1.073-.611,4.024,4.024,0,0,1-.293-1.1V2.223a4,4,0,0,1,.073-1.147.855.855,0,0,1,.806-.708h1.367V-.461h-8.593V.368h1.319a1.06,1.06,0,0,1,.781.757,4.376,4.376,0,0,1,.147,1.1V30.15a3.835,3.835,0,0,1-.147,1.172,1.927,1.927,0,0,1-.366.683,1.06,1.06,0,0,1-.44.318,1.21,1.21,0,0,1-.366.074h-.928v.878h8.593V32.4ZM156.058-.413V.418h.684a1.369,1.369,0,0,1,.806.048,1.86,1.86,0,0,1,.707.439,6.35,6.35,0,0,1,.513,1.44,3.981,3.981,0,0,1,.074,1.44q.1,4.2.1,8.348V24.487L146.978-.413h-6.493V.418a2.938,2.938,0,0,1,1.391.145,1.18,1.18,0,0,1,.806,1.074V24.194q0,2.392-.05,4.882A4.857,4.857,0,0,1,142,31.956a2.364,2.364,0,0,1-.561.415.741.741,0,0,1-.61.074H140v.829h6.64v-.829H146a1.379,1.379,0,0,1-.806-.049,1.868,1.868,0,0,1-.707-.44,4.331,4.331,0,0,1-.635-2.881q-.1-.975-.1-2.27V3.249l14.4,30.025h1.855V5.837a18.741,18.741,0,0,1,.1-2.05,4.507,4.507,0,0,1,.635-2.881,1,1,0,0,1,1.171-.487h.782V-.413Z" transform="translate(11.315 0.461)" fill="#2b2e34"/></svg>