<svg xmlns="http://www.w3.org/2000/svg" xmlns:xlink="http://www.w3.org/1999/xlink" width="208.5" height="71.365" viewBox="0 0 208.5 71.365"><defs><clipPath id="a"><path d="M0,56.39H208.5V-14.975H0Z" transform="translate(0 14.975)" fill="none"/></clipPath></defs><g transform="translate(0 14.975)"><g transform="translate(0 -14.975)" clip-path="url(#a)"><g transform="translate(0.001 0.001)"><path d="M58.243,42.581l5.576-16.637,5.5,16.637Zm-21.1,16.88h14.4l2.683-7.825H73.273l2.755,7.825H90.2L72.068,9.422H56.818Zm153.872-3.112c0,.243-.167.41-.486.41H189.9V55.93h.61c.31,0,.5.138.5.419m.629-.033c0-.6-.434-.939-1.106-.939h-1.258v2.831h.624V57.3h.491l.6.91h.724l-.686-1.015a.88.88,0,0,0,.6-.877m1.082.548a2.342,2.342,0,1,1-.681-1.668,2.352,2.352,0,0,1,.681,1.668m.31,0a2.643,2.643,0,0,0-2.654-2.654,2.662,2.662,0,1,0,2.654,2.655m-84.375-22.7,18.734,25.3H139.12V9.422H125.585V36.639L108.591,9.422H95.634V59.461h13.024ZM-15.467-11.308c.1.434,25.243,70.769,25.243,70.769h15L47.882.935H191.408L192.5-11.308H36.855L17.678,37.22.412-11.308ZM188.225,23.571H176.163C175,20.607,173.689,18.3,166.932,18.3c-4.67,0-6.658,1.925-6.658,3.855,0,2.111,1.663,3.889,6.81,5.028L178.012,30.1A13.663,13.663,0,0,1,188.63,43.678a14.859,14.859,0,0,1-3.884,10.661c-2.373,2.464-5.947,5.719-17.814,5.719-16.322,0-21.684-10.318-21.684-16.551h12.705c1.249,4.551,4.37,6.281,10.561,6.281,4.284,0,7.968-1.525,7.968-4.8,0-3.121-2.669-4.294-6.109-5.233l-8.631-2.33c-4.165-1.268-7.639-2.283-10.1-4.361a12.885,12.885,0,0,1,1.029-20.406c3.874-2.831,7.844-4.308,14.14-4.308,7.4,0,11.623,2.111,14.954,4.4,2.955,2.035,6.457,6.929,6.457,10.823" transform="translate(15.467 11.308)"/></g></g></g></svg>