<svg xmlns="http://www.w3.org/2000/svg" width="211.5" height="35.006" viewBox="0 0 211.5 35.006"><path d="M5.818.017V.848q.928.1,1.44.2a1.047,1.047,0,0,1,.684.341.867.867,0,0,1,.1.66c-.048.276-.122.643-.219,1.1l-.1.781L1.668,27.943.692,24.135l-2.636-10.35q-.44-1.806-.9-3.589T-3.8,6.657c-.1-.293-.188-.586-.269-.879s-.154-.586-.219-.878l-.439-1.807a8.834,8.834,0,0,1-.171-.9,1.294,1.294,0,0,1,.171-.9A1.014,1.014,0,0,1-4.044.9c.033-.033.13-.049.293-.049h.732V.017h-8.1V.848a.209.209,0,0,1,.1.024.226.226,0,0,0,.1.024h.2a3.047,3.047,0,0,1,1.123.757,2.143,2.143,0,0,1,.586,1.2,7.146,7.146,0,0,1,.245,2.686,6.752,6.752,0,0,1-.44,2.392.857.857,0,0,1-.049.342L-14.2,27.895q-.538-2.052-1.074-4.2t-1.074-4.2l-2.2-8.69a.327.327,0,0,1-.1-.245.946.946,0,0,0-.048-.292l-.147-.586-1.758-6.641a2.706,2.706,0,0,1-.146-1.268,1.169,1.169,0,0,1,.316-.635.824.824,0,0,1,.464-.219C-19.8.9-19.683.9-19.617.9l.732-.049V.017h-8.5V.848h.44a1.109,1.109,0,0,1,.684.219,2.118,2.118,0,0,1,.512.561,3.358,3.358,0,0,1,.342.683c.081.229.154.44.219.635l.1.2.39,1.318L-20.106,21.4l3.32,12.352h2.3L-7.9,8.17l2.784,10.058q1.073,3.858,2.1,7.714t2.1,7.811H1.327l8.055-31a3.761,3.761,0,0,1,.464-1.172,1.1,1.1,0,0,1,1.1-.586,2.844,2.844,0,0,1,.732,0V.017Zm26.12,32.906a1.159,1.159,0,0,1-.732-.269,2.7,2.7,0,0,1-.586-.634,3.616,3.616,0,0,1-.39-.757,4.117,4.117,0,0,1-.2-.635l-.392-1.318L21.783.066l-2.3-.048-8.056,31a3.155,3.155,0,0,1-.171.61,2.522,2.522,0,0,1-.316.586,1.7,1.7,0,0,1-.464.439.864.864,0,0,1-.61.122,1.388,1.388,0,0,1-.732,0v.976h5.907V32.92a8.091,8.091,0,0,1-1.465-.172A1.323,1.323,0,0,1,12.9,32.4a.747.747,0,0,1-.146-.614,10.307,10.307,0,0,1,.2-1.031l.2-.932,1.366-5.79h2.124q1.244,0,2.538.024t2.515.024h2.1l1.757,6.624a3.836,3.836,0,0,1,.122,1.325.942.942,0,0,1-.293.614.891.891,0,0,1-.463.2c-.164.017-.278.024-.342.024l-.732.049v.834h8.543v-.829ZM14.8,22.866,19.2,5.876l4.3,17.038Zm41.727,9.521a2.3,2.3,0,0,1-.634.732,1.3,1.3,0,0,1-.781.293.854.854,0,0,1-.635-.464,3.078,3.078,0,0,1-.342-.805q-.049-.537-.049-1.026V28.334q0-1.22-.024-2.49a20.183,20.183,0,0,0-.269-2.783,11.018,11.018,0,0,0-.439-2.294,9.414,9.414,0,0,0-.928-2.1,5.4,5.4,0,0,0-3.662-2.246,7.848,7.848,0,0,0,4.443-3.32A10.483,10.483,0,0,0,54.381,8.17q0-.487-.05-1c-.033-.342-.081-.691-.146-1.05A7.14,7.14,0,0,0,49.792.75a15.538,15.538,0,0,0-4.931-.831q-.489,0-1.026.025A6.829,6.829,0,0,0,42.81.066H37.44a8.955,8.955,0,0,0-1.856,0V.9h1.074A1.48,1.48,0,0,1,37,.945a.868.868,0,0,1,.39.244,1.666,1.666,0,0,1,.342.561,2.76,2.76,0,0,1,.147,1V30.579a3.6,3.6,0,0,1-.2,1.342,2.176,2.176,0,0,1-.415.684,1.319,1.319,0,0,1-.66.318H35.584v.829h8.641v-.829h-.732a.886.886,0,0,1-.829-.318,2.521,2.521,0,0,1-.439-.829,4.727,4.727,0,0,1-.2-.9c-.033-.293-.048-.456-.048-.489V16.812H43.4q.977,0,1.416-.049a4.25,4.25,0,0,1,2.831.537H47.6a4.466,4.466,0,0,1,1.44,2.05,13.9,13.9,0,0,1,.463,2.344q.1.831.171,1.684t.073,1.684v.781a6.254,6.254,0,0,1-.049.782c-.033.261-.057.512-.073.757s-.024.5-.024.757a11.928,11.928,0,0,0,1.073,5.028,3.024,3.024,0,0,0,1.172,1.245,4.658,4.658,0,0,0,1.611.415,4.1,4.1,0,0,0,1.073-.049,4.516,4.516,0,0,0,1.124-.342,3.9,3.9,0,0,0,.976-.634,2.78,2.78,0,0,0,.684-.928.621.621,0,0,0-.245-.147.608.608,0,0,1-.244-.147ZM43.835.9V.8a.217.217,0,0,0-.1.024.212.212,0,0,1-.1.025v.1Zm.2,14.939v.1h.342v-.1H44.03ZM48.352,14a5.292,5.292,0,0,1-1.489,1.147,6.031,6.031,0,0,1-1.513.537,6.12,6.12,0,0,1-1.074.147H41.931V12.491q0-1.977.024-4.076t.024-4.078V.945h1.66a6.02,6.02,0,0,1,2.881.439,8.451,8.451,0,0,1,1.245,1.074A7.262,7.262,0,0,1,48.815,3.85,7.366,7.366,0,0,1,49.5,5.412,4.481,4.481,0,0,1,49.694,7a5.725,5.725,0,0,1,.049.708v.658a22.824,22.824,0,0,1-.292,3.662A5.137,5.137,0,0,1,48.352,14M74.744.576v.759a.875.875,0,0,1-.171.219c-.081.082-.155.107-.219.074a6.527,6.527,0,0,1-1.318-.537h.049a8.427,8.427,0,0,0-4-1.074,6.607,6.607,0,0,0-2.465.537,6.939,6.939,0,0,0-1.953,1.294,9.032,9.032,0,0,0-1.489,1.831,12.554,12.554,0,0,0-1.074,2.2,10.214,10.214,0,0,0-.586,3.32,9.855,9.855,0,0,0,1.9,5.907,25.742,25.742,0,0,0,3.15,3.1,33.942,33.942,0,0,0,3.588,2.612,5.073,5.073,0,0,0,.439.39,2.508,2.508,0,0,0,.44.293l.586.537q.293.293.586.537a3.088,3.088,0,0,1,.537.586,8.211,8.211,0,0,1,2.05,5.273,4.918,4.918,0,0,1-.342,2.27,4.7,4.7,0,0,1-1.366,1.879A5.827,5.827,0,0,1,69.276,33.9a7.523,7.523,0,0,1-1.489-.049,11.862,11.862,0,0,1-1.44-.293A5.129,5.129,0,0,1,64.32,32.02a9.983,9.983,0,0,1-1.44-2.441,13.3,13.3,0,0,1-.854-3.028,20.254,20.254,0,0,1-.269-3.3h-.732V34.29h.782v-.634a.59.59,0,0,1,.146-.464.437.437,0,0,1,.342-.1,1.214,1.214,0,0,1,.39.122c.13.065.228.114.293.145q.977.44,1.929.806a11.582,11.582,0,0,0,1.976.561q.537.1,1.1.147c.375.032.741.048,1.1.048a12.17,12.17,0,0,0,1.807-.147,8.478,8.478,0,0,0,3.638-1.614,8.667,8.667,0,0,0,2.513-3.128v.048a7.789,7.789,0,0,0,.953-2.273,9.636,9.636,0,0,0,.219-2.518,7.877,7.877,0,0,0-.44-2.591,9.709,9.709,0,0,0-1-2.273A9.953,9.953,0,0,0,75.281,18.5q-.586-.538-1.366-1.271T72.5,16l-1.563-1.026q-.829-.538-1.513-1.075a12.981,12.981,0,0,1-2.783-2.469,11.383,11.383,0,0,1-1.9-3.154,7.725,7.725,0,0,1-.2-1.859A7.994,7.994,0,0,1,65.224,3.1,3.954,3.954,0,0,1,68.69,1.043a4.708,4.708,0,0,1,1.782.366,5.967,5.967,0,0,1,1.684,1.049,11.85,11.85,0,0,1,2.587,7.47h.684V8.317c0-.489-.008-.983-.024-1.489s-.008-1.017.024-1.537V.576ZM99.956,24.624a14.185,14.185,0,0,1-.415,4.125,5.474,5.474,0,0,1-1.416,2.49,5.117,5.117,0,0,1-2.392,1.245,16.423,16.423,0,0,1-3.344.39H86.481L100.638.506H82.087V9.635h.732a14.063,14.063,0,0,1,.415-4.125A5.289,5.289,0,0,1,84.65,3.044a5.234,5.234,0,0,1,2.417-1.22,19.575,19.575,0,0,1,3.417-.44h5.029L81.355,33.753h19.333V24.624Zm27.037,8.3a1.159,1.159,0,0,1-.732-.269,2.7,2.7,0,0,1-.586-.634,3.681,3.681,0,0,1-.392-.757,4.409,4.409,0,0,1-.2-.635l-.39-1.318L116.837.066,114.543.017l-8.056,31a3.156,3.156,0,0,1-.171.61,2.57,2.57,0,0,1-.316.586,1.7,1.7,0,0,1-.464.439.864.864,0,0,1-.61.122,1.388,1.388,0,0,1-.732,0v.976H110.1V32.92a8.091,8.091,0,0,1-1.465-.172,1.323,1.323,0,0,1-.684-.343.747.747,0,0,1-.147-.614q.049-.393.2-1.031l.2-.932,1.367-5.79h2.123q1.246,0,2.539.024t2.515.024h2.1L120.6,30.71a3.837,3.837,0,0,1,.122,1.325.947.947,0,0,1-.293.614.894.894,0,0,1-.464.2c-.162.017-.276.024-.341.024l-.732.049v.834h8.543v-.829ZM109.857,22.866l4.393-16.99,4.3,17.038ZM157.56.017V.848c.617.065,1.1.13,1.439.2a1.044,1.044,0,0,1,.684.341.862.862,0,0,1,.1.66c-.05.276-.122.643-.221,1.1l-.1.781L153.41,27.943l-.976-3.808L149.8,13.785q-.438-1.806-.9-3.589t-.952-3.539c-.1-.293-.187-.586-.268-.879s-.155-.586-.219-.878l-.44-1.807a9.183,9.183,0,0,1-.171-.9,1.307,1.307,0,0,1,.171-.9A1.014,1.014,0,0,1,147.7.9c.032-.033.13-.049.293-.049h.732V.017h-8.1V.848a.209.209,0,0,1,.1.024.218.218,0,0,0,.1.024h.2a3.057,3.057,0,0,1,1.123.757,2.143,2.143,0,0,1,.586,1.2,7.144,7.144,0,0,1,.244,2.686,6.777,6.777,0,0,1-.439,2.392.857.857,0,0,1-.048.342l-4.931,19.627q-.538-2.052-1.074-4.2t-1.074-4.2l-2.2-8.69a.331.331,0,0,1-.1-.245.913.913,0,0,0-.05-.292l-.145-.586-1.758-6.641A2.711,2.711,0,0,1,131,1.775a1.17,1.17,0,0,1,.318-.635.824.824,0,0,1,.463-.219c.162-.016.276-.024.342-.024l.732-.049V.017h-8.495V.848h.439a1.106,1.106,0,0,1,.684.219,2.143,2.143,0,0,1,.513.561,3.358,3.358,0,0,1,.342.683c.081.229.154.44.219.635l.1.2.39,1.318L131.636,21.4l3.32,12.352h2.294L143.841,8.17l2.783,10.058q1.073,3.858,2.1,7.714t2.1,7.811h2.246l8.056-31a3.7,3.7,0,0,1,.464-1.172,1.1,1.1,0,0,1,1.1-.586,2.844,2.844,0,0,1,.732,0V.017Zm26.12,32.906a1.157,1.157,0,0,1-.732-.269,2.681,2.681,0,0,1-.587-.634,3.736,3.736,0,0,1-.39-.757,4.4,4.4,0,0,1-.2-.635l-.39-1.318L173.524.066,171.23.017l-8.056,31a3.156,3.156,0,0,1-.171.61,2.527,2.527,0,0,1-.318.586,1.675,1.675,0,0,1-.463.439.864.864,0,0,1-.61.122,1.388,1.388,0,0,1-.732,0v.976h5.907V32.92a8.076,8.076,0,0,1-1.465-.172,1.323,1.323,0,0,1-.684-.343.743.743,0,0,1-.147-.614q.049-.393.2-1.031l.2-.932,1.368-5.79h2.123q1.246,0,2.539.024t2.515.024h2.1l1.758,6.624a3.8,3.8,0,0,1,.121,1.325.941.941,0,0,1-.292.614.894.894,0,0,1-.464.2c-.162.017-.276.024-.342.024l-.732.049v.834h8.544v-.829ZM166.542,22.866l4.394-16.99,4.3,17.038Z" transform="translate(27.381 0.081)" fill="#2b2e34"/></svg>