<svg xmlns="http://www.w3.org/2000/svg" width="195.845" height="35.021" viewBox="0 0 195.845 35.021"><g transform="translate(114.244 11.392)"><path d="M1.532.927,7.291-3.095q.637-.438.637-.731,0-.537-.684-.537a.651.651,0,0,0-.39.147L1.532-.555-3.3,2.893-6.573,5.187q-.635.489-.635.732,0,.587.616.587a1,1,0,0,0,.52-.179L-3.3,4.383Z" transform="translate(7.208 4.363)" fill="#2b2e34"/></g><g transform="translate(0 0)"><path d="M5.818.034V.865q.928.1,1.44.2a1.047,1.047,0,0,1,.684.341.867.867,0,0,1,.1.66c-.049.276-.122.643-.219,1.1l-.1.781L1.668,27.96.692,24.152-1.944,13.8q-.44-1.806-.9-3.589T-3.8,6.674q-.147-.438-.269-.879c-.081-.292-.154-.586-.219-.878L-4.727,3.11a8.834,8.834,0,0,1-.171-.9,1.294,1.294,0,0,1,.171-.9,1.014,1.014,0,0,1,.683-.39c.033-.033.13-.048.293-.048h.732V.034h-8.1V.865a.209.209,0,0,1,.1.024.226.226,0,0,0,.1.024h.2A3.047,3.047,0,0,1-9.61,1.67a2.143,2.143,0,0,1,.586,1.2,7.146,7.146,0,0,1,.245,2.686,6.752,6.752,0,0,1-.44,2.392.857.857,0,0,1-.048.342L-14.2,27.912q-.538-2.052-1.074-4.2t-1.074-4.2l-2.2-8.69a.327.327,0,0,1-.1-.245.946.946,0,0,0-.048-.292l-.147-.586-1.758-6.641a2.723,2.723,0,0,1-.146-1.268,1.169,1.169,0,0,1,.316-.635A.824.824,0,0,1-19.96.938c.162-.016.276-.024.342-.024l.732-.048V.034H-27.38V.865h.439a1.109,1.109,0,0,1,.684.219,2.118,2.118,0,0,1,.512.561,3.358,3.358,0,0,1,.342.683c.081.229.154.44.219.635l.1.2.39,1.318,4.589,16.941,3.32,12.352h2.3L-7.9,8.187l2.784,10.058q1.073,3.858,2.1,7.714t2.1,7.811H1.327l8.055-31A3.761,3.761,0,0,1,9.846,1.6a1.1,1.1,0,0,1,1.1-.586,2.844,2.844,0,0,1,.732,0V.034ZM35.99,32.4a2.314,2.314,0,0,1-.634.732,1.3,1.3,0,0,1-.782.293.854.854,0,0,1-.634-.464,3,3,0,0,1-.342-.805q-.049-.537-.049-1.026V28.351q0-1.22-.024-2.49a20.182,20.182,0,0,0-.269-2.783,11.1,11.1,0,0,0-.439-2.294,9.414,9.414,0,0,0-.928-2.1,5.4,5.4,0,0,0-3.662-2.246,7.852,7.852,0,0,0,4.443-3.32,10.5,10.5,0,0,0,1.171-4.931c0-.325-.017-.658-.049-1s-.081-.691-.147-1.05A7.133,7.133,0,0,0,29.252.767a15.538,15.538,0,0,0-4.931-.831q-.487,0-1.025.025a6.826,6.826,0,0,0-1.026.121H16.9a8.943,8.943,0,0,0-1.855,0V.913H16.12a1.5,1.5,0,0,1,.342.048.874.874,0,0,1,.39.244,1.685,1.685,0,0,1,.342.561,2.787,2.787,0,0,1,.147,1V30.6a3.6,3.6,0,0,1-.2,1.342,2.132,2.132,0,0,1-.415.684,1.319,1.319,0,0,1-.658.318H15.045v.829h8.641V32.94h-.732a.885.885,0,0,1-.829-.318,2.547,2.547,0,0,1-.44-.829,4.815,4.815,0,0,1-.2-.9c-.033-.293-.048-.456-.048-.489V16.829h1.416c.65,0,1.123-.016,1.415-.049a4.252,4.252,0,0,1,2.832.537h-.05a4.457,4.457,0,0,1,1.44,2.05,13.9,13.9,0,0,1,.464,2.344q.1.831.171,1.684T29.2,25.08v.781a6.494,6.494,0,0,1-.049.782c-.033.261-.057.512-.074.757s-.024.5-.024.757a11.91,11.91,0,0,0,1.074,5.028A3.015,3.015,0,0,0,31.3,34.429a4.673,4.673,0,0,0,1.611.415,4.059,4.059,0,0,0,1.074-.049,4.522,4.522,0,0,0,1.123-.342,3.882,3.882,0,0,0,.976-.634,2.747,2.747,0,0,0,.684-.928.617.617,0,0,0-.244-.147.6.6,0,0,1-.244-.147ZM23.3.913v-.1a.226.226,0,0,0-.1.024.211.211,0,0,1-.1.025v.1Zm.2,14.939v.1h.342v-.1h-.342Zm4.32-1.831a5.275,5.275,0,0,1-1.489,1.147,6,6,0,0,1-1.513.537,6.106,6.106,0,0,1-1.074.147H21.393V12.508q0-1.977.024-4.076t.024-4.076V.962H23.1a6.023,6.023,0,0,1,2.881.439,8.444,8.444,0,0,1,1.244,1.074,7.269,7.269,0,0,1,1.05,1.392,7.365,7.365,0,0,1,.684,1.562,4.509,4.509,0,0,1,.2,1.587,5.972,5.972,0,0,1,.049.708v.658a22.686,22.686,0,0,1-.293,3.662,5.137,5.137,0,0,1-1.1,1.978m32.935-.66a25.5,25.5,0,0,0-.586-3.856,20.851,20.851,0,0,0-1.2-3.637,10.885,10.885,0,0,0-1.978-3.052A9.432,9.432,0,0,0,54.059.694a9.925,9.925,0,0,0-4.052-.855h-.2a10.093,10.093,0,0,0-4.076.855,9.3,9.3,0,0,0-2.954,2.123A10.806,10.806,0,0,0,40.8,5.869a20.652,20.652,0,0,0-1.2,3.637,25.81,25.81,0,0,0-.586,3.856q-.146,1.953-.147,3.711a33.516,33.516,0,0,0,.39,5.541,19.1,19.1,0,0,0,1.66,5.493,11.974,11.974,0,0,0,3.37,4.247,9.189,9.189,0,0,0,5.467,1.855H50.1a9.009,9.009,0,0,0,5.4-1.855,12.11,12.11,0,0,0,3.344-4.247,19.1,19.1,0,0,0,1.66-5.493,33.645,33.645,0,0,0,.39-5.541q0-1.759-.147-3.711m-4.931,5.4q-.049,1.44-.145,2.855a35.353,35.353,0,0,1-.633,5.615,10.123,10.123,0,0,1-.85,2.684,9.772,9.772,0,0,1-1.58,2.344,1.916,1.916,0,0,1-.56.39,3.626,3.626,0,0,0-.462.245,5.21,5.21,0,0,1-1.653.292,4.659,4.659,0,0,1-1.654-.292q-.244-.1-.535-.245a2.03,2.03,0,0,1-.535-.39,13.155,13.155,0,0,1-1.822-3.1,11.327,11.327,0,0,1-.851-3.491A45.72,45.72,0,0,1,44,21.027q-.147-2.293-.147-4.638,0-1.319.05-2.612t.145-2.612a23.012,23.012,0,0,1,.389-3.54,25.172,25.172,0,0,1,.924-3.539A5.74,5.74,0,0,1,49.932.668a5.791,5.791,0,0,1,2.772,1.1,5.067,5.067,0,0,1,1.75,2.32,25.841,25.841,0,0,1,.851,3.076,21.646,21.646,0,0,1,.413,3.075,1.755,1.755,0,0,0-.024.513,3,3,0,0,0,.073.464,1.073,1.073,0,0,0,.024.219,1.081,1.081,0,0,1,.024.219v.732a2.008,2.008,0,0,0,.025.342,2.176,2.176,0,0,1,.024.342q.047.733.049,1.44V15.9q-.049,1.417-.1,2.857m28.009,4.515a20.757,20.757,0,0,1-.219,2.881,15.793,15.793,0,0,1-.732,3.026,9.3,9.3,0,0,1-1.392,2.613,4.514,4.514,0,0,1-2.2,1.586,8.509,8.509,0,0,1-1.856.245,6.882,6.882,0,0,1-2.441-.44,2.442,2.442,0,0,1-.928-.537.826.826,0,0,1-.244-.1h.048A10.483,10.483,0,0,1,72.3,30.206a9.918,9.918,0,0,1-.831-2.636A48.051,48.051,0,0,1,70.74,22q-.1-1.415-.147-2.807t-.049-2.807q0-1.415.049-2.807t.2-2.857A18.917,18.917,0,0,1,71.155,7.5,24.743,24.743,0,0,1,72.01,4.38,8.878,8.878,0,0,1,73.376,2.6,6.515,6.515,0,0,1,75.062,1.45a4.822,4.822,0,0,1,2.318-.44A4.539,4.539,0,0,1,79.724,2.3a8.281,8.281,0,0,1,1.587,2.32,12.477,12.477,0,0,1,.9,2.758,13.224,13.224,0,0,1,.293,2.612h.732V.473h-.732v.635c0,.261-.049.423-.147.487a.476.476,0,0,1-.342.074,1.184,1.184,0,0,1-.39-.122L81.335,1.4A10.959,10.959,0,0,0,76.941.132H76.5a9.043,9.043,0,0,0-5.662,1.757,11.453,11.453,0,0,0-3.32,4.272,19.283,19.283,0,0,0-1.563,5.567,43.768,43.768,0,0,0-.39,5.638,32,32,0,0,0,.122,3.71,23.089,23.089,0,0,0,.658,3.833,19.944,19.944,0,0,0,1.318,3.613,11.124,11.124,0,0,0,2.1,3.026,10.224,10.224,0,0,0,2.978,2.1,9.8,9.8,0,0,0,4,.854,12.655,12.655,0,0,0,2.563-.268,20.746,20.746,0,0,0,2.563-.708.8.8,0,0,0,.244-.049,1.94,1.94,0,0,0,.244-.1.279.279,0,0,0,.2-.1h-.048a1.217,1.217,0,0,1,.732-.122.911.911,0,0,1,.39.219,1.1,1.1,0,0,1,.2.489v.293h.732V23.273Zm21.759,1.319a11.573,11.573,0,0,1-.61,4.418,5.371,5.371,0,0,1-1.953,2.514,7.411,7.411,0,0,1-3.149,1.147,29.469,29.469,0,0,1-4.2.269V2.573q0-1.122.39-1.392A1.24,1.24,0,0,1,96.7.913H97.87V.083H89.18V.913h1.171a.914.914,0,0,1,.635.219,1.194,1.194,0,0,1,.341.513,1.3,1.3,0,0,1,.1.487V31.524a1.7,1.7,0,0,1-.415,1.1,1.294,1.294,0,0,1-.611.318H89.18v.829h17.136V24.592Zm26.455,8.348a1.162,1.162,0,0,1-.732-.269,2.7,2.7,0,0,1-.586-.634,3.735,3.735,0,0,1-.39-.757,4.259,4.259,0,0,1-.2-.635l-.39-1.318L121.885.083,119.59.034l-8.056,31a3.157,3.157,0,0,1-.171.61,2.527,2.527,0,0,1-.318.586,1.675,1.675,0,0,1-.463.439.866.866,0,0,1-.611.122,1.388,1.388,0,0,1-.732,0v.976h5.907v-.833a8.074,8.074,0,0,1-1.463-.172,1.323,1.323,0,0,1-.684-.343.743.743,0,0,1-.147-.614c.032-.262.1-.605.2-1.031l.2-.932,1.368-5.79h2.123q1.246,0,2.539.024t2.515.024h2.1l1.758,6.624a3.86,3.86,0,0,1,.121,1.325.947.947,0,0,1-.292.614.894.894,0,0,1-.464.2c-.164.017-.276.024-.342.024l-.732.049v.834h8.544V32.94ZM114.9,22.883,119.3,5.893l4.3,17.039ZM162.606.034V.865q.928.1,1.44.2a1.047,1.047,0,0,1,.684.341.857.857,0,0,1,.1.66q-.073.415-.219,1.1l-.1.781L158.457,27.96l-.977-3.808L154.844,13.8q-.44-1.806-.9-3.589t-.952-3.539q-.147-.438-.269-.879c-.081-.292-.154-.586-.219-.878l-.439-1.807a8.837,8.837,0,0,1-.171-.9,1.3,1.3,0,0,1,.171-.9,1.014,1.014,0,0,1,.684-.39c.032-.033.13-.048.292-.048h.732V.034h-8.1V.865a.21.21,0,0,1,.1.024.217.217,0,0,0,.1.024h.2a3.037,3.037,0,0,1,1.123.757,2.153,2.153,0,0,1,.587,1.2,7.168,7.168,0,0,1,.244,2.686,6.751,6.751,0,0,1-.44,2.392.835.835,0,0,1-.048.342l-4.931,19.627q-.537-2.052-1.073-4.2t-1.074-4.2l-2.2-8.69a.332.332,0,0,1-.1-.245.946.946,0,0,0-.049-.292l-.147-.586-1.757-6.641a2.71,2.71,0,0,1-.147-1.268,1.162,1.162,0,0,1,.318-.635.817.817,0,0,1,.463-.219c.162-.016.276-.024.342-.024L137.9.865V.034h-8.495V.865h.439a1.106,1.106,0,0,1,.684.219,2.143,2.143,0,0,1,.513.561,3.414,3.414,0,0,1,.341.683c.081.229.155.44.221.635l.1.2.39,1.318,4.589,16.941L140,33.77h2.3l6.591-25.582,2.783,10.058q1.073,3.858,2.1,7.714t2.1,7.811h2.246l8.056-31a3.726,3.726,0,0,1,.463-1.172,1.1,1.1,0,0,1,1.1-.586,2.844,2.844,0,0,1,.732,0V.034Z" transform="translate(27.38 0.161)" fill="#2b2e34"/></g></svg>